<?xml version="1.0" encoding="utf-8"?>
<svg viewBox="107.235 2.454 304.44 478.275" xmlns="http://www.w3.org/2000/svg">
  <polygon points="204.326 457.692 187.896 457.69 180.08 394.319 204.329 394.32 204.326 457.692" fill="#9f616a" style=""/>
  <path d="M 208.517 473.617 L 155.54 473.616 L 155.54 472.946 C 155.54 461.557 164.772 452.326 176.16 452.326 L 176.161 452.326 L 208.518 452.328 L 208.517 473.617 Z" fill="#2f2e41" style=""/>
  <polygon points="335.658 457.692 319.229 457.69 311.413 394.319 335.661 394.32 335.658 457.692" fill="#9f616a" style=""/>
  <path d="M 339.849 473.617 L 286.872 473.616 L 286.872 472.946 C 286.873 461.557 296.105 452.326 307.493 452.326 L 339.849 452.328 L 339.849 473.617 Z" fill="#2f2e41" style=""/>
  <path d="M 291.465 179.189 L 308.027 118.002 L 286.542 105.924 L 256.552 105.924 L 244.889 118.404 C 244.889 118.404 225.402 131.963 230.118 146.984 L 237.727 181.201 L 226.09 235.545 L 167.455 316.859 L 153.575 396.732 L 208.212 411.056 L 267.295 294.72 L 295.941 423.535 L 349.233 420.855 L 330.87 264.666 C 330.87 264.666 325.634 217.086 298.195 187.377 L 291.465 179.189 Z" fill="#2f2e41" style=""/>
</svg>