<?xml version="1.0" encoding="utf-8"?>
<svg viewBox="23.727 2.454 476.273 497.546" xmlns="http://www.w3.org/2000/svg">
  <path d="M 166.476 204.476 C 162.701 199.982 163.906 193.167 168.994 190.239 L 162.727 157.325 L 178.799 164.023 L 182.285 194.252 C 185.499 200.804 180.414 208.377 173.133 207.884 C 170.542 207.709 168.134 206.477 166.476 204.476 Z" fill="#ffb7b7" style=""/>
  <path d="M 171.161 207.145 C 176.589 208.237 181.684 204.155 181.806 198.62 L 249.003 135.372 L 233.884 123.312 L 172.471 189.435 C 165.595 189.739 161.626 197.374 165.33 203.177 C 166.647 205.243 168.756 206.678 171.161 207.145 Z" fill="#9f616a" style=""/>
  <path d="M 239.482 145.596 L 226.408 130.274 C 224.827 128.423 225.262 125.599 227.325 124.307 L 244.344 113.652 C 250.86 108.155 260.885 111.772 262.389 120.164 C 263.082 124.038 261.668 127.989 258.673 130.543 L 245.52 145.629 C 243.92 147.464 241.062 147.448 239.482 145.596 Z" fill="#cbcbcb" style=""/>
  <polygon points="204.326 457.692 187.896 457.69 180.08 394.319 204.329 394.32 204.326 457.692" fill="#9f616a" style=""/>
  <path d="M 208.517 473.617 L 155.54 473.616 L 155.54 472.946 C 155.54 461.557 164.772 452.326 176.16 452.326 L 176.161 452.326 L 208.518 452.328 L 208.517 473.617 Z" fill="#2f2e41" style=""/>
  <polygon points="335.658 457.692 319.229 457.69 311.413 394.319 335.661 394.32 335.658 457.692" fill="#9f616a" style=""/>
  <path d="M 339.849 473.617 L 286.872 473.616 L 286.872 472.946 C 286.873 461.557 296.105 452.326 307.493 452.326 L 339.849 452.328 L 339.849 473.617 Z" fill="#2f2e41" style=""/>
  <path d="M 291.465 179.189 L 308.027 118.002 L 286.542 105.924 L 256.552 105.924 L 244.889 118.404 C 244.889 118.404 225.402 131.963 230.118 146.984 L 237.727 181.201 L 226.09 235.545 L 167.455 316.859 L 153.575 396.732 L 208.212 411.056 L 267.295 294.72 L 295.941 423.535 L 349.233 420.855 L 330.87 264.666 C 330.87 264.666 325.634 217.086 298.195 187.377 L 291.465 179.189 Z" fill="#2f2e41" style=""/>
  <path d="M 325.667 233.326 C 329.6 229.43 329.054 222.924 324.527 219.737 L 311.678 133.047 L 293.234 138.872 L 311.698 222.361 C 308.114 228.24 312.239 235.791 319.121 235.955 C 321.57 236.012 323.938 235.063 325.667 233.326 Z" fill="#9f616a" style=""/>
  <path d="M 314.854 146.653 L 294.845 148.96 C 292.427 149.24 290.325 147.303 290.403 144.87 L 291.051 124.801 C 290.124 116.326 298.717 110.026 306.521 113.459 C 310.123 115.044 312.612 118.419 313.062 122.328 L 318.249 141.658 C 318.879 144.011 317.272 146.375 314.854 146.653 Z" fill="#cbcbcb" style=""/>
  <path d="M 238.01 88.525 L 238.01 62.744 C 238.01 36.149 266.8 19.529 289.83 32.826 C 300.519 38.997 307.104 50.402 307.104 62.744 L 307.104 88.525 C 307.1 91.086 305.024 93.162 302.462 93.166 L 242.651 93.166 C 240.09 93.162 238.013 91.086 238.01 88.525 Z" fill="#2f2e41" style=""/>
  <circle cx="872.037" cy="312.1" r="25.328" transform="matrix(0.877454, -0.47966, 0.47966, 0.877454, -649.418207, 211.665123)" fill="#9f616a" style=""/>
  <path d="M 229.837 64.806 C 229.854 49.72 242.08 37.495 257.166 37.478 L 262.322 37.478 C 277.408 37.495 289.631 49.72 289.648 64.806 L 289.648 65.323 L 278.753 65.323 L 275.035 54.914 L 274.292 65.323 L 268.662 65.323 L 266.785 60.071 L 266.411 65.323 L 229.837 65.323 L 229.837 64.806 Z" fill="#2f2e41" style=""/>
  <path d="M 262.965 96.063 C 261.921 94.65 261.78 92.764 262.602 91.21 C 268.066 80.817 275.717 61.613 265.562 49.77 L 264.832 48.92 L 294.312 48.92 L 294.312 93.18 L 267.531 97.904 C 267.261 97.953 266.985 97.976 266.71 97.978 C 265.228 97.978 263.834 97.266 262.965 96.063 Z" fill="#2f2e41" style=""/>
  <path d="M 177.635 138.87 C 176.113 139.023 174.58 139.06 173.051 138.977 C 172.509 138.917 172.019 139.304 171.951 139.846 L 169.026 161.779 C 168.802 163.371 168.15 164.872 167.141 166.123 C 165.458 168.137 164.686 170.759 165.008 173.362 L 165.008 210.62 C 165.008 210.62 164.819 215.587 168.637 215.587 C 173.206 216.162 177.827 216.162 182.396 215.587 C 182.396 215.587 185.452 215.009 185.452 210.425 L 185.452 173.74 C 185.924 171.148 185.233 168.481 183.566 166.444 C 182.589 165.19 181.959 163.7 181.735 162.125 L 178.698 139.732 C 178.626 139.209 178.161 138.833 177.635 138.87 Z" fill="#fff" style=""/>
  <path d="M 175.503 216.646 C 173.194 216.646 170.887 216.502 168.597 216.217 C 167.561 216.241 166.564 215.833 165.843 215.09 C 164.289 213.477 164.376 210.713 164.38 210.596 L 164.379 173.4 C 164.051 170.636 164.875 167.859 166.658 165.721 C 167.592 164.559 168.196 163.167 168.403 161.691 L 171.327 139.762 C 171.446 138.885 172.24 138.261 173.12 138.352 C 174.604 138.43 176.093 138.394 177.572 138.245 L 177.591 138.244 C 178.447 138.181 179.205 138.795 179.321 139.646 L 182.358 162.04 C 182.567 163.505 183.155 164.889 184.062 166.059 C 185.83 168.22 186.568 171.046 186.081 173.796 L 186.081 210.425 C 186.081 215.472 182.549 216.2 182.512 216.206 C 180.188 216.5 177.847 216.646 175.503 216.646 Z M 172.966 139.603 C 172.771 139.592 172.603 139.732 172.574 139.924 L 169.65 161.861 C 169.41 163.568 168.712 165.178 167.63 166.519 C 166.058 168.4 165.335 170.85 165.633 173.284 L 165.636 173.362 L 165.636 210.62 C 165.636 210.667 165.57 212.996 166.752 214.22 C 167.246 214.724 167.932 214.992 168.637 214.959 L 168.715 214.964 C 173.231 215.531 177.801 215.531 182.318 214.964 C 182.376 214.95 184.823 214.391 184.823 210.425 L 184.833 173.626 C 185.274 171.218 184.631 168.736 183.079 166.844 C 182.032 165.498 181.353 163.902 181.114 162.212 L 178.075 139.816 C 178.046 139.626 177.879 139.488 177.687 139.497 C 176.136 139.653 174.574 139.689 173.018 139.606 C 173 139.604 172.983 139.603 172.966 139.603 Z" fill="#3f3d56" style=""/>
  <path d="M 173.019 174.028 L 177.655 174.028 C 181.492 174.028 184.603 177.14 184.603 180.978 L 184.603 198.415 C 184.603 202.253 181.492 205.363 177.655 205.363 L 173.019 205.363 C 169.182 205.363 166.071 202.253 166.071 198.415 L 166.071 180.978 C 166.071 177.14 169.182 174.028 173.019 174.028 Z" style="fill: rgb(181, 90, 0);"/>
</svg>