<?xml version="1.0" encoding="utf-8"?>
<svg viewBox="146.544 102.243 242.503 119.327" xmlns="http://www.w3.org/2000/svg">
  <path d="M 166.476 204.476 C 162.701 199.982 163.906 193.167 168.994 190.239 L 162.727 157.325 L 178.799 164.023 L 182.285 194.252 C 185.499 200.804 180.414 208.377 173.133 207.884 C 170.542 207.709 168.134 206.477 166.476 204.476 Z" fill="#ffb7b7" style=""/>
  <path d="M 171.161 207.145 C 176.589 208.237 181.684 204.155 181.806 198.62 L 249.003 135.372 L 233.884 123.312 L 172.471 189.435 C 165.595 189.739 161.626 197.374 165.33 203.177 C 166.647 205.243 168.756 206.678 171.161 207.145 Z" fill="#9f616a" style=""/>
  <path d="M 239.482 145.596 L 226.408 130.274 C 224.827 128.423 225.262 125.599 227.325 124.307 L 244.344 113.652 C 250.86 108.155 260.885 111.772 262.389 120.164 C 263.082 124.038 261.668 127.989 258.673 130.543 L 245.52 145.629 C 243.92 147.464 241.062 147.448 239.482 145.596 Z" fill="#cbcbcb" style=""/>
  <path d="M 177.635 138.87 C 176.113 139.023 174.58 139.06 173.051 138.977 C 172.509 138.917 172.019 139.304 171.951 139.846 L 169.026 161.779 C 168.802 163.371 168.15 164.872 167.141 166.123 C 165.458 168.137 164.686 170.759 165.008 173.362 L 165.008 210.62 C 165.008 210.62 164.819 215.587 168.637 215.587 C 173.206 216.162 177.827 216.162 182.396 215.587 C 182.396 215.587 185.452 215.009 185.452 210.425 L 185.452 173.74 C 185.924 171.148 185.233 168.481 183.566 166.444 C 182.589 165.19 181.959 163.7 181.735 162.125 L 178.698 139.732 C 178.626 139.209 178.161 138.833 177.635 138.87 Z" fill="#fff" style=""/>
  <path d="M 175.503 216.646 C 173.194 216.646 170.887 216.502 168.597 216.217 C 167.561 216.241 166.564 215.833 165.843 215.09 C 164.289 213.477 164.376 210.713 164.38 210.596 L 164.379 173.4 C 164.051 170.636 164.875 167.859 166.658 165.721 C 167.592 164.559 168.196 163.167 168.403 161.691 L 171.327 139.762 C 171.446 138.885 172.24 138.261 173.12 138.352 C 174.604 138.43 176.093 138.394 177.572 138.245 L 177.591 138.244 C 178.447 138.181 179.205 138.795 179.321 139.646 L 182.358 162.04 C 182.567 163.505 183.155 164.889 184.062 166.059 C 185.83 168.22 186.568 171.046 186.081 173.796 L 186.081 210.425 C 186.081 215.472 182.549 216.2 182.512 216.206 C 180.188 216.5 177.847 216.646 175.503 216.646 Z M 172.966 139.603 C 172.771 139.592 172.603 139.732 172.574 139.924 L 169.65 161.861 C 169.41 163.568 168.712 165.178 167.63 166.519 C 166.058 168.4 165.335 170.85 165.633 173.284 L 165.636 173.362 L 165.636 210.62 C 165.636 210.667 165.57 212.996 166.752 214.22 C 167.246 214.724 167.932 214.992 168.637 214.959 L 168.715 214.964 C 173.231 215.531 177.801 215.531 182.318 214.964 C 182.376 214.95 184.823 214.391 184.823 210.425 L 184.833 173.626 C 185.274 171.218 184.631 168.736 183.079 166.844 C 182.032 165.498 181.353 163.902 181.114 162.212 L 178.075 139.816 C 178.046 139.626 177.879 139.488 177.687 139.497 C 176.136 139.653 174.574 139.689 173.018 139.606 C 173 139.604 172.983 139.603 172.966 139.603 Z" fill="#3f3d56" style=""/>
  <path d="M 173.019 174.028 L 177.655 174.028 C 181.492 174.028 184.603 177.14 184.603 180.978 L 184.603 198.415 C 184.603 202.253 181.492 205.363 177.655 205.363 L 173.019 205.363 C 169.182 205.363 166.071 202.253 166.071 198.415 L 166.071 180.978 C 166.071 177.14 169.182 174.028 173.019 174.028 Z" style="fill: rgb(181, 90, 0);"/>
</svg>