<?xml version="1.0" encoding="utf-8"?>
<svg viewBox="227.682 24.975 83.791 74.95" xmlns="http://www.w3.org/2000/svg">
  <path d="M 238.01 88.525 L 238.01 62.744 C 238.01 36.149 266.8 19.529 289.83 32.826 C 300.519 38.997 307.104 50.402 307.104 62.744 L 307.104 88.525 C 307.1 91.086 305.024 93.162 302.462 93.166 L 242.651 93.166 C 240.09 93.162 238.013 91.086 238.01 88.525 Z" fill="#2f2e41" style=""/>
  <circle cx="872.037" cy="312.1" r="25.328" transform="matrix(0.877454, -0.47966, 0.47966, 0.877454, -649.418207, 211.665123)" fill="#9f616a" style=""/>
  <path d="M 229.837 64.806 C 229.854 49.72 242.08 37.495 257.166 37.478 L 262.322 37.478 C 277.408 37.495 289.631 49.72 289.648 64.806 L 289.648 65.323 L 278.753 65.323 L 275.035 54.914 L 274.292 65.323 L 268.662 65.323 L 266.785 60.071 L 266.411 65.323 L 229.837 65.323 L 229.837 64.806 Z" fill="#2f2e41" style=""/>
  <path d="M 262.965 96.063 C 261.921 94.65 261.78 92.764 262.602 91.21 C 268.066 80.817 275.717 61.613 265.562 49.77 L 264.832 48.92 L 294.312 48.92 L 294.312 93.18 L 267.531 97.904 C 267.261 97.953 266.985 97.976 266.71 97.978 C 265.228 97.978 263.834 97.266 262.965 96.063 Z" fill="#2f2e41" style=""/>
</svg>