<?xml version="1.0" encoding="utf-8"?>
<svg viewBox="0 104.488 460.028 224.404" xmlns="http://www.w3.org/2000/svg">
  <path d="M 401.073 477.802 L 392.905 443.704 C 393.707 438.765 393.97 433.757 393.707 428.763 C 389.827 423.704 385.828 418.744 381.711 413.885 C 377.91 409.406 374.003 405.01 370.005 400.7 C 365.256 395.566 360.363 390.564 355.326 385.695 C 342.212 381.683 326.743 380.044 310.578 379.935 C 305.014 379.889 299.358 380.035 293.663 380.329 C 270.632 381.509 247.337 385.106 228.265 388.841 C 223.214 389.817 218.479 390.811 214.112 391.775 C 205.838 393.589 198.92 395.28 193.908 396.57 C 188.266 398.004 185.056 398.934 185.056 398.934 L 163.603 363.944 L 144.11 332.182 L 119 300.982 C 116.593 300.772 114.199 300.594 111.792 300.449 C 109.241 300.275 106.676 300.133 104.124 300.026 C 102.112 299.926 100.086 299.852 98.06 299.796 L 97.363 299.584 L 96.798 299.76 L 87.696 302.583 L 84.618 303.532 L 73.582 306.955 C 73.582 306.955 76.042 314.518 80.356 327.132 C 81.948 331.76 93.194 365.977 104.953 395.851 C 108.451 404.721 112.055 413.719 115.765 422.672 C 118.803 430.024 121.907 437.347 125.051 444.57 C 130.496 457.092 156.856 463.846 187.884 467.388 C 189.463 467.561 191.041 467.737 192.646 467.902 C 208.456 469.521 225.226 470.359 240.905 470.745 C 248.771 470.939 256.347 471.011 263.384 471.021 C 265.673 471.021 267.882 471.015 270.04 471.004 C 275.853 470.976 281.207 470.894 285.903 470.801 C 286.823 470.783 287.718 470.755 288.586 470.736 L 288.599 470.736 C 289.178 470.729 289.756 470.71 290.322 470.7 C 300.608 470.443 306.921 470.129 306.921 470.129 L 309.381 488.825 L 309.881 492.598 L 310.354 496.186 L 310.354 496.195 L 310.407 496.647 L 310.789 496.656 L 317.602 496.783 L 374.792 497.87 L 399.152 498.874 L 401.073 477.802 Z" fill="#2f2e41" style="" transform="matrix(-1, 0, 0, -1, 474.654999, 798.458008)"/>
  <rect x="-423.519" y="269.482" width="127.587" height="16.561" fill="#fff" style="" transform="matrix(-1, 0, 0, 1, 0, 0)"/>
  <path d="M 186.971 295.783 C 186.589 332.734 187.707 322.033 184.695 334.757 C 176.632 368.966 143.118 375.202 137.291 375.976 C 134.66 382.79 126.65 386.006 119.849 382.978 L 108.682 377.333 C 97.831 372.503 104.408 365.524 100.672 354.51 L 96.739 342.825 L 64.527 256.127 L 71.051 223.143 L 71.051 223.124 L 75.444 200.905 L 88.466 186.453 L 88.229 188.759 L 87.94 188.318 L 87.926 188.309 L 87.177 187.214 C 88.229 186.653 89.255 186.101 90.281 185.549 C 92.925 184.131 95.503 182.742 98.028 181.381 C 98.633 181.048 99.225 180.728 99.817 180.395 L 99.83 180.395 C 100.212 180.193 100.593 179.99 100.961 179.789 C 110.392 174.655 75.483 165.307 83.231 160.918 C 84.309 160.311 85.375 159.704 86.427 159.105 C 122.151 138.762 150.654 113.424 159.862 106.063 C 163.979 110.922 167.977 115.882 171.858 120.941 C 175.37 125.514 178.776 130.166 182.065 134.899 C 182.656 138.597 183.038 142.296 183.419 145.921 C 183.867 150.281 181.499 190.682 182.301 195.127 C 182.656 197.094 181.315 198.965 180.013 200.766 C 178.816 202.45 177.671 204.032 177.908 205.524 C 178.158 207.059 179.894 208.734 181.578 210.364 C 183.432 212.149 185.34 213.989 185.616 215.93 C 186.366 221.338 183.262 226.768 183.853 232.215 C 184.814 241.075 185.55 249.962 186.063 258.879 C 186.8 271.189 187.089 283.492 186.971 295.783 Z" fill="#ff0003" style="" transform="matrix(-1, 0, 0, -1, 251.523537, 490.183258)"/>
  <rect x="-175.233" y="593.891" width="112.074" height="20.29" fill="#fff" style="" transform="matrix(-0.997301, -0.073421, -1.505854, 0.891846, 901.894846, -226.690889)"/>
  <rect x="-175.233" y="593.891" width="112.074" height="20.29" style="fill: rgb(253, 231, 231);" transform="matrix(-0.998298, 0.058325, 1.202142, 0.931471, -665.226703, -236.324586)"/>
</svg>