<?xml version="1.0" encoding="utf-8"?>
<svg viewBox="0 0 500 500" xmlns="http://www.w3.org/2000/svg">
  <rect x="-442.774" y="442.795" width="127.587" height="16.561" fill="#fff" style="" transform="matrix(-1, 0, 0, 1, 0, 0)"/>
  <path d="M 206.226 469.096 C 205.844 506.047 206.962 495.346 203.95 508.07 C 195.887 542.279 162.373 548.515 156.546 549.289 C 153.915 556.103 145.905 559.319 139.104 556.291 L 127.937 550.646 C 117.086 545.816 123.663 538.837 119.927 527.823 L 115.994 516.138 L 83.782 429.44 L 90.306 396.456 L 90.306 396.437 L 94.699 374.218 L 107.721 359.766 L 107.484 362.072 L 107.195 361.631 L 107.181 361.622 L 106.432 360.527 C 107.484 359.966 108.51 359.414 109.536 358.862 C 112.18 357.444 114.758 356.055 117.283 354.694 C 117.888 354.361 118.48 354.041 119.072 353.708 L 119.085 353.708 C 119.467 353.506 119.848 353.303 120.216 353.102 C 129.647 347.968 94.738 338.62 102.486 334.231 C 103.564 333.624 104.63 333.017 105.682 332.418 C 141.406 312.075 169.909 286.737 179.117 279.376 C 183.234 284.235 187.232 289.195 191.113 294.254 C 194.625 298.827 198.031 303.479 201.32 308.212 C 201.911 311.91 202.293 315.609 202.674 319.234 C 203.122 323.594 200.754 363.995 201.556 368.44 C 201.911 370.407 200.57 372.278 199.268 374.079 C 198.071 375.763 196.926 377.345 197.163 378.837 C 197.413 380.372 199.149 382.047 200.833 383.677 C 202.687 385.462 204.595 387.302 204.871 389.243 C 205.621 394.651 202.517 400.081 203.108 405.528 C 204.069 414.388 204.805 423.275 205.318 432.192 C 206.055 444.502 206.344 456.805 206.226 469.096 Z" fill="#ff0003" style="" transform="matrix(-1, 0, 0, -1, 290.033539, 836.809326)"/>
  
  <rect x="175.233" y="-593.892" width="112.074" height="20.29" fill="#fff" style="" transform="matrix(-0.997301, -0.073421, -1.505853, 0.891845, -517.957947, 1031.67334)"/>
  <rect x="175.233" y="-593.891" width="112.074" height="20.29" style="fill: rgb(253, 231, 231);" transform="matrix(-0.998298, 0.058325, 1.202142, 0.931471, 1131.780518, 1022.932556)"/>
</svg>