<?xml version="1.0" encoding="utf-8"?>
<svg viewBox="0 0 500 500" xmlns="http://www.w3.org/2000/svg">
  <rect x="-442.774" y="442.795" width="127.587" height="16.561" fill="#fff" style="" transform="matrix(-1, 0, 0, 1, 0, 0)"/>
  <path d="M 279.911 417.536 C 289.565 411.047 302.903 414.639 307.782 425.041 L 374.483 418.965 L 358.107 448.88 L 297.26 450.063 C 283.62 455.082 269.506 443.831 271.861 429.81 C 272.703 424.817 275.609 420.382 279.911 417.536 Z" fill="#ffb6b6" style="" transform="matrix(-1, 0, 0, -1, 646.084869, 865.563934)"/>
  <path d="M 127.543 329.37 L 219.852 319.293 L 220.181 319.689 C 220.786 320.447 281.199 395.731 291.341 413.65 C 297.588 424.418 299.864 436.94 297.786 449.138 L 297.72 449.437 L 297.483 449.636 C 287.342 457.907 272.663 458.22 262.167 450.39 C 237.649 431.906 217.879 408.132 204.437 380.939 L 196.795 365.462 L 127.543 358.812 L 127.543 329.37 Z" fill="#ff0003" style="" transform="matrix(-1, 0, 0, -1, 426.078125, 775.350494)"/>
  <path d="M 419.572 685.137 L 401.776 644.82 C 399.237 644.645 396.686 644.505 394.121 644.398 C 392.095 644.296 390.083 644.223 388.044 644.167 L 387.36 643.956 L 386.808 644.13 C 384.072 644.048 381.323 643.996 378.574 643.973 C 377.416 643.963 376.259 643.956 375.075 643.956 C 374.536 643.956 373.983 643.956 373.444 643.963 L 374.614 647.903 L 376.009 652.568 L 381.533 671.043 L 389.491 697.714 L 401.342 692.765 L 419.572 685.137 Z" fill="#ffb6b6" style="" transform="matrix(-1, 0, 0, -1, 793.015991, 1341.669983)"/>
  <path d="M 282.554 655.116 C 273.413 650.818 264.087 646.865 254.577 643.255 L 245.278 658.482 L 275.254 671.299 L 282.554 655.116 Z" fill="#ffb6b6" style="" transform="matrix(-1, 0, 0, -1, 527.831985, 1314.554016)"/>
  <path d="M 198.952 633.807 L 198.952 601.732 C 193.414 597.759 187.785 593.925 182.037 590.232 L 182.037 633.807 L 198.952 633.807 Z" fill="#cacaca" style="" transform="matrix(-1, 0, 0, -1, 380.988998, 1224.039001)"/>
  <path d="M 264.482 617.126 C 259.733 611.992 254.84 606.991 249.802 602.121 C 237.951 590.626 225.351 579.871 212.105 569.917 L 136.697 569.917 C 132.646 569.917 128.792 571.617 126.122 574.583 L 126.109 574.61 C 124.544 576.339 123.439 578.428 122.939 580.682 L 122.926 580.701 C 122.715 581.668 122.61 582.655 122.61 583.646 L 122.61 603.4 C 122.61 610.975 128.924 617.117 136.697 617.126 L 264.482 617.126 Z" fill="#3f3d56" style="" transform="matrix(-1, 0, 0, -1, 387.091995, 1187.042969)"/>
  <path d="M 419.033 649.961 L 410.865 615.863 C 411.667 610.924 411.93 605.916 411.667 600.922 C 407.787 595.863 403.788 590.903 399.671 586.044 C 395.87 581.565 391.963 577.169 387.965 572.859 C 383.216 567.725 378.323 562.723 373.286 557.854 C 360.172 553.842 344.703 552.203 328.538 552.094 C 322.974 552.048 317.318 552.194 311.623 552.488 C 288.592 553.668 265.297 557.265 246.225 561 C 241.174 561.976 236.439 562.97 232.072 563.934 C 223.798 565.748 216.88 567.439 211.868 568.729 C 206.226 570.163 203.016 571.093 203.016 571.093 L 181.563 536.103 L 162.07 504.341 L 136.96 473.141 C 134.553 472.931 132.159 472.753 129.752 472.608 C 127.201 472.434 124.636 472.292 122.084 472.185 C 120.072 472.085 118.046 472.011 116.02 471.955 L 115.323 471.743 L 114.758 471.919 L 105.656 474.742 L 102.578 475.691 L 91.542 479.114 C 91.542 479.114 94.002 486.677 98.316 499.291 C 99.908 503.919 111.154 538.136 122.913 568.01 C 126.411 576.88 130.015 585.878 133.725 594.831 C 136.763 602.183 139.867 609.506 143.011 616.729 C 148.456 629.251 174.816 636.005 205.844 639.547 C 207.423 639.72 209.001 639.896 210.606 640.061 C 226.416 641.68 243.186 642.518 258.865 642.904 C 266.731 643.098 274.307 643.17 281.344 643.18 C 283.633 643.18 285.842 643.174 288 643.163 C 293.813 643.135 299.167 643.053 303.863 642.96 C 304.783 642.942 305.678 642.914 306.546 642.895 L 306.559 642.895 C 307.138 642.888 307.716 642.869 308.282 642.859 C 318.568 642.602 324.881 642.288 324.881 642.288 L 327.341 660.984 L 327.841 664.757 L 328.314 668.345 L 328.314 668.354 L 328.367 668.806 L 328.749 668.815 L 335.562 668.942 L 392.752 670.029 L 417.112 671.033 L 419.033 649.961 Z" fill="#2f2e41" style="" transform="matrix(-1, 0, 0, -1, 510.574997, 1142.776031)"/>
  <path d="M 350.057 566.284 C 347.729 565.125 345.375 563.984 343.02 562.88 C 333.879 558.583 324.553 554.629 315.043 551.021 C 312.32 549.98 309.611 548.978 306.862 548.011 C 306.559 548.426 306.243 548.839 305.941 549.254 C 292.814 566.781 284.646 577.951 267.783 603.685 C 260.733 614.45 253.63 625.674 246.738 637.139 L 296.615 659.81 L 302.205 662.347 L 318.292 631.517 L 332.642 604.016 L 335.838 597.897 L 350.057 566.284 Z" fill="#2f2e41" style="" transform="matrix(-1, 0, 0, -1, 596.795013, 1210.357971)"/>
  <circle cx="300.962" cy="197.705" r="49.541" fill="#ffb6b6" style="" transform="matrix(-0.927518, 0, 0, 0.903046, 444.984741, 49.413177)"/>
  <path d="M 206.226 469.096 C 205.844 506.047 206.962 495.346 203.95 508.07 C 195.887 542.279 162.373 548.515 156.546 549.289 C 153.915 556.103 145.905 559.319 139.104 556.291 L 127.937 550.646 C 117.086 545.816 123.663 538.837 119.927 527.823 L 115.994 516.138 L 83.782 429.44 L 90.306 396.456 L 90.306 396.437 L 94.699 374.218 L 107.721 359.766 L 107.484 362.072 L 107.195 361.631 L 107.181 361.622 L 106.432 360.527 C 107.484 359.966 108.51 359.414 109.536 358.862 C 112.18 357.444 114.758 356.055 117.283 354.694 C 117.888 354.361 118.48 354.041 119.072 353.708 L 119.085 353.708 C 119.467 353.506 119.848 353.303 120.216 353.102 C 129.647 347.968 94.738 338.62 102.486 334.231 C 103.564 333.624 104.63 333.017 105.682 332.418 C 141.406 312.075 169.909 286.737 179.117 279.376 C 183.234 284.235 187.232 289.195 191.113 294.254 C 194.625 298.827 198.031 303.479 201.32 308.212 C 201.911 311.91 202.293 315.609 202.674 319.234 C 203.122 323.594 200.754 363.995 201.556 368.44 C 201.911 370.407 200.57 372.278 199.268 374.079 C 198.071 375.763 196.926 377.345 197.163 378.837 C 197.413 380.372 199.149 382.047 200.833 383.677 C 202.687 385.462 204.595 387.302 204.871 389.243 C 205.621 394.651 202.517 400.081 203.108 405.528 C 204.069 414.388 204.805 423.275 205.318 432.192 C 206.055 444.502 206.344 456.805 206.226 469.096 Z" fill="#ff0003" style="" transform="matrix(-1, 0, 0, -1, 290.033524, 836.809296)"/>
  <path d="M 255.432 471.295 C 263.521 479.586 277.319 478.752 284.291 469.553 L 348.281 488.903 L 338.6 456.34 L 279.319 442.957 C 267.02 435.302 250.815 443.475 250.171 457.668 C 249.934 462.721 251.828 467.647 255.432 471.295 Z" fill="#ffb6b6" style="" transform="matrix(-1, 0, 0, -1, 598.432175, 928.926208)"/>
  <path d="M 137.013 310.656 L 255.8 334.496 L 224.969 327.063 C 225.324 327.963 259.957 417.342 264.166 437.392 C 266.849 449.481 265.179 462.095 259.47 473.14 L 259.312 473.405 L 259.023 473.523 C 246.817 478.48 232.703 474.526 225.088 464.007 C 207.331 439.256 195.743 410.83 191.205 380.971 L 188.653 363.983 L 146.786 351.786 L 137.013 310.656 Z" fill="#ff0003" style="" transform="matrix(-1, 0, 0, -1, 402.428589, 786.300598)"/>
  <path d="M 312.07 406.192 L 365.775 451.914 C 368.327 454.089 363.46 447.611 365.696 445.124 C 367.932 442.637 376.416 445.084 373.864 442.911 L 320.159 397.188 L 306.559 394.164 L 312.07 406.192 Z" fill="#3f3d56" style="" transform="matrix(-1, 0, 0, -1, 680.89679, 846.517395)"/>
  <path d="M 365.262 451.245 L 366.565 452.353 C 368.314 451.505 369.853 450.334 371.129 448.906 C 372.641 447.229 373.733 445.237 374.338 443.083 L 373.352 442.241 L 362.513 439.831 L 359.738 439.217 L 360.896 441.737 L 365.262 451.245 Z" fill="#ccc" style="" transform="matrix(-1, 0, 0, -1, 734.076019, 891.570007)"/>
  <path d="M 372.72 452.353 C 373.549 452.002 374.141 451.296 374.338 450.448 L 371.576 449.833 L 372.72 452.353 Z" fill="#3f3d56" style="" transform="matrix(-1, 0, 0, -1, 745.914001, 902.186005)"/>
  <path d="M 215.196 181.657 C 210.145 174.278 202.03 169.17 193.296 166.641 C 189.745 165.613 186.088 165.007 182.392 164.838 C 181.932 168.907 180.84 172.886 179.143 176.633 C 179.314 172.644 178.749 168.658 177.459 164.865 C 171.922 165.172 166.49 166.587 161.518 169.024 C 151.837 173.855 144.379 183.091 142.735 193.571 C 140.788 205.809 146.483 217.824 148.535 230.044 C 150.6 242.261 146.72 257.738 134.435 260.948 C 125.083 263.396 126.135 262.337 118.362 256.716 C 126.451 245.071 96.567 202.392 84.334 206.113 C 77.429 208.216 72.996 214.392 71.575 214.392 C 61.96 198.274 80.046 171.113 61.816 165.472 L 63.315 166.935 C 74.325 180.12 51.319 208.026 62.329 221.21 C 65.393 224.9 68.669 229.27 67.761 233.936 C 66.906 238.37 59.672 240.716 57.554 237.072 C 61.369 245.565 55.739 256.901 46.44 259.08 C 38.153 261.023 38.311 258.63 30.024 257.591 C 29.472 261.082 28.459 264.486 26.999 267.722 C 27.157 264.238 26.736 260.753 25.763 257.398 C 22.829 257.452 20.001 258.449 17.713 260.231 C 10.939 265.54 12.32 276.691 18.357 282.772 C 24.408 288.855 33.391 291.043 41.954 292.461 C 44.453 309.355 92.318 311.116 98.671 294.237 C 101.368 306.841 117.586 313.383 130.173 309.473 C 142.774 305.562 151.521 294.107 156.112 282.036 C 160.715 269.974 162.004 256.992 164.832 244.424 C 167.673 231.855 172.461 219.057 182.339 210.491 C 192.204 201.936 208.278 199.102 218.669 207.051 C 221.944 198.771 220.26 189.044 215.196 181.657 Z" fill="#2f2e41" style="" transform="matrix(-1, 0, 0, -1, 233.55409, 475.438583)"/>
  <rect x="175.233" y="-593.892" width="112.074" height="20.29" fill="#fff" style="" transform="matrix(-0.997301, -0.073421, -1.505853, 0.891845, -517.957956, 1031.673309)"/>
  <rect x="175.233" y="-593.891" width="112.074" height="20.29" style="fill: rgb(253, 231, 231);" transform="matrix(-0.998298, 0.058325, 1.202142, 0.931471, 1131.780536, 1022.932577)"/>
</svg>