<?xml version="1.0" encoding="utf-8"?>
<svg viewBox="0 0 500 500" xmlns="http://www.w3.org/2000/svg">

  <circle cx="300.962" cy="197.705" r="49.541" fill="#ffb6b6" style="" transform="matrix(-0.927518, 0, 0, 0.903046, 444.984741, 49.413177)"/>
  <path d="M 215.196 181.657 C 210.145 174.278 202.03 169.17 193.296 166.641 C 189.745 165.613 186.088 165.007 182.392 164.838 C 181.932 168.907 180.84 172.886 179.143 176.633 C 179.314 172.644 178.749 168.658 177.459 164.865 C 171.922 165.172 166.49 166.587 161.518 169.024 C 151.837 173.855 144.379 183.091 142.735 193.571 C 140.788 205.809 146.483 217.824 148.535 230.044 C 150.6 242.261 146.72 257.738 134.435 260.948 C 125.083 263.396 126.135 262.337 118.362 256.716 C 126.451 245.071 96.567 202.392 84.334 206.113 C 77.429 208.216 72.996 214.392 71.575 214.392 C 61.96 198.274 80.046 171.113 61.816 165.472 L 63.315 166.935 C 74.325 180.12 51.319 208.026 62.329 221.21 C 65.393 224.9 68.669 229.27 67.761 233.936 C 66.906 238.37 59.672 240.716 57.554 237.072 C 61.369 245.565 55.739 256.901 46.44 259.08 C 38.153 261.023 38.311 258.63 30.024 257.591 C 29.472 261.082 28.459 264.486 26.999 267.722 C 27.157 264.238 26.736 260.753 25.763 257.398 C 22.829 257.452 20.001 258.449 17.713 260.231 C 10.939 265.54 12.32 276.691 18.357 282.772 C 24.408 288.855 33.391 291.043 41.954 292.461 C 44.453 309.355 92.318 311.116 98.671 294.237 C 101.368 306.841 117.586 313.383 130.173 309.473 C 142.774 305.562 151.521 294.107 156.112 282.036 C 160.715 269.974 162.004 256.992 164.832 244.424 C 167.673 231.855 172.461 219.057 182.339 210.491 C 192.204 201.936 208.278 199.102 218.669 207.051 C 221.944 198.771 220.26 189.044 215.196 181.657 Z" fill="#2f2e41" style="" transform="matrix(-1, 0, 0, -1, 233.554092, 475.438568)"/>
  
</svg>