<?xml version="1.0" encoding="utf-8"?>
<svg viewBox="187.652 171.319 72.791 67.699" xmlns="http://www.w3.org/2000/svg">
  <path d="M 194.959 186.579 L 248.664 232.301 C 251.216 234.476 246.349 227.998 248.585 225.511 C 250.821 223.024 259.305 225.471 256.753 223.298 L 203.048 177.575 L 189.448 174.551 L 194.959 186.579 Z" fill="#3f3d56" style="" transform="matrix(-1, 0, 0, -1, 446.674774, 407.291397)"/>
  <path d="M 248.151 231.632 L 249.454 232.74 C 251.203 231.892 252.742 230.721 254.018 229.293 C 255.53 227.616 256.622 225.624 257.227 223.47 L 256.241 222.628 L 245.402 220.218 L 242.627 219.604 L 243.785 222.124 L 248.151 231.632 Z" fill="#ccc" style="" transform="matrix(-1, 0, 0, -1, 499.853989, 452.344009)"/>
  <path d="M 255.609 232.74 C 256.438 232.389 257.03 231.683 257.227 230.835 L 254.465 230.22 L 255.609 232.74 Z" fill="#3f3d56" style="" transform="matrix(-1, 0, 0, -1, 511.691986, 462.960007)"/>
</svg>