<svg xmlns="http://www.w3.org/2000/svg" 
data-name="Layer 1" width= "220.27339" height="302.0024" 
viewBox="570 50 100.27339 642.0024" xmlns:xlink="http://www.w3.org/1999/xlink">

<rect x="394.71108" y="564.93783" width="135" height="18" fill="#fff"/>

<path d="M651.12082,599.6243a19.952,19.952,0,0,0,29.48674-8.15653l70.59455,6.603-17.33122-32.51408L669.49015,564.271a20.06011,20.06011,0,0,0-18.36928,35.35313Z" transform="translate(-175.36331 -28.9988)" fill="#ffb6b6"/>
<path d="M722.70333,597.39882l97.69042,10.952.33663-.43078c.64425-.82344,64.56564-82.64615,75.30539-102.12391a58.89048,58.89048,0,0,0,6.81965-38.57106l-.07326-.32417-.25427-.215a29.885,29.885,0,0,0-37.36866-.8194,211.683,211.683,0,0,0-61.088,75.48336l-8.07961,16.821-73.28832,7.22795Z" transform="translate(-175.36331 -28.9988)" fill="#ff0003"/>
<path d="M643.44574,826.24119l-18.82,43.82q-4.05.285-8.11.46c-2.14.11-4.27.19-6.42005.25l-.73.23-.6-.19q-4.335.13494-8.7.17c-1.23.01-2.46.02-3.7.02-.58,0-1.16,0-1.74-.01l1.25-4.28,1.47-5.06995,5.84-20.08,8.43-28.99,12.54,5.38Z" transform="translate(-175.36331 -28.9988)" fill="#ffb6b6"/><path d="M779.05572,829.40116q-14.505,7.00507-29.6,12.89l-9.84-16.55,31.72-13.93Z" transform="translate(-175.36331 -28.9988)" fill="#ffb6b6"/>
<path d="M845.98572,754.18119v34.86q-8.775,6.48-17.9,12.5v-47.36Z" transform="translate(-175.36331 -28.9988)" fill="#cacaca"/>
<path d="M908.86572,732.10118q-7.545,8.37-15.54,16.31a421.16821,421.16821,0,0,1-39.88,35h-79.8a14.87932,14.87932,0,0,1-11.19-5.07l-.01-.03a14.72686,14.72686,0,0,1-3.36005-6.6l-.01-.02a15.30172,15.30172,0,0,1-.34-3.2v-21.47a14.92992,14.92992,0,0,1,14.91-14.92Z" transform="translate(-175.36331 -28.9988)" fill="#3f3d56"/>
<path d="M941.74573,648.30119l-8.65,37.06a77.90193,77.90193,0,0,1,.84,16.24q-6.15006,8.25-12.69,16.17-6.03,7.30507-12.38,14.33-7.545,8.37-15.54,16.31c-13.88,4.36-30.24,6.14-47.34,6.26-5.9.05-11.89-.11-17.9-.43-24.37-1.28-49.02-5.19-69.21-9.25-5.34-1.06-10.36-2.14-14.98-3.19-8.75-1.97-16.07-3.81-21.37006-5.21-5.97-1.56-9.37-2.57-9.37-2.57l-22.71,38.03-20.62,34.52-26.57,33.91q-3.81006.345-7.63.58-4.05.285-8.11.46c-2.14.11-4.27.19-6.42005.25l-.73.23-.6-.19-9.64-3.07-3.25-1.03-11.69-3.72s2.61-8.22,7.18-21.93c1.68-5.03,13.58-42.22,26.03-74.69,3.68994-9.64,7.51-19.42,11.43994-29.15,3.22-7.99,6.5-15.95,9.82-23.8,5.77-13.61,33.65-20.95,66.48-24.8,1.67-.19,3.35-.38,5.04-.56,16.73-1.76,34.48-2.67,51.08-3.09,8.31-.21,16.33-.29,23.79-.3q3.61506,0,7.03.02h.01c6.15.03,11.81006.12,16.79.22.97.02,1.91.05,2.83.07h.01c.62.01,1.23.03,1.83.04,10.89.28,17.57.62,17.57.62l2.59-20.32.53-4.1.5-3.9v-.01l.06-.49.41-.01,7.2-.14,60.52-1.18,25.77761-1.09237Z" transform="translate(-175.36331 -28.9988)" fill="#2f2e41"/>
<path d="M777.51575,812.70121c-2.47,1.26-4.96,2.5-7.46,3.7q-14.505,7.00507-29.6,12.89c-2.87006,1.13-5.75,2.22-8.66,3.27-.32-.45-.65-.9-.98-1.35-13.88-19.05-22.52-31.19-40.37-59.16-7.47-11.7-14.98-23.9-22.27-36.36l52.78-24.64,5.92-2.76,17.02,33.51,15.18,29.89,3.38,6.65Z" transform="translate(-175.36331 -28.9988)" fill="#2f2e41"/>
<circle cx="687.76443" cy="331.42827" r="48.62546" fill="#ffb6b6"/>
<path d="M949.92572,511.57121c-.4-40.16.78-28.53-2.4-42.36-8.54-37.18-43.99-43.96-50.17-44.8a13.64475,13.64475,0,0,0-18.45-7.61l-11.83132,6.13544c-11.47,5.25-4.50865,12.83453-8.46867,24.80456l-4.16,12.7-34.09,94.23,6.9,35.85.01.02,4.65,24.15,13.78762,15.70762-.25759-2.50761-.31.48-.01.01-.8,1.19c1.11.61,2.21,1.21,3.29,1.81q4.2,2.31,8.19,4.53c.64.36,1.27.71,1.9,1.07h.01c.4.22.80005.44,1.19.66,9.98,5.58-26.96,15.74-18.75,20.51,1.14.66,2.27,1.32,3.38,1.97,37.8,22.11,67.96,49.65,77.71,57.65q6.54-7.92,12.69-16.17,5.58-7.455,10.81-15.17c.61-4.02,1.02-8.04,1.42-11.98.48-4.74-2.02-48.65-1.18-53.48.37-2.14-1.05-4.17-2.42-6.13-1.27-1.83-2.47-3.55-2.22-5.17.26-1.67,2.1-3.49,3.89-5.26,1.95-1.94,3.97-3.94,4.26-6.05.8-5.88-2.49-11.78-1.87-17.7q1.53-14.445,2.35-28.98Q950.13074,531.61119,949.92572,511.57121Z" transform="translate(-175.36331 -28.9988)" fill="#ff0003"/>
<path d="M675.66113,610.0611a19.952,19.952,0,0,1,30.53533,1.89492l67.71168-21.03135-10.24723,35.39111-62.72916,14.546a20.06012,20.06012,0,0,1-25.27055-30.80056Z" transform="translate(-175.36331 -28.9988)" fill="#ffb6b6"/>
<path d="M757.75092,629.64l125.68249-25.91161-32.61794,8.07909c.36985-.97793,37.02907-98.12215,41.48215-119.91425a58.89049,58.89049,0,0,0-4.97429-38.85217l-.16646-.28765-.30674-.12951a29.885,29.885,0,0,0-35.91772,10.34437,211.68306,211.68306,0,0,0-35.84187,90.24876l-2.70466,18.46373-44.3115,13.25584Z" transform="translate(-175.36331 -28.9988)" fill="#ff0003"/>
<path d="M648.32293,591.25093l56.83985-49.69388c2.70269-2.3629-2.45138,4.67679-.0884,7.37958s11.34765.04451,8.645,2.40741l-56.83985,49.69388-14.39438,3.28664Z" transform="translate(-175.36331 -28.9988)" fill="#3f3d56"/>
<path d="M648.32293,591.25093l1.37767-1.20447a15.76262,15.76262,0,0,1,4.83,3.74695,15.92864,15.92864,0,0,1,3.39531,6.32961l-1.04646.9149-11.47226,2.618-2.92212.66866,1.21839-2.73887Z" transform="translate(-175.36331 -28.9988)" fill="#ccc"/>
<path d="M643.7035,601.58569a2.97777,2.97777,0,0,1,1.70373,2.07021l-2.92212.66866Z" transform="translate(-175.36331 -28.9988)" fill="#3f3d56"/>
<path d="M1019.18331,431.97878c-5.36,8.02-13.94,13.57-23.18,16.32a48.48669,48.48669,0,0,1-11.54,1.96,43.63174,43.63174,0,0,0-3.43-12.82,36.02165,36.02165,0,0,1-1.78,12.79,42.8682,42.8682,0,0,1-16.87-4.52c-10.25-5.25-18.14-15.29-19.89-26.68-2.06-13.30005,3.97-26.36,6.15-39.64,2.19-13.28-1.92-30.1-14.92-33.59-9.9-2.66-8.79-1.51-17.02,4.6,8.56092,12.65821-23.05963,59.045-36,55-7.31622-2.28695-12-9-13.51-9-10.17,17.52,8.98,47.04-10.32,53.17l1.59-1.59c11.65-14.33-12.7-44.66-1.05-58.99,3.25-4.01,6.71-8.76,5.75-13.83-.91-4.82-8.56-7.37-10.8-3.41,4.03-9.23-1.92-21.55-11.77-23.92-8.75-2.11-8.59.49-17.37,1.62a43.57308,43.57308,0,0,0-3.19-11.01,35.72529,35.72529,0,0,1-1.31,11.22,14.08849,14.08849,0,0,1-8.52-3.08c-7.16-5.77-5.71-17.89.68-24.5,6.4-6.61,15.91-8.99,24.98-10.53,2.63665-18.36081,53.29522-20.27612,60.01-1.93,2.86-13.7,20.01-20.81,33.34-16.56s22.58,16.7,27.45,29.82c4.87,13.11,6.23,27.22,9.23,40.88s8.07,27.57,18.51,36.88c10.44,9.3,27.45,12.38,38.45,3.74C1026.32333,413.37881,1024.53341,423.94881,1019.18331,431.97878Z" transform="translate(-175.36331 -28.9988)" fill="#2f2e41"/>
</svg>