<?xml version="1.0" encoding="utf-8"?>
<svg viewBox="159.14 188.073 355.327 182.525" xmlns="http://www.w3.org/2000/svg">
  <path d="M 372.549 195.286 L 460.505 211.693 C 460.86 212.593 495.493 301.972 499.702 322.022 C 502.385 334.111 500.715 346.725 495.006 357.77 L 494.848 358.035 L 494.559 358.153 C 482.353 363.11 468.239 359.156 460.624 348.637 C 442.867 323.886 431.279 295.46 426.741 265.601 L 424.189 248.613 L 382.322 236.416 L 372.549 195.286 Z" fill="#ff0003" style="" transform="matrix(-1, 0, 0, -1, 873.50061, 555.560562)"/>
  <path d="M 372.72 452.353 C 373.549 452.002 374.141 451.296 374.338 450.448 L 371.576 449.833 L 372.72 452.353 Z" fill="#3f3d56" style="" transform="matrix(-1, 0, 0, -1, 967.786215, 720.910019)"/>
</svg>