<?xml version="1.0" encoding="utf-8"?>
<svg viewBox="0 0 500 500" xmlns="http://www.w3.org/2000/svg">
  <path d="M 438.757 444.764 L 438.729 444.5 C 437.814 435.521 440.895 426.595 447.153 420.093 C 448.902 418.305 450.869 416.744 453.007 415.447 L 453.211 415.323 L 453.278 415.552 C 454.078 418.286 455.142 421.045 455.63 422.267 L 456.707 413.51 L 456.939 413.409 C 459.118 412.451 461.66 412.916 463.359 414.582 C 465.122 416.24 465.699 418.804 464.816 421.058 C 464.431 422.067 464.061 423.115 463.702 424.13 C 462.471 427.614 461.198 431.218 459.045 434.168 C 455.7 438.658 450.507 441.398 444.913 441.626 L 438.757 444.764 Z" fill="#f2f2f2" style=""/>
  <path d="M 217.486 441.626 C 211.892 441.398 206.699 438.658 203.354 434.168 C 201.201 431.218 199.928 427.614 198.696 424.13 C 198.338 423.115 197.967 422.067 197.583 421.058 C 196.7 418.804 197.277 416.24 199.04 414.582 C 200.739 412.916 203.281 412.451 205.46 413.409 L 205.692 413.51 L 206.769 422.267 C 207.257 421.045 208.321 418.286 209.121 415.552 L 209.188 415.323 L 209.392 415.447 C 211.53 416.744 213.497 418.305 215.246 420.093 C 221.504 426.595 224.584 435.521 223.67 444.5 L 223.641 444.764 L 217.486 441.626 Z" fill="#f2f2f2" style=""/>
  <polygon points="88.443 434.898 95.959 434.898 99.534 405.907 88.441 405.907 88.443 434.898" fill="#9e616a" style=""/>
  <path d="M 88.178 442.739 L 111.291 442.738 L 111.291 442.446 C 111.291 437.477 107.263 433.45 102.295 433.45 L 102.294 433.45 L 98.072 430.247 L 90.195 433.45 L 88.178 433.45 L 88.178 442.739 Z" fill="#2f2e41" style=""/>
  <polygon points="109.035 430.645 116.366 432.302 126.244 404.812 115.424 402.367 109.035 430.645" fill="#9e616a" style=""/>
  <path d="M 107.048 438.235 L 129.593 443.329 L 129.657 443.044 C 130.752 438.197 127.711 433.381 122.865 432.286 L 122.865 432.286 L 119.453 428.231 L 111.063 429.619 L 109.095 429.175 L 107.048 438.235 Z" fill="#2f2e41" style=""/>
  <path d="M 142.891 355.894 C 138.428 370.114 127.011 407.857 127.011 407.857 C 127.011 407.857 117.294 410.282 114.229 407.857 C 111.163 405.431 114.981 397.33 114.981 397.33 C 112.96 388.254 117.507 379.081 117.802 370.283 C 117.189 366.59 120.439 363.42 120.737 359.898 C 118.588 358.263 108.136 332.606 106.005 325.437 C 107.1 347.282 104.454 380.036 101.446 401.09 C 100.023 411.055 98.038 408.143 87.912 408.609 C 83.397 407.268 84.152 397.33 84.152 397.33 L 84.152 389.059 C 81.957 379.797 81.928 377.796 82.648 373.269 C 82.318 368.463 78.182 318.775 74.511 301.958 C 72.065 288.561 102.045 285.612 110.667 282.418 C 125.054 275.486 122.626 285.341 130.202 294.419 C 137.508 310.067 141.811 338.01 142.891 355.894 Z" fill="#2f2e41" style=""/>
  <polygon points="114.028 210.624 106.754 200.226 93.972 200.226 82.693 210.753 81.745 304.281 132.784 310.003 114.028 210.624" style="fill: rgb(159, 0, 5);"/>
  <path d="M 108.971 202.67 L 129.223 211.938 L 133.071 271.658 C 133.071 271.658 136.318 279.329 136.577 280.084 C 136.848 280.877 137.389 284.788 137.155 285.439 C 136.437 287.537 136.073 289.741 136.078 291.96 C 136.254 293.662 138.072 296.7 138.547 298.344 C 138.875 299.478 136.83 303.238 136.83 303.238 C 138.529 305.795 139.006 308.973 138.132 311.916 L 137.582 313.765 L 127.056 312.261 L 122.517 289.947 L 122.038 287.591 L 121.542 285.154 L 121.155 283.25 L 120.811 281.557 L 120.521 280.136 L 108.971 202.67 Z" fill="#3f3d56" style=""/>
  <path d="M 90.964 203.234 L 79.597 213.442 C 79.597 213.442 76.937 256.66 75.174 273.162 C 75.099 273.864 76.077 275.539 76.002 276.241 L 75.562 280.362 L 75.231 283.462 C 75.111 284.577 73.67 295.719 73.67 295.719 L 71.415 297.223 C 70.455 301.526 70.992 306.028 72.935 309.985 L 74.422 313.013 L 90.876 311.191 L 90.964 203.234 Z" fill="#3f3d56" style=""/>
  <path d="M 349.577 271.761 C 349.249 270.508 348.084 266.683 346.604 268.373 C 346.384 268.623 346.21 267.817 346.006 267.52 C 345.653 267.008 345.439 264.819 345.065 264.242 C 344.305 263.068 343.361 263.415 342.588 262.053 C 340.378 258.159 338.315 253.713 337.546 249.955 C 335.193 238.452 338.434 222.723 338.434 222.723 L 337.386 200.317 L 329.729 200.059 L 329.729 199.556 C 329.729 197.45 328.022 195.743 325.916 195.743 L 311.334 195.743 C 309.323 195.744 307.659 197.307 307.533 199.313 L 301.529 199.111 L 291.13 232.149 C 291.13 232.149 295.983 244.619 297.695 256.723 C 298.16 259.987 298.272 263.291 298.03 266.58 C 297.798 269.913 297.145 273.204 296.087 276.374 C 296.087 276.374 340.199 285.612 348.825 277.024 C 348.825 277.024 350.166 274.011 349.577 271.761 Z" fill="#3f3d56" style=""/>
  <path d="M 406.06 274.169 L 395.638 274.169 L 395.638 106.418 C 394.916 105.884 394.187 105.358 393.45 104.839 C 393.3 104.741 393.157 104.636 393.014 104.538 C 388.575 101.433 383.941 98.615 379.141 96.102 C 376.994 93.225 374.642 90.506 372.103 87.966 C 340.31 56.178 287.708 60.022 260.873 96.094 C 257.625 97.794 254.462 99.628 251.384 101.598 C 251.091 101.786 250.798 101.974 250.512 102.162 C 250.504 102.17 250.497 102.17 250.489 102.177 C 249.406 102.886 248.755 104.094 248.76 105.388 L 248.76 274.169 L 233.947 274.169 C 227.406 274.169 221.759 279.516 221.789 286.057 C 221.794 287.549 222.082 289.026 222.638 290.411 C 222.852 290.955 223.111 291.481 223.413 291.982 C 223.797 292.64 224.243 293.259 224.744 293.832 C 226.986 296.39 230.223 297.856 233.624 297.855 L 406.383 297.855 C 412.901 297.846 418.189 292.575 418.218 286.057 C 418.248 279.516 412.601 274.169 406.06 274.169 Z M 352.306 274.169 L 291.649 274.169 L 283.288 158.638 L 360.667 158.638 L 352.306 274.169 Z" style="fill: rgb(115, 46, 46);"/>
  <path d="M 272.108 284.018 C 276.851 284.005 279.802 278.862 277.42 274.761 C 277.188 274.362 276.912 273.99 276.597 273.653 L 285.032 251.381 L 286.759 243.936 C 282.661 241.362 277.235 243.314 275.715 247.908 L 266.928 274.466 C 264.322 278.433 266.988 283.734 271.727 284.008 C 271.854 284.015 271.981 284.018 272.108 284.018 L 272.108 284.018 Z" fill="#ffb6b6" style=""/>
  <path d="M 313.303 95.283 C 312.488 95.283 311.847 95.979 311.913 96.791 L 313.481 115.861 C 313.544 116.582 314.146 117.137 314.87 117.14 L 323.862 117.14 C 324.585 117.137 325.187 116.582 325.251 115.861 L 326.818 96.791 C 326.885 95.979 326.244 95.283 325.429 95.283 L 313.303 95.283 Z" fill="#fff" style=""/>
  <path d="M 327.538 97.825 L 326.867 94.639 C 326.741 94.041 326.214 93.614 325.604 93.614 L 321.416 93.614 C 321.4 93.558 321.373 93.506 321.338 93.46 L 320.872 92.879 C 320.783 92.768 320.649 92.703 320.507 92.703 L 317.921 92.703 C 317.779 92.703 317.644 92.768 317.556 92.879 L 317.09 93.46 C 317.055 93.506 317.028 93.558 317.012 93.614 L 313.127 93.614 C 312.517 93.614 311.99 94.041 311.864 94.639 L 311.194 97.825 C 311.025 98.627 311.637 99.382 312.456 99.382 L 326.275 99.382 C 327.095 99.382 327.707 98.627 327.538 97.825 Z" fill="#ccc" style=""/>
  <path d="M 319.545 128.043 C 300.444 128.043 288.505 107.365 298.056 90.823 C 307.607 74.281 331.483 74.281 341.034 90.823 C 343.211 94.595 344.358 98.874 344.358 103.23 C 344.342 116.927 333.242 128.028 319.545 128.043 Z M 319.545 79.921 C 301.601 79.921 290.387 99.345 299.358 114.885 C 308.33 130.424 330.759 130.424 339.731 114.885 C 341.777 111.341 342.854 107.322 342.854 103.23 C 342.839 90.363 332.412 79.935 319.545 79.921 Z" fill="#f2f2f2" style=""/>
  <polygon points="395.488 443.846 247.361 443.846 247.527 426.636 247.542 425.14 248.865 290.456 394.736 290.456 394.924 329.364 394.932 330.861 395.488 443.846" style="fill: rgb(115, 46, 46);"/>
  <path d="M 481.118 444.566 L 9.857 444.797 C 9.168 444.795 8.739 444.048 9.086 443.452 C 9.246 443.177 9.539 443.008 9.857 443.007 L 481.118 442.776 C 481.807 442.776 482.238 443.522 481.893 444.119 C 481.733 444.396 481.438 444.566 481.118 444.566 Z" fill="#cacaca" style=""/>
  <path d="M 240.089 243.758 C 238.874 243.758 237.917 244.796 238.016 246.008 C 240.141 256.019 241.075 265.565 240.355 274.466 C 240.45 275.542 241.348 276.37 242.428 276.375 L 255.847 276.375 C 256.927 276.37 257.825 275.542 257.92 274.466 C 256.836 265.488 257.982 255.902 260.258 246.008 C 260.358 244.796 259.401 243.758 258.186 243.758 L 240.089 243.758 Z" fill="#c90fa0" style=""/>
  <path d="M 261.333 247.551 L 260.332 242.796 C 260.144 241.905 259.358 241.267 258.447 241.267 L 252.198 241.267 C 252.173 241.184 252.133 241.106 252.08 241.038 L 251.386 240.17 C 251.253 240.004 251.053 239.908 250.84 239.908 L 246.982 239.908 C 246.769 239.908 246.569 240.004 246.436 240.17 L 245.742 241.038 C 245.689 241.106 245.649 241.184 245.624 241.267 L 239.828 241.267 C 238.917 241.267 238.131 241.905 237.943 242.796 L 236.942 247.551 C 236.69 248.748 237.603 249.874 238.827 249.874 C 245.544 251.949 252.731 251.949 259.448 249.874 C 260.672 249.874 261.585 248.748 261.333 247.551 Z" fill="#3f3d56" style=""/>
  <rect x="249.617" y="352.864" width="68.951" height="1.504" fill="#f2f2f2" style=""/>
  <rect x="325.56" y="297.223" width="68.951" height="1.504" fill="#f2f2f2" style=""/>
  <rect x="287.213" y="400.987" width="68.951" height="1.504" fill="#f2f2f2" style=""/>
  <polygon points="394.932 331.059 362.404 331.059 362.404 329.555 394.924 329.555 394.932 331.059" fill="#f2f2f2" style=""/>
  <polygon points="256.58 286.696 224.052 286.696 224.052 285.192 256.572 285.192 256.58 286.696" fill="#f2f2f2" style=""/>
  <polygon points="282.145 138.57 249.617 138.57 249.617 137.066 282.137 137.066 282.145 138.57" fill="#f2f2f2" style=""/>
  <polygon points="391.172 107.741 358.644 107.741 358.644 106.238 391.165 106.238 391.172 107.741" fill="#f2f2f2" style=""/>
  <polygon points="358.088 138.57 325.56 138.57 325.56 137.066 358.08 137.066 358.088 138.57" fill="#f2f2f2" style=""/>
  <polygon points="268.189 425.8 268.189 427.304 247.527 427.304 247.542 425.8 268.189 425.8" fill="#f2f2f2" style=""/>
  <path d="M 304.109 203.228 L 301.529 199.111 C 301.529 199.111 293.132 197.036 289.676 202.599 C 286.219 208.163 267.619 268.001 267.619 268.001 L 278.145 271.761 L 298.447 225.326 L 304.109 203.228 Z" fill="#3f3d56" style=""/>
</svg>