<?xml version="1.0" encoding="utf-8"?>
<svg viewBox="148.76 132.036 69.563 67.802" xmlns="http://www.w3.org/2000/svg">
  <path d="M 213.884 176.941 C 210.771 198.038 195.279 200.261 183.938 189.248 C 172.072 177.726 153.991 191.441 153.991 176.941 C 153.991 162.441 160.54 136.739 183.938 136.739 C 208.141 136.739 216 162.597 213.884 176.941 Z" fill="#2f2e41"/>
  <circle cx="183.837" cy="169.073" r="20.151" fill="#ffb6b6"/>
  <path d="M 160.555 167.096 L 168.525 167.096 L 172.041 157.25 L 172.744 167.096 L 176.554 167.096 L 178.605 161.353 L 179.015 167.096 C 184.827 172.349 195.588 170.427 207.32 167.096 C 207.32 155.315 197.77 145.764 185.989 145.764 L 181.886 145.764 C 170.105 145.764 160.555 155.315 160.555 167.096 Z" fill="#2f2e41"/>
</svg>