<?xml version="1.0" encoding="utf-8"?>
<svg viewBox="257.291 175 200.166 94.223" xmlns="http://www.w3.org/2000/svg">
  <polygon points="413.799 236.886 440.012 213.532 447.745 217.363 416.307 250.337 413.799 236.886" fill="#ffb6b6" style=""/>
  <path d="M 384.492 207.918 L 388.821 205.598 C 388.821 205.598 399.489 204.688 403.843 217.22 L 415.389 234.659 L 434.104 218.439 L 442.214 224.054 L 418.628 252.204 L 408.821 253.457 L 387.611 226.008 L 384.492 207.918 Z" fill="#3f3d56" style=""/>
  <path d="M 426.079 191.152 C 424.85 191.152 423.882 192.202 423.983 193.427 C 426.343 203.607 427.344 213.278 426.348 222.204 C 426.444 223.293 427.352 224.129 428.445 224.135 L 442.013 224.135 C 443.106 224.129 444.014 223.293 444.11 222.204 C 443.354 212.547 444.153 202.832 446.475 193.427 C 446.575 192.202 445.608 191.152 444.379 191.152 L 426.079 191.152 Z" fill="#c90fa0" style=""/>
  <path d="M 447.561 194.988 L 446.549 190.179 C 446.359 189.278 445.564 188.633 444.643 188.633 L 438.323 188.633 C 438.299 188.549 438.258 188.47 438.205 188.401 L 437.502 187.523 C 437.368 187.356 437.165 187.258 436.951 187.258 L 433.049 187.258 C 432.834 187.258 432.631 187.356 432.497 187.523 L 431.795 188.401 C 431.741 188.47 431.701 188.549 431.676 188.633 L 425.815 188.633 C 424.894 188.633 424.099 189.278 423.909 190.179 L 422.897 194.988 C 422.642 196.198 423.565 197.336 424.803 197.336 C 431.792 200.25 438.751 200.825 445.655 197.336 C 446.892 197.336 447.816 196.198 447.561 194.988 Z" fill="#3f3d56" style=""/>
  <circle cx="444.982" cy="216.841" r="6.238" fill="#ffb6b6" style=""/>
</svg>