<?xml version="1.0" encoding="utf-8"?>
<svg viewBox="280.038 145.547 210.75 138.897" xmlns="http://www.w3.org/2000/svg">
  <path d="M 437.622 216.99 C 437.622 216.99 433.818 186.245 425.249 176.876 L 405.081 184.687 L 421.006 225.323 L 453.23 265.971 C 453.938 272.548 461.501 275.893 466.843 271.991 C 472.186 268.089 471.301 259.867 465.251 257.191 C 465.194 257.167 465.138 257.142 465.081 257.119 L 437.622 216.99 Z" fill="#a0616a"/>
  <path d="M 396.464 154.167 L 413.464 150.167 C 421.666 159.706 428.331 178.517 433.586 195.656 C 433.96 196.876 433.667 198.561 434.687 199.286 C 436.54 200.604 437.646 202.194 436.305 204.746 C 435.793 205.721 436.92 206.844 437.219 207.866 C 437.47 208.727 437.128 210.161 437.96 210.408 C 440.339 211.116 440.453 213.149 439.522 215.727 L 419.522 225.727 L 418.952 224.807 L 416.706 221.179 L 407.04 205.569 L 396.464 154.167 Z" fill="#3f3d56"/>
  <path d="M 451.91 221.485 C 450.293 221.485 449.021 222.866 449.153 224.478 C 453.376 235.393 452.804 248.028 452.264 262.325 C 452.389 263.756 453.584 264.857 455.021 264.864 L 472.866 264.864 C 474.303 264.857 475.498 263.756 475.623 262.325 C 474.174 248.436 474.956 235.69 478.734 224.478 C 478.866 222.866 477.594 221.485 475.977 221.485 L 451.91 221.485 Z" fill="#c90fa0"/>
  <path d="M 480.163 226.53 L 478.831 220.205 C 478.582 219.02 477.536 218.172 476.325 218.172 L 468.013 218.172 C 467.981 218.061 467.928 217.958 467.857 217.867 L 466.934 216.713 C 466.757 216.493 466.49 216.364 466.208 216.364 L 461.076 216.364 C 460.794 216.364 460.527 216.493 460.351 216.713 L 459.427 217.867 C 459.357 217.958 459.304 218.061 459.271 218.172 L 451.562 218.172 C 450.351 218.172 449.305 219.02 449.056 220.205 L 447.724 226.53 C 447.389 228.122 448.604 229.619 450.231 229.619 C 458.734 233.981 467.861 234.088 477.656 229.619 C 479.283 229.619 480.498 228.122 480.163 226.53 Z" fill="#3f3d56"/>
</svg>