<?xml version="1.0" encoding="utf-8"?>
<svg viewBox="225.904 119.462 55.945 57.388" xmlns="http://www.w3.org/2000/svg">
  <circle cx="119.15749" cy="151.74328" r="22.35793" fill="#a0616a" transform="matrix(1, 0, 0, 1, 135.289435, -1.632805)"/>
  <path d="M381.95129,364.51681s4.92421,1.35017,7.78981,2.10186c-.14814-2.13237-1.07164-4.12858-1.54061-6.21457s-.36719-4.53936,1.18311-6.01226,4.77907-.899,5.0289,1.22032q1.96726-4.20674,3.94269-8.42881c3.75508,7.72922,11.43207,1.14255,19.80269,3.09553,4.27026,1.00593,9.62219.57379,11.87821-3.18887a13.938,13.938,0,0,1-3.15439-3.78425,12.73451,12.73451,0,0,0,4.01019.50806,8.40621,8.40621,0,0,0-3.717-6.78481c-1.20391-.78714,1.776-3.58788.72527-4.57378-2.155-2.01218-3.60121-.64578-4.87434-3.2981a9.79644,9.79644,0,0,0-8.85123-5.41152c-3.65891.08569-10.21513.05037-11.6347,3.42125-4.52428-2.9617-10.8222-2.12491-15.24453.982-3.6758,2.5724-7.85908,10.34789-8.78231,14.73729S379.62442,360.69135,381.95129,364.51681Z" transform="matrix(1, 0, 0, 1, -150.144891, -199.999992)" fill="#2f2e41"/>
</svg>