<?xml version="1.0" encoding="utf-8"?>
<svg viewBox="45.309 32.777 71.972 306.231" xmlns="http://www.w3.org/2000/svg">
  <path d="M 81.628 266.261 C 81.628 266.261 95.423 238.522 93.447 225.98 L 72.317 221.365 L 63.174 264.041 L 67.615 315.722 C 64.576 321.598 69.037 328.561 75.646 328.255 C 82.254 327.949 86.054 320.604 82.484 315.034 C 82.451 314.982 82.418 314.93 82.383 314.879 L 81.628 266.261 Z" fill="#a0616a"/>
  <path d="M 100.37 192.819 L 94.266 184.303 L 75.266 196.303 C 71.074 207.902 66.475 228.139 63.936 245.739 C 63.878 246.137 64.147 246.809 63.767 246.929 C 62.398 247.363 61.985 248.05 63.454 249.239 C 64.173 250.137 64.009 251.452 63.09 252.145 C 61.48 252.911 60.242 253.667 62.834 254.407 C 64.656 254.928 62.459 258.117 62.325 259.864 L 84.325 264.864 C 86.335 264.285 86.716 263.108 85.645 261.396 C 87.302 260.896 87.93 260.008 86.77 258.444 L 87.314 257.016 C 89.162 256.73 89.137 255.964 88.105 254.94 L 88.855 252.971 L 92.324 243.864 L 100.37 192.819 Z" fill="#3f3d56"/>
</svg>