<svg xmlns="http://www.w3.org/2000/svg" 
data-name="Layer 1" width="650.11366" 
height="477.61186" viewBox="0 0 650.11366 477.61186" 
xmlns:xlink="http://www.w3.org/1999/xlink">

 <path d="M658.73263,526.73553a13.21806,13.21806,0,1,1,13.21806-13.21806A13.21807,13.21807,0,0,1,658.73263,526.73553Z" 
 transform="translate(-274.94317 -211.19407)" fill="#1F2937"/>
 <path d="M663.34251,516.28344l-2.76592-2.76592,2.766-2.76595a1.3039,1.3039,0,0,0-1.844-1.844l-2.766,2.766-2.766-2.766a1.30388,1.30388,0,0,0-1.844,1.844l2.76595,2.76595-2.76595,2.766a1.3039,1.3039,0,0,0,1.844,1.844l2.76595-2.76595,2.76592,2.76592a1.30388,1.30388,0,0,0,1.844-1.844Z" 
 transform="translate(-274.94317 -211.19407)" fill="#F7F7F7"/>
 <circle cx="326.19937" cy="133.14441" r="26.3045" fill="#DC2626"/>
 <g transform="matrix(0.115431, 0, 0, 0.115431, 308.102386, 113.392509)" style="">
<path d="M159.148,0c-52.696,0-95.544,39.326-95.544,87.662h47.736c0-22.007,21.438-39.927,47.808-39.927 c26.367,0,47.804,17.92,47.804,39.927v6.929c0,23.39-10.292,34.31-25.915,50.813c-20.371,21.531-45.744,48.365-45.744,105.899 h47.745c0-38.524,15.144-54.568,32.692-73.12c17.368-18.347,38.96-41.192,38.96-83.592v-6.929C254.689,39.326,211.845,0,159.148,0z "
fill="#F7F7F7"
/>
<rect x="134.475" y="277.996" width="49.968" height="40.297" fill="#F7F7F7"/>
  </g>
  <g transform="matrix(1, 0, 0, 1, 270.569733, 64.773605)"/>
  <g transform="matrix(1, 0, 0, 1, 270.569733, 64.773605)"/>
  <g transform="matrix(1, 0, 0, 1, 270.569733, 64.773605)"/>
  <g transform="matrix(1, 0, 0, 1, 270.569733, 64.773605)"/>
  <g transform="matrix(1, 0, 0, 1, 270.569733, 64.773605)"/>
  <g transform="matrix(1, 0, 0, 1, 270.569733, 64.773605)"/>
  <g transform="matrix(1, 0, 0, 1, 270.569733, 64.773605)"/>
  <g transform="matrix(1, 0, 0, 1, 270.569733, 64.773605)"/>
  <g transform="matrix(1, 0, 0, 1, 270.569733, 64.773605)"/>
  <g transform="matrix(1, 0, 0, 1, 270.569733, 64.773605)"/>
  <g transform="matrix(1, 0, 0, 1, 270.569733, 64.773605)"/>
  <g transform="matrix(1, 0, 0, 1, 270.569733, 64.773605)"/>
  <g transform="matrix(1, 0, 0, 1, 270.569733, 64.773605)"/>
  <g transform="matrix(1, 0, 0, 1, 270.569733, 64.773605)"/>
  <g transform="matrix(1, 0, 0, 1, 270.569733, 64.773605)"/>
 <rect x="288.15169" y="180.60024" width="77.25667" height="16.52043" rx="5.06951" fill="#868686"/>
 <rect x="248.91568" y="213.64109" width="155.7287" height="16.52043" rx="5.06951" fill="#868686"/>
 <rect x="248.91568" y="246.68195" width="155.7287" height="16.52043" rx="5.06951" fill="#868686"/>
 </svg>