<svg xmlns="http://www.w3.org/2000/svg" data-name="Layer 1" width="676" height="676" viewBox="0 0 676 676" 
xmlns:xlink="http://www.w3.org/1999/xlink">

<path id="a1e66597-148d-4736-b39c-00184f281162-40" data-name="Path 13" d="M575.525,342.75525a10.75,10.75,0,0,0,1.00164,5.83369,10.99444,10.99444,0,0,0,1.68713,2.56109,11.12123,11.12123,0,0,0,1.95644,1.744,10.906,10.906,0,0,0,7.29595,1.90363q.24116-.02487.48144-.05876t.47954-.079q.24171-.04313.4799-.09957t.47778-.12213l8.96651-2.51251,10.04915-28.01931,2.30348,24.58657,40.77284-11.35169-9.775-104.335-69.49455,6.84762,1.90583,1.83522a48.02908,48.02908,0,0,1,13.03169,22.51654,78.292,78.292,0,0,1,1.98341,26.56205,141.18475,141.18475,0,0,1-4.977,26.58842,208.08,208.08,0,0,1-7.85514,22.63256A10.97921,10.97921,0,0,0,575.525,342.75525Z" transform="translate(-262 -112)" fill="#2f2e41"/>


</svg>