<svg xmlns="http://www.w3.org/2000/svg" data-name="Layer 1" width="676" height="676" viewBox="0 0 676 676" 
xmlns:xlink="http://www.w3.org/1999/xlink">


<path id="bfd9c2c3-21db-4bc8-8976-94586a21de42-37" data-name="Path 9" d="M529.76568,348.972l-.05423.00519a10.92438,10.92438,0,0,1-11.88954-9.86522l-5.68685-60.69949a81.4729,81.4729,0,0,1,3.43327-32.25755,82.78683,82.78683,0,0,1,39.2298-47.5915,81.52038,81.52038,0,0,1,31.25114-9.55739c44.81954-4.27,61.19851,5.06459,88.88453,73.42136s5.69552,60.792,5.69552,60.792a10.9425,10.9425,0,0,1-.46267,4.3394,11.12143,11.12143,0,0,1-5.28534,6.39312,10.97834,10.97834,0,0,1-4.17872,1.27664C617.71622,348.697,564.251,362.87424,529.75665,348.9728Z" transform="translate(-262 -112)" fill="#2f2e41"/>
<path id="acce586e-6e96-4eff-b112-6c9d74172e69-38" data-name="Ellipse 1" d="M628.38742,246.52082A60.09533,60.09533,0,0,1,567.2748,339.1912a59.3953,59.3953,0,0,1-38.24149-25.1652,60.09533,60.09533,0,0,1,61.06736-92.64339,59.39528,59.39528,0,0,1,38.287,25.14046Z" transform="translate(-262 -112)" fill="#9e616a"/>
<path id="af1db401-16c9-4940-bbbf-8b9ef63e1952-39" data-name="Path 10" d="M493.34592,285.156a64.45,64.45,0,0,1,2.71593-25.51192c.60421-20.14719,6.44962-38.39572,31.02261-37.62977a64.479,64.479,0,0,1,24.55165-7.53375l12.14321-1.19912q.20457-.02036.40925-.0394A64.34091,64.34091,0,0,1,634.215,271.3438l.11391,1.21579-25.69113,2.51164-11.057-23.66179.54556,24.69437-13.269,1.30231-5.57605-11.93793.27223,12.45078c-19.7014,17.3515-49.57632,18.261-86.08219,8.454Z" transform="translate(-262 -112)" fill="#2f2e41"/>



</svg>