<svg xmlns="http://www.w3.org/2000/svg" data-name="Layer 1" 
width="350" height="316" viewBox="110 260 376 276" 
xmlns:xlink="http://www.w3.org/1999/xlink">

<path d="M727.18537,454.54993l-3.02,207.41-243.96-7,38.96-86c-.28-2.76,17.1-22.13,17-25-.3-8.41,5.98-16.2,7-25,2.08-18.15-9.83-86.69-4.34-100.85a96.26746,96.26746,0,0,1,8.94-18.07995c3.12-4.72,6.32-7.9,9.38-9.05l9.02-21.02,8-12,62.77-18.59,6.94-2.06,16.19,15.8,11.44995,11.18,10.77,1.87c1.61.28,3.17.61,4.67.99a47.44209,47.44209,0,0,1,19.66,9.74C725.41535,392.85992,727.60536,422.9,727.18537,454.54993Z" transform="translate(-262 -112)" fill="#ff0003"/>
<path d="M584.79172,671.70909a8.06043,8.06043,0,0,1-3.45355-.78079l-192.51981,4.91161a8.07967,8.07967,0,0,1,1.15008-15.04471l125.95184-37.55507a8.07907,8.07907,0,0,1,4.016-.15366L714.7624,646.8327a8.07944,8.07944,0,0,1,.9262,15.53535l-128.25875,8.89657A8.09091,8.09091,0,0,1,584.79172,671.70909Z" transform="translate(-262 -112)" fill="#3f3d56"/>
<path d="M591.8725,658.30727a5.08458,5.08458,0,0,1-2.48316-.64626L433.0352,664.96557a5.06832,5.06832,0,0,1,1.2833-9.34574l56.60364-13.73834a5.08357,5.08357,0,0,1,2.67737.07847l145.35352-.17464a5.06856,5.06856,0,0,1,.034,9.68272l-45.60237,6.60842A5.05818,5.05818,0,0,1,591.8725,658.30727Z" transform="translate(-262 -112)" fill="#2f2e41"/>


</svg>