<svg xmlns="http://www.w3.org/2000/svg" data-name="Layer 1" 
width="476" height="226" viewBox="80 150 676 176" 
xmlns:xlink="http://www.w3.org/1999/xlink">

<path d="M405.34786,314.03191a22.02562,22.02562,0,0,0,22.026,25.603l53.95432,156.9927,34.42683-23.66L449.29637,315.7305a22.145,22.145,0,0,0-43.94851-1.69859Z" transform="translate(-262 -112)" fill="#a0616a"/>
<path d="M686.95533,367.15c-23.96,27.26-83.04,75.3-131.71,108.38-10.52,7.15-20.56,13.59-29.65,18.98-6.14,3.64-11.85,6.79-16.99,9.36a27.99469,27.99469,0,0,1-38.41-14.5l-33.7-81.53,11.66-7.73005,28.75-19.07,6.53-4.32,26.96,64.21,28.43-22.82,17.65-14.17,80.46-64.57,6.94-2.06,16.19,15.8,11.44995,11.18,10.77,1.87C683.89533,366.43994,685.45533,366.77,686.95533,367.15Z" transform="translate(-262 -112)" fill="#ff0003"/>
<path d="M438.58534,205.16992l-74.47-.21a7.54113,7.54113,0,0,0-7.55,7.51l-.27,98.61a7.52409,7.52409,0,0,0,7.5,7.54l41.31.12,33.17.09a7.52625,7.52625,0,0,0,7.54-7.51l.02-5.83.26-92.77A7.53481,7.53481,0,0,0,438.58534,205.16992Z" transform="translate(-262 -112)" fill="#e6e6e6"/>
<path d="M433.33534,211.05994l-64-.18a7.06116,7.06116,0,0,0-7.07,7.03l-.18,63.4a31.44293,31.44293,0,0,0,31.32,31.49l12.16.03,27.49.08a7.05471,7.05471,0,0,0,7.07-7.03l.01995-6.38.22-81.37A7.05467,7.05467,0,0,0,433.33534,211.05994Z" transform="translate(-262 -112)" fill="#fff"/>
<path d="M426.14533,254.37994h-49.9a2.995,2.995,0,1,0,0,5.99h49.9a2.995,2.995,0,0,0,0-5.99Z" transform="translate(-262 -112)" fill="#ff0003"/>
<path d="M387.21534,237.96h-10.97a2.995,2.995,0,1,0,0,5.99h10.97a2.995,2.995,0,1,0,0-5.99Z" transform="translate(-262 -112)" fill="#ff0003"/>
<path d="M426.14533,280.71h-49.9a2.995,2.995,0,1,0,0,5.99h49.9a2.995,2.995,0,0,0,0-5.99Z" transform="translate(-262 -112)" fill="#ff0003"/>
<path d="M426.14533,267.54993h-49.9a2.99,2.99,0,1,0,0,5.98h49.9a2.99,2.99,0,0,0,0-5.98Z" transform="translate(-262 -112)" fill="#ff0003"/>
<path d="M416.449,248.55039a17.71641,17.71641,0,1,1,17.7164-17.71641A17.7366,17.7366,0,0,1,416.449,248.55039Zm0-34.20164A16.48524,16.48524,0,1,0,432.93418,230.834,16.504,16.504,0,0,0,416.449,214.34875Z" transform="translate(-262 -112)" fill="#ff0003"/>
<path d="M423.8894,237.69619a45.54536,45.54536,0,0,0-7.47817-17.56611.93517.93517,0,0,0-1.59461,0,48.64681,48.64681,0,0,0-6.06688,18.33571c-.14352,1.177,1.70451,1.16666,1.84676,0a45.51962,45.51962,0,0,1,1.21062-6.2,1.05464,1.05464,0,0,0,.20631-.06316,13.45936,13.45936,0,0,1,7.94981-1.29459c.02367.00353.04652-.00162.07019.00068a44.28492,44.28492,0,0,1,2.07519,7.27843C422.33387,239.35283,424.11416,238.85928,423.8894,237.69619ZM412.47185,230.001a46.74284,46.74284,0,0,1,3.22475-7.61812,44.26573,44.26573,0,0,1,3.56581,6.61182A15.57647,15.57647,0,0,0,412.47185,230.001Z" transform="translate(-262 -112)" fill="#ff0003"/>
</svg>