<?xml version="1.0" encoding="utf-8"?>
<svg viewBox="148.24 124.553 108.231 278.769" xmlns="http://www.w3.org/2000/svg">
  <polygon points="228.973 389.143 221.163 389.143 217.448 359.019 228.974 359.02 228.973 389.143" fill="#ffb7b7" style=""/>
  <path d="M 230.965 396.714 L 205.783 396.713 L 205.783 396.394 C 205.783 390.981 210.171 386.593 215.584 386.593 L 215.585 386.593 L 230.965 386.593 L 230.965 396.714 Z" fill="#2f2e41" style=""/>
  <polygon points="186.292 389.143 178.482 389.143 174.767 359.019 186.294 359.02 186.292 389.143" fill="#ffb7b7" style=""/>
  <path d="M 186.373 396.714 L 161.191 396.713 L 161.191 396.394 C 161.191 390.981 165.579 386.593 170.992 386.593 L 170.993 386.593 L 186.373 386.593 L 186.373 396.714 Z" fill="#2f2e41" style=""/>
  <polygon points="185.652 261.914 178.008 279.525 171.702 380.749 187.628 380.112 191.977 331.858 205.395 288.88 213.109 336.794 216.294 378.838 229.472 379.409 234.723 261.914 185.652 261.914" fill="#2f2e41" style=""/>
  <path d="M 223.864 175.013 L 201.708 175.568 L 188.7 182.245 L 187.987 231.512 L 179.874 265.526 C 179.874 265.526 230.563 269.014 237.57 263.918 L 229.289 225.059 L 240.396 183.064 L 223.864 175.013 Z" style="fill: rgb(13, 125, 97);"/>
</svg>