<?xml version="1.0" encoding="utf-8"?>
<svg viewBox="141.046 88.633 75.489 184.583" xmlns="http://www.w3.org/2000/svg">
  <path d="M 159.474 267.552 C 162.268 265.67 162.682 261.72 160.339 259.3 L 169.005 242.135 L 159.079 243.286 L 152.371 259.41 C 149.562 262.516 151.168 267.498 155.263 268.378 C 156.72 268.692 158.243 268.393 159.474 267.552 Z" fill="#ffb7b7" style=""/>
  <path d="M 192.122 183.062 L 190.059 181.669 C 190.059 181.669 181.514 184.23 178.989 195.624 C 178.989 195.624 177.056 201.34 176.208 205.27 C 175.235 209.778 153.758 251.185 153.758 251.185 L 166.617 254.874 L 190.192 216.749 L 192.122 183.062 Z" style="fill: rgb(13, 125, 97);"/>
  <path d="M 156.195 218.881 C 155.321 218.969 154.442 218.989 153.564 218.942 C 153.253 218.908 152.972 219.13 152.933 219.44 L 151.255 232.028 C 151.126 232.941 150.752 233.803 150.172 234.521 C 149.207 235.677 148.764 237.181 148.949 238.675 L 148.949 260.058 C 148.949 260.058 148.84 262.909 151.031 262.909 C 153.653 263.238 156.306 263.238 158.927 262.909 C 158.927 262.909 160.681 262.577 160.681 259.946 L 160.681 238.892 C 160.952 237.405 160.556 235.875 159.599 234.706 C 159.038 233.985 158.676 233.13 158.548 232.226 L 156.805 219.375 C 156.764 219.075 156.497 218.859 156.195 218.881 Z" fill="#fff" style=""/>
  <path d="M 154.971 263.516 C 153.646 263.516 152.323 263.434 151.008 263.27 C 150.414 263.284 149.841 263.049 149.427 262.623 C 148.536 261.697 148.586 260.111 148.588 260.044 L 148.588 238.697 C 148.4 237.111 148.873 235.517 149.895 234.29 C 150.432 233.624 150.778 232.824 150.897 231.977 L 152.575 219.392 C 152.643 218.889 153.099 218.531 153.604 218.583 C 154.456 218.628 155.31 218.608 156.159 218.522 L 156.169 218.521 C 156.661 218.485 157.096 218.837 157.163 219.326 L 158.906 232.178 C 159.026 233.018 159.363 233.813 159.883 234.484 C 160.898 235.724 161.322 237.346 161.042 238.924 L 161.042 259.946 C 161.042 262.842 159.015 263.26 158.994 263.264 C 157.66 263.432 156.316 263.516 154.971 263.516 Z M 153.515 219.301 C 153.404 219.295 153.307 219.375 153.291 219.485 L 151.612 232.075 C 151.474 233.055 151.074 233.978 150.453 234.748 C 149.551 235.828 149.136 237.234 149.307 238.631 L 149.31 238.675 L 149.31 260.058 C 149.309 260.084 149.271 261.422 149.949 262.124 C 150.233 262.413 150.626 262.567 151.031 262.548 L 151.076 262.551 C 153.668 262.876 156.29 262.876 158.882 262.551 C 158.916 262.542 160.32 262.222 160.32 259.946 L 160.326 238.827 C 160.579 237.445 160.211 236.021 159.319 234.934 C 158.718 234.162 158.329 233.246 158.191 232.277 L 156.448 219.423 C 156.432 219.314 156.335 219.235 156.225 219.24 C 155.335 219.329 154.439 219.35 153.545 219.302 C 153.535 219.301 153.525 219.301 153.515 219.301 Z" fill="#3f3d56" style=""/>
  <path d="M 153.546 239.058 L 156.206 239.058 C 158.409 239.058 160.194 240.843 160.194 243.046 L 160.194 253.053 C 160.194 255.255 158.409 257.041 156.206 257.041 L 153.546 257.041 C 151.344 257.041 149.559 255.255 149.559 253.053 L 149.559 243.046 C 149.559 240.843 151.344 239.058 153.546 239.058 Z" style="fill: rgb(181, 90, 0);"/>
</svg>