<?xml version="1.0" encoding="utf-8"?>
<svg viewBox="196.852 128.982 41.579 41.632" xmlns="http://www.w3.org/2000/svg">
  <path d="M 229.303 154.344 C 229.303 166.167 216.504 173.557 206.265 167.645 C 196.025 161.734 196.025 146.955 206.265 141.043 C 208.599 139.695 211.248 138.985 213.944 138.985 C 222.405 138.964 229.282 145.806 229.303 154.267 C 229.303 154.293 229.303 154.318 229.303 154.344 Z" fill="#ffb7b7" style=""/>
  <path d="M 198.636 133.714 C 200.435 129.845 203.917 130.61 206.962 131.922 C 210.819 131.066 214.486 128.506 218.641 130.02 C 222.733 135.973 236.474 134.221 233.551 143.912 C 233.547 146.234 237.92 144.882 237.157 148.685 C 239.473 156.004 228.795 169.865 222.664 166.947 C 224.18 164.168 227.644 157.856 222.39 157.23 C 211.09 167.745 221.225 137.208 207.026 146.089 C 202.325 150.391 195.889 138.018 198.636 133.714 Z" fill="#2f2e41" style=""/>
</svg>