<?xml version="1.0" encoding="utf-8"?>
<svg data-name="Layer 1" width="732.64277" height="638.92105" viewBox="152.752 9.855 264.53 626.602" xmlns="http://www.w3.org/2000/svg">
  <polygon points="248.328 550.988 265.333 550.988 273.423 485.397 248.326 485.398 248.328 550.988" fill="#9f616a"/>
  <path d="M 243.991 545.437 L 277.48 545.435 L 277.481 545.435 C 289.267 545.436 298.822 554.99 298.823 566.777 L 298.823 567.47 L 243.992 567.472 L 243.991 545.437 Z" fill="#2f2e41"/>
  <path d="M 237.638 316.714 C 237.638 316.714 230.268 325.045 242.471 357.519 L 240.322 535.582 L 279.869 534.811 L 288.562 447.953 L 304.389 321.202 L 237.638 316.714 Z" fill="#2f2e41"/>
  <path d="M 317.952 341.332 L 317.519 341.266 C 266.928 333.55 228.75 326.153 228.37 326.079 L 227.896 325.987 L 241.158 293.73 C 241.054 290.36 238.183 195.707 243.678 168.513 C 248.999 142.187 274.076 137.872 276.934 137.466 L 279.803 127.959 L 316.055 146.823 L 322.377 168.583 L 323.661 228.221 L 317.952 341.332 Z" fill="#3f3d56"/>
</svg>