<?xml version="1.0" encoding="utf-8"?>
<svg data-name="Layer 1" width="732.64277" height="638.92105" viewBox="152.752 9.855 264.53 626.602" xmlns="http://www.w3.org/2000/svg">
  <path d="M 349.415 150.972 C 347.7 151.144 345.976 151.184 344.255 151.092 C 343.645 151.025 343.094 151.46 343.017 152.069 L 339.726 176.754 C 339.473 178.546 338.739 180.236 337.603 181.644 C 335.709 183.91 334.84 186.86 335.204 189.79 L 335.204 231.722 C 335.204 231.722 334.991 237.313 339.287 237.313 C 344.428 237.959 349.631 237.959 354.772 237.313 C 354.772 237.313 358.211 236.662 358.211 231.503 L 358.211 190.215 C 358.743 187.299 357.966 184.298 356.088 182.005 C 354.99 180.591 354.28 178.915 354.029 177.143 L 350.611 151.941 C 350.53 151.353 350.007 150.929 349.415 150.972 Z" fill="#fff"/>
  <path d="M 347.014 238.504 C 344.416 238.504 341.82 238.343 339.241 238.021 C 338.077 238.048 336.953 237.589 336.142 236.752 C 334.394 234.937 334.491 231.827 334.496 231.695 L 334.496 189.833 C 334.127 186.722 335.054 183.597 337.06 181.19 C 338.111 179.883 338.791 178.316 339.025 176.655 L 342.315 151.975 C 342.449 150.988 343.342 150.285 344.332 150.388 C 346.003 150.477 347.679 150.436 349.344 150.267 L 349.363 150.266 C 350.328 150.196 351.181 150.887 351.312 151.845 L 354.73 177.048 C 354.965 178.697 355.626 180.255 356.647 181.571 C 358.638 184.003 359.467 187.183 358.919 190.277 L 358.919 231.503 C 358.919 237.183 354.944 238.001 354.904 238.009 C 352.287 238.339 349.652 238.504 347.014 238.504 Z M 344.159 151.796 C 343.941 151.785 343.751 151.942 343.719 152.158 L 340.427 176.847 C 340.157 178.768 339.371 180.579 338.153 182.089 C 336.385 184.207 335.571 186.963 335.906 189.703 L 335.911 189.79 L 335.911 231.722 C 335.91 231.774 335.835 234.397 337.165 235.774 C 337.722 236.341 338.494 236.643 339.287 236.606 L 339.375 236.611 C 344.458 237.249 349.601 237.249 354.684 236.611 C 354.751 236.595 357.504 235.967 357.504 231.503 L 357.515 190.088 C 358.011 187.376 357.289 184.584 355.541 182.453 C 354.362 180.939 353.599 179.143 353.328 177.242 L 349.909 152.036 C 349.878 151.822 349.689 151.666 349.473 151.677 C 347.727 151.852 345.97 151.892 344.217 151.799 C 344.198 151.797 344.179 151.796 344.159 151.796 Z" fill="#3f3d56"/>
  <path d="M 344.22 190.54 L 349.436 190.54 C 353.755 190.54 357.256 194.041 357.256 198.36 L 357.256 217.986 C 357.256 222.305 353.755 225.806 349.436 225.806 L 344.22 225.806 C 339.901 225.806 336.4 222.305 336.4 217.986 L 336.4 198.36 C 336.4 194.041 339.901 190.54 344.22 190.54 Z" style="fill: rgb(181, 90, 0);"/>
  <polygon points="248.328 550.988 265.333 550.988 273.423 485.397 248.326 485.398 248.328 550.988" fill="#9f616a"/>
  <path d="M 243.991 545.437 L 277.48 545.435 L 277.481 545.435 C 289.267 545.436 298.822 554.99 298.823 566.777 L 298.823 567.47 L 243.992 567.472 L 243.991 545.437 Z" fill="#2f2e41"/>
  <path d="M 237.638 316.714 C 237.638 316.714 230.268 325.045 242.471 357.519 L 240.322 535.582 L 279.869 534.811 L 288.562 447.953 L 304.389 321.202 L 237.638 316.714 Z" fill="#2f2e41"/>
  <path d="M 317.952 341.332 L 317.519 341.266 C 266.928 333.55 228.75 326.153 228.37 326.079 L 227.896 325.987 L 241.158 293.73 C 241.054 290.36 238.183 195.707 243.678 168.513 C 248.999 142.187 274.076 137.872 276.934 137.466 L 279.803 127.959 L 316.055 146.823 L 322.377 168.583 L 323.661 228.221 L 317.952 341.332 Z" fill="#3f3d56"/>
  <path d="M 339.786 218.582 C 336.486 218.582 333.335 219.96 331.095 222.383 L 270.162 222.383 L 247.843 227.134 L 251.508 255.398 L 330.904 238.323 C 336.962 245.165 348.154 242.882 351.05 234.215 C 353.62 226.525 347.894 218.579 339.786 218.582 Z" fill="#9f616a"/>
  <circle cx="320.33" cy="305.177" r="29.366" transform="matrix(0.479659, -0.877455, 0.877455, 0.479659, -106.88036, 237.8825)" fill="#9f616a"/>
  <path d="M 286.928 79.712 L 285.504 76.847 L 292.668 73.287 C 292.668 73.287 300.57 60.429 314.87 64.043 C 329.17 67.656 335.603 69.819 335.603 69.819 L 342.749 73.414 L 339.163 76.982 L 345.596 79.145 L 341.298 81.28 L 346.299 84.155 L 343.607 98.89 C 343.607 98.89 339.135 87.714 330.539 91.985 C 321.943 96.256 306.22 89.777 306.22 89.777 L 292.559 116.214 C 292.559 116.214 289.741 106.947 284.716 109.418 C 284.716 109.418 271.88 88.975 286.928 79.712 Z" fill="#2f2e41"/>
  <path d="M 251.898 260.696 L 244.929 239.969 L 243.244 170.875 L 246.213 161.072 C 252.325 140.893 277.989 134.898 292.408 150.28 C 299.625 157.979 301.777 169.138 297.941 178.969 L 282.027 219.748 L 282.836 221.317 L 317.313 221.038 L 329.559 243.083 L 251.898 260.696 Z" fill="#3f3d56"/>
</svg>