<?xml version="1.0" encoding="utf-8"?>
<svg data-name="Layer 1" width="732.64277" height="638.92105" viewBox="275.896 58.134 74.826 76.931" xmlns="http://www.w3.org/2000/svg">
  <circle cx="320.33" cy="305.177" r="29.366" transform="matrix(0.479659, -0.877455, 0.877455, 0.479659, -106.88036, 237.8825)" fill="#9f616a"/>
  <path d="M 286.928 79.712 L 285.504 76.847 L 292.668 73.287 C 292.668 73.287 300.57 60.429 314.87 64.043 C 329.17 67.656 335.603 69.819 335.603 69.819 L 342.749 73.414 L 339.163 76.982 L 345.596 79.145 L 341.298 81.28 L 346.299 84.155 L 343.607 98.89 C 343.607 98.89 339.135 87.714 330.539 91.985 C 321.943 96.256 306.22 89.777 306.22 89.777 L 292.559 116.214 C 292.559 116.214 289.741 106.947 284.716 109.418 C 284.716 109.418 271.88 88.975 286.928 79.712 Z" fill="#2f2e41"/>
</svg>