<?xml version="1.0" encoding="utf-8"?>
<svg viewBox="187.307 64.483 222.877 420.932" xmlns="http://www.w3.org/2000/svg">
  <g transform="matrix(1, 0, 0, 1, -94.509651, 32.387882)">
    <path d="M463.90608,282.43654c-.1084,0-.2168-.00391-.32568-.01074-7.17432-.46094-31.72314-3.93359-46.38428-29.2832-1.08301-1.87109-.86914-4.25195,.53271-5.92285h.00049l27.45264-32.70898c1.01953-1.21484,2.54932-1.87891,4.09766-1.85156,1.58984,.0376,3.63037,.50897,4.01953,2.05371,3.16241,12.55261,16.78369,28.85248,34.52979,31.01465,1.66797,.20325,2.6792,1.93457,3.08691,3.55762,.40479,1.60938,.03027,3.26855-1.02686,4.55176l-21.99268,26.70508c-.98877,1.20117-2.46143,1.89453-3.99023,1.89453Z" fill="#e6e6e6"/>
    <path d="M421.8846,248.50685l.38281,.32129c-.37451,.44727-.44287,1.08496-.16992,1.58887,13.26318,24.42285,36.97559,26.33887,41.59424,26.47461,.44482,.02539,.86182-.1748,1.14404-.51758l21.83496-26.5127c.30908-.37598,.4043-.85547,.26221-1.31836-.14355-.46484-.47723-.92523-.96777-.94824-18.87628-.8855-34.03821-21.29858-34.80469-30.45801-.0365-.43628-.65723-.56543-1.09375-.58008-.44873-.00439-.85742,.17188-1.14307,.51172l-26.65625,31.75977-.38281-.32129Z" fill="#fff"/>
    <path d="M433.26286,254.54895l19.79239-20.1806c1.35297-1.37949-.76666-3.50255-2.12131-2.12132l-19.79239,20.1806c-1.35297,1.37949,.76666,3.50255,2.12131,2.12132h0Z" fill="#e6e6e6"/>
    <path d="M445.20878,260.23445c5.46243-4.89603,10.20929-10.56494,14.09619-16.78535,1.02603-1.64198-1.56848-3.14963-2.59042-1.51416-3.75781,6.01384-8.3468,11.4454-13.62711,16.17821-1.4407,1.29132,.68668,3.4072,2.12131,2.12131h.00003Z" fill="#e6e6e6"/>
    <path d="M455.97529,267.04234c4.97339-5.50916,9.20685-11.65778,12.53979-18.29019,.86462-1.72057-1.72244-3.24139-2.59042-1.51416-3.22021,6.4081-7.26447,12.35904-12.07068,17.68304-1.29086,1.42993,.82428,3.55807,2.12131,2.12131h0Z" fill="#e6e6e6"/>
  </g>
  <g transform="matrix(1, 0, 0, 1, -94.509651, 32.387882)">
    <path d="M416.63402,242.84134c-.58701-2.56064-.54227-5.04628,.00827-7.10609l-7.14557-24.02769,11.63416-3.15433,5.99582,24.7133c1.39023,1.60284,2.51166,3.81387,3.09866,6.37451,1.34103,5.84978-.61438,11.30832-4.36755,12.19205s-7.88278-3.142-9.22382-8.99176h0l.00003,.00002Z" fill="#ffb6b6"/>
    <path d="M350.438,82.67921s18.7493-8.16087,29.21829,3.63221c9.52893,10.73412,28.87302,43.03461,26.88651,46.17728l19.04379,89.98451-14.11594,4.34845-37.44492-103.50278-23.58777-40.63968h.00003Z" fill="#6c63ff"/>
  </g>
  <polygon points="235.279 248.421 244.94 361.124 268.285 465.777 293.241 463.362 281.166 349.049 288.557 247.458 235.279 248.421" fill="#2f2e41"/>
  <path d="M 237.276 272.875 L 297.445 368.662 L 366.098 451.027 L 387.182 437.458 L 324.129 341.346 C 314.478 299.009 303.791 259.819 284.206 247.637 L 237.276 272.875 L 237.276 272.875 L 237.276 272.875 Z" fill="#2f2e41"/>
  <path d="M 240.788 273.344 C 237.965 273.344 235.232 272.35 233.004 270.461 C 230.014 267.925 228.456 264.228 228.73 260.318 L 233.979 209.959 L 231.974 154.969 L 231.987 154.909 L 238.218 125.026 C 238.28 124.077 238.479 123.071 238.8 122.106 L 248.004 94.433 C 249.66 89.456 254.295 86.111 259.541 86.111 L 267.68 86.111 C 271.755 86.111 275.538 88.135 277.797 91.526 L 284.922 102.213 C 285.396 102.923 285.795 103.686 286.11 104.479 L 301.839 144.178 C 302.338 145.438 302.623 146.764 302.683 148.118 L 307.563 258.293 C 307.726 261.951 306.254 265.451 303.527 267.896 C 300.816 270.328 297.199 271.403 293.612 270.85 C 273.072 267.678 255.095 270.271 243.63 273.007 C 242.683 273.232 241.73 273.344 240.788 273.344 L 240.788 273.344 L 240.788 273.344 Z" fill="#6c63ff"/>
  <path d="M 238.499 163.894 L 224.814 153.428 C 224.814 153.428 231.254 96.272 248.16 96.272 C 265.065 96.272 273.92 86.611 273.92 86.611 C 273.92 86.611 334.297 171.139 317.392 180.799 C 300.486 190.459 277.14 185.629 277.14 185.629 L 268.918 113.42 C 267.907 109.603 262.654 109.19 261.059 112.802 L 238.499 163.894 L 238.499 163.894 L 238.499 163.894 Z" fill="#3f3d56"/>
  <path d="M 274.521 86.011 L 275.346 86.611 L 277.425 88.125 C 283.676 92.676 283.095 102.177 276.335 105.932 L 267.883 92.43" fill="#3f3d56"/>
</svg>