<?xml version="1.0" encoding="utf-8"?>
<svg viewBox="170.747 127.85 297.291 112.245" xmlns="http://www.w3.org/2000/svg">
  <g transform="matrix(0.793964, 0, 0, 0.793964, 23.355457, 116.55809)" style="">
    <path d="M248.90606,88.43654c-.1084,0-.2168-.00391-.32568-.01074-7.17432-.46094-31.72314-3.93359-46.38428-29.2832-1.08301-1.87109-.86914-4.25195,.53271-5.92285h.00049c12.24365-9.95752,21.80737-20.73434,27.45264-32.70898,1.01953-1.21484,2.54932-1.87891,4.09766-1.85156,1.58984,.0376,3.05469,.78613,4.01953,2.05371,6.96045,9.14648,20.70264,25.33789,34.52979,31.01465,1.5542,.63867,2.6792,1.93457,3.08691,3.55762,.40479,1.60938,.03027,3.26855-1.02686,4.55176l-21.99268,26.70508c-.98877,1.20117-2.46143,1.89453-3.99023,1.89453v-.00002Z" fill="#e6e6e6"/>
    <path d="M206.88458,54.50685l.38281,.32129c-.37451,.44727-.44287,1.08496-.16992,1.58887,13.26318,24.42285,36.97559,26.33887,41.59424,26.47461,.44482,.02539,.86182-.1748,1.14404-.51758l21.83496-26.5127c.30908-.37598,.4043-.85547,.26221-1.31836-.14355-.46484-.49609-.81152-.96777-.94824-14.82959-4.33398-30.38916-24.4082-34.80469-30.45801-.2583-.35352-.65723-.56543-1.09375-.58008-.44873-.00439-.85742,.17188-1.14307,.51172-6.31802,12.31873-15.16415,22.93185-26.65625,31.75977l-.38281-.32129Z" fill="#fff"/>
    <path d="M218.26286,60.54895l19.7924-20.1806c1.35297-1.37949-.76666-3.50255-2.12132-2.12132l-19.7924,20.1806c-1.35297,1.37949,.76666,3.50255,2.12132,2.12132h0Z" fill="#e6e6e6"/>
    <path d="M230.20878,66.23444c5.46243-4.89602,10.20927-10.56494,14.09621-16.78536,1.02602-1.64199-1.56847-3.14963-2.59041-1.51416-3.75781,6.01384-8.34679,11.44541-13.62711,16.1782-1.4407,1.29132,.68668,3.4072,2.12132,2.12132h-.00002Z" fill="#e6e6e6"/>
    <path d="M240.97529,73.04234c4.97339-5.50917,9.20683-11.65777,12.53978-18.29019,.86462-1.72057-1.72244-3.24139-2.59041-1.51416-3.22021,6.40809-7.26448,12.35905-12.07069,17.68303-1.29086,1.42993,.82426,3.55809,2.12132,2.12132h0Z" fill="#e6e6e6"/>
  </g>
  <g transform="matrix(0.793964, 0, 0, 0.793964, 23.355457, 116.55809)" style="">
    <path d="M266.90606,96.43654c-.1084,0-.2168-.00391-.32568-.01074-7.17432-.46094-31.72314-3.93359-46.38428-29.2832-1.08301-1.87109-.86914-4.25195,.53271-5.92285h.00049c11.63211-10.08881,20.38931-21.121,27.45264-32.70898,1.01953-1.21484,2.54932-1.87891,4.09766-1.85156,1.58984,.0376,3.05469,.78613,4.01953,2.05371,6.96045,9.14648,20.70264,25.33789,34.52979,31.01465,1.5542,.63867,2.6792,1.93457,3.08691,3.55762,.40479,1.60938,.03027,3.26855-1.02686,4.55176l-21.99268,26.70508c-.98877,1.20117-2.46143,1.89453-3.99023,1.89453v-.00002Z" fill="#e6e6e6"/>
    <path d="M224.88458,62.50685l.38281,.32129c-.37451,.44727-.44287,1.08496-.16992,1.58887,13.26318,24.42285,36.97559,26.33887,41.59424,26.47461,.44482,.02539,.86182-.1748,1.14404-.51758l21.83496-26.5127c.30908-.37598,.4043-.85547,.26221-1.31836-.14355-.46484-.49609-.81152-.96777-.94824-14.82959-4.33398-30.38916-24.4082-34.80469-30.45801-.2583-.35352-.65723-.56543-1.09375-.58008-.44873-.00439-.85742,.17188-1.14307,.51172-7.56863,12.57626-16.08252,23.72437-26.65625,31.75977l-.38281-.32129Z" fill="#fff"/>
    <path d="M236.26286,68.54895l19.7924-20.1806c1.35297-1.37949-.76666-3.50255-2.12132-2.12132l-19.7924,20.1806c-1.35297,1.37949,.76666,3.50255,2.12132,2.12132h0Z" fill="#e6e6e6"/>
    <path d="M248.20878,74.23444c5.46243-4.89602,10.20927-10.56494,14.09621-16.78536,1.02602-1.64199-1.56847-3.14963-2.59041-1.51416-3.75781,6.01384-8.34679,11.44541-13.62711,16.1782-1.4407,1.29132,.68668,3.4072,2.12132,2.12132h-.00002Z" fill="#e6e6e6"/>
    <path d="M258.97529,81.04234c4.97339-5.50917,9.20683-11.65777,12.53978-18.29019,.86462-1.72057-1.72244-3.24139-2.59041-1.51416-3.22021,6.40809-7.26448,12.35905-12.07069,17.68303-1.29086,1.42993,.82426,3.55809,2.12132,2.12132h0Z" fill="#e6e6e6"/>
  </g>
  <g transform="matrix(0.793964, 0, 0, 0.793964, 23.355457, 116.55809)" style="">
    <path d="M251.01846,81.47201c2.11028,1.39259,3.73103,3.14634,4.71684,4.93548l20.94102,11.99645-5.99989,9.79759-20.59659-13.22409c-2.03267-.20276-4.2825-1.00327-6.39278-2.39586-4.82091-3.18137-7.08778-8.24731-5.06328-11.31514s7.57375-2.97579,12.39464,.20556h.00003Z" fill="#ffb6b6"/>
    <path d="M349.54524,68.82587c13.35391-8.18977,26.77353,10.56525,14.90002,20.78384l-.04037,.03477-47.44298,44.62148-56.77739-28.0376,5.6142-15.1384,43.98856,17.42526,32.99774-34.25585c2.29694-2.29982,4.55698-4.08226,6.76025-5.4335h-.00003Z" fill="#6c63ff"/>
  </g>
</svg>