<?xml version="1.0" encoding="utf-8"?>
<svg viewBox="258.765 112.202 52.595 48.387" xmlns="http://www.w3.org/2000/svg">
  <circle cx="284.975" cy="137.788" r="14.246" fill="#ffb6b6" style=""/>
  <path d="M 296.257 148.558 C 294.972 149.037 293.002 149.783 291.717 150.263 C 290.518 147.874 291.986 146.634 292.139 143.966 C 292.19 143.075 292.318 142.184 292.244 141.295 C 292.171 140.406 291.865 139.494 291.195 138.905 C 290.169 138.006 288.461 138.152 287.467 139.088 C 286.474 140.023 286.191 141.57 286.597 142.872 C 282.691 141.184 280.168 136.754 280.707 132.533 C 279.541 132.076 278.345 131.612 277.092 131.577 C 275.84 131.542 274.498 132.02 273.831 133.081 C 273.362 133.824 273.269 134.768 272.744 135.472 C 271.89 136.617 270.046 136.706 268.913 135.837 C 267.78 134.969 267.346 133.392 267.588 131.985 C 267.829 130.578 266.071 127.707 267.055 126.673 C 267.727 125.968 271.06 126.967 271.809 126.345 C 272.493 125.777 273.179 125.208 273.933 124.737 C 274.889 124.139 275.948 123.706 277.049 123.463 C 278.091 123.233 279.162 123.173 280.227 123.113 C 281.308 123.052 282.804 120.899 283.885 120.838 C 287.069 120.66 289.914 122.583 292.969 123.498 C 296.023 124.413 297.945 127.041 299.636 129.745 C 302.044 133.596 301.226 137.816 299.567 141.498 C 299.157 142.408 300.533 143.365 300.329 144.342 C 300.14 145.251 299.289 145.908 299.09 146.815 C 298.92 147.59 297.914 146.692 297.674 147.448 C 297.467 148.101 296.857 148.562 296.205 148.77 C 295.552 148.978 294.854 148.974 294.169 148.968" fill="#2f2e41" style=""/>
</svg>