<?xml version="1.0" encoding="utf-8"?>
<svg viewBox="174.111 153.925 207.291 313.271" xmlns="http://www.w3.org/2000/svg">
  <path d="M 339.107 457.162 L 285.54 457.162 L 276.556 412.747 L 273.643 457.162 L 223.883 457.162 C 223.902 422.283 225.719 387.428 229.327 352.736 L 229.944 350.635 L 230.918 347.275 L 231.534 345.165 L 241.831 309.806 L 242.645 306.999 L 304.65 306.999 C 308.216 310.351 311.508 313.986 314.49 317.868 C 315.5 319.155 316.555 320.549 317.636 322.05 C 318.388 323.114 319.165 324.232 319.942 325.402 C 326.851 335.689 332.016 347.044 335.228 359.01 L 335.228 359.02 C 335.772 361.066 336.255 363.162 336.675 365.303 L 336.675 365.312 C 337.051 367.215 337.381 369.146 337.641 371.122 C 337.836 372.56 338.006 374.018 338.132 375.493 C 338.877 383.664 338.616 391.895 337.353 400.001 L 339.107 457.162 Z" fill="#2f2e41" style=""/>
  <path d="M 278.577 161.137 L 308.088 159.615 L 321.795 181.274 C 321.795 181.274 347.584 185.586 345.796 215.976 C 344.008 246.367 314.419 273.034 314.419 273.034 L 315.683 288.859 L 313.486 295.137 L 313.768 298.661 L 316.765 302.394 L 317.074 306.254 L 314.419 312.361 L 318.029 318.21 L 242.113 310.855 L 239.338 300.743 L 243.387 295.312 L 241.125 288.229 L 244.525 281.416 L 246.299 259.776 C 246.299 259.776 226.899 230.631 249.17 208.679 L 258.107 193.484 L 268.109 181.281 L 278.577 161.137 Z" style="fill: rgb(33, 191, 157);"/>
</svg>