<?xml version="1.0" encoding="utf-8"?>
<svg viewBox="162.128 177.788 104.813 92.838" xmlns="http://www.w3.org/2000/svg">
  <path d="M 201.371 261.948 C 182.661 261.948 172.512 259.661 168.967 254.781 C 165.84 250.475 167.937 244.792 170.365 238.213 C 172.109 233.485 174.087 228.126 174.087 222.821 C 174.087 197.021 187.168 183.939 212.968 183.939 C 225.805 183.939 239.588 190.758 249.837 202.18 C 259.156 212.563 263.797 224.991 262.574 236.276 C 261.569 245.53 257.262 251.616 249.016 255.431 L 248.534 255.653 L 248.397 255.14 C 247.685 252.483 246.48 249.985 244.846 247.774 C 244.686 251.245 243.811 254.645 242.276 257.761 L 242.187 257.939 L 241.997 257.995 C 232.666 260.652 221.591 261.371 212.986 261.702 C 208.798 261.866 204.926 261.947 201.371 261.948 Z" fill="#2f2e41" style=""/>
  <circle cx="206.993" cy="231.745" r="31.27" fill="#ffb6b6" style=""/>
  <path d="M 202.806 229.849 C 200.111 229.849 197.419 229.773 194.726 229.621 L 194.246 229.594 L 194.31 229.118 C 194.706 226.132 194.483 223.098 193.654 220.204 C 192.246 223.5 190.152 226.457 187.51 228.879 L 187.362 229.016 L 187.16 228.995 C 179.85 228.195 172.606 226.874 165.485 225.042 L 165.212 224.972 L 165.157 224.696 C 164.625 222.084 164.35 219.425 164.335 216.76 C 164.335 208.433 167.354 201.425 172.836 197.027 C 178.803 192.238 187.356 190.766 196.928 192.877 L 227.538 192.877 C 234.543 192.886 240.222 198.563 240.231 205.57 L 240.231 224.954 L 239.896 225.04 C 227.789 228.222 215.324 229.838 202.806 229.849 Z" fill="#2f2e41" style=""/>
</svg>