<?xml version="1.0" encoding="utf-8"?>
<svg viewBox="29.738 2.411 526.523 259.683" xmlns="http://www.w3.org/2000/svg">
  <path d="M 297.593 181.802 C 294.002 171.243 281.094 167.346 272.26 174.151 L 200.75 216.906 L 178.374 162.306 C 185.263 152.201 178.629 138.43 166.434 137.516 C 154.238 136.604 145.629 149.235 150.935 160.253 C 152.894 164.317 156.488 167.359 160.823 168.616 C 162.201 184.361 169.865 254.733 196.531 252.175 C 218.943 250.024 274.602 212.957 291.889 200.104 C 297.564 195.888 299.87 188.493 297.593 181.802 Z" fill="#ffb6b6" style=""/>
  <path d="M 45.422 62.325 C 42.108 63.539 40.399 67.207 41.604 70.524 L 79.971 175.799 C 81.183 179.114 84.851 180.821 88.168 179.617 L 237.076 125.347 C 240.391 124.135 242.099 120.469 240.894 117.151 L 202.529 11.877 C 201.316 8.562 197.648 6.853 194.331 8.058 L 45.422 62.325 Z" fill="#ccc" style=""/>
  <path d="M 181.656 139.742 L 90.509 172.96 C 86.937 174.256 82.991 172.418 81.688 168.851 L 46.89 73.366 C 45.592 69.798 47.431 65.85 50.997 64.544 L 191.492 13.343 C 195.06 12.045 199.009 13.884 200.314 17.453 L 217.127 63.589 C 228.321 94.411 212.452 128.479 181.656 139.742 Z" fill="#fff" style=""/>
  <path d="M 116.071 70.763 L 94.412 78.658 C 92.818 79.237 91.196 77.877 91.488 76.207 C 91.626 75.434 92.166 74.789 92.903 74.52 L 114.562 66.625 C 116.155 66.047 117.779 67.407 117.485 69.076 C 117.349 69.85 116.81 70.493 116.071 70.763 Z" style="fill: rgb(33, 191, 157);"/>
  <path d="M 167.707 61.528 L 97.496 87.116 C 95.902 87.697 94.276 86.341 94.569 84.67 C 94.705 83.893 95.244 83.249 95.986 82.98 L 166.199 57.391 C 167.793 56.81 169.415 58.173 169.122 59.841 C 168.985 60.615 168.447 61.259 167.707 61.528 Z" style="fill: rgb(33, 191, 157);"/>
  <path d="M 171.247 71.237 L 101.033 96.828 C 99.441 97.408 97.817 96.047 98.111 94.377 C 98.247 93.603 98.788 92.96 99.526 92.69 L 169.74 67.101 C 171.332 66.523 172.954 67.887 172.659 69.556 C 172.522 70.327 171.985 70.968 171.247 71.237 Z" style="fill: rgb(33, 191, 157);"/>
  <path d="M 174.785 80.949 L 104.572 106.538 C 102.982 107.119 101.355 105.762 101.647 104.091 C 101.782 103.315 102.324 102.671 103.064 102.401 L 173.279 76.812 C 174.87 76.232 176.494 77.592 176.2 79.262 C 176.064 80.036 175.525 80.68 174.785 80.949 Z" style="fill: rgb(33, 191, 157);"/>
  <path d="M 178.325 90.659 L 108.112 116.248 C 106.518 116.83 104.897 115.469 105.19 113.8 C 105.326 113.023 105.866 112.38 106.604 112.112 L 176.817 86.524 C 178.41 85.943 180.035 87.303 179.739 88.972 C 179.603 89.748 179.065 90.39 178.325 90.659 Z" style="fill: rgb(33, 191, 157);"/>
</svg>