<?xml version="1.0" encoding="utf-8"?>
<svg viewBox="0 0 500 500" xmlns="http://www.w3.org/2000/svg">
  <path d="M 288.182 190.083 C 269.472 190.083 259.323 187.796 255.778 182.916 C 252.651 178.61 254.748 172.927 257.176 166.348 C 258.92 161.62 260.898 156.261 260.898 150.956 C 260.898 125.156 273.979 112.074 299.779 112.074 C 312.616 112.074 326.399 118.893 336.648 130.315 C 345.967 140.698 350.608 153.126 349.385 164.411 C 348.38 173.665 344.073 179.751 335.827 183.566 L 335.345 183.788 L 335.208 183.275 C 334.496 180.618 333.291 178.12 331.657 175.909 C 331.497 179.38 330.622 182.78 329.087 185.896 L 328.998 186.074 L 328.808 186.13 C 319.477 188.787 308.402 189.506 299.797 189.837 C 295.609 190.001 291.737 190.082 288.182 190.083 Z" fill="#2f2e41" style=""/>
  <path d="M 293.283 226.03 C 290.192 216.943 279.083 213.589 271.48 219.446 L 209.934 256.243 L 190.675 209.251 C 196.604 200.554 190.895 188.702 180.399 187.915 C 169.902 187.13 162.493 198.002 167.06 207.484 C 168.745 210.982 171.839 213.6 175.569 214.682 C 176.756 228.233 183.352 288.8 206.302 286.598 C 225.591 284.747 273.495 252.844 288.374 241.782 C 293.258 238.154 295.242 231.789 293.283 226.03 Z" fill="#ffb6b6" style=""/>
  <path d="M 339.663 493.291 L 286.096 493.291 L 277.112 448.876 L 274.199 493.291 L 224.439 493.291 C 224.458 458.412 226.275 423.557 229.883 388.865 L 230.5 386.764 L 231.474 383.404 L 232.09 381.294 L 242.387 345.935 L 243.201 343.128 L 305.206 343.128 C 308.772 346.48 312.064 350.115 315.046 353.997 C 316.056 355.284 317.111 356.678 318.192 358.179 C 318.944 359.243 319.721 360.361 320.498 361.531 C 327.407 371.818 332.572 383.173 335.784 395.139 L 335.784 395.149 C 336.328 397.195 336.811 399.291 337.231 401.432 L 337.231 401.441 C 337.607 403.344 337.937 405.275 338.197 407.251 C 338.392 408.689 338.562 410.147 338.688 411.622 C 339.433 419.793 339.172 428.024 337.909 436.13 L 339.663 493.291 Z" fill="#2f2e41" style=""/>
  <path d="M 279.133 197.266 L 308.644 195.744 L 322.351 217.403 C 322.351 217.403 348.14 221.715 346.352 252.105 C 344.564 282.496 314.975 309.163 314.975 309.163 L 316.239 324.988 L 314.042 331.266 L 314.324 334.79 L 317.321 338.523 L 317.63 342.383 L 314.975 348.49 L 318.585 354.339 L 242.669 346.984 L 239.894 336.872 L 243.943 331.441 L 241.681 324.358 L 245.081 317.545 L 246.855 295.905 C 246.855 295.905 227.455 266.76 249.726 244.808 L 258.663 229.613 L 268.665 217.41 L 279.133 197.266 Z" style="fill: rgb(33, 191, 157);"/>
  <circle cx="293.804" cy="159.88" r="31.27" fill="#ffb6b6" style=""/>
  <path d="M 289.617 157.984 C 286.922 157.984 284.23 157.908 281.537 157.756 L 281.057 157.729 L 281.121 157.253 C 281.517 154.267 281.294 151.233 280.465 148.339 C 279.057 151.635 276.963 154.592 274.321 157.014 L 274.173 157.151 L 273.971 157.13 C 266.661 156.33 259.417 155.009 252.296 153.177 L 252.023 153.107 L 251.968 152.831 C 251.436 150.219 251.161 147.56 251.146 144.895 C 251.146 136.568 254.165 129.56 259.647 125.162 C 265.614 120.373 274.167 118.901 283.739 121.012 L 314.349 121.012 C 321.354 121.021 327.033 126.698 327.042 133.705 L 327.042 153.089 L 326.707 153.175 C 314.6 156.357 302.135 157.973 289.617 157.984 Z" fill="#2f2e41" style=""/>
  <path d="M 76.249 123.201 C 73.396 124.246 71.926 127.403 72.963 130.257 L 105.984 220.864 C 107.027 223.717 110.183 225.186 113.038 224.15 L 241.198 177.442 C 244.051 176.399 245.521 173.243 244.484 170.388 L 211.464 79.782 C 210.42 76.929 207.264 75.458 204.409 76.495 L 76.249 123.201 Z" fill="#ccc" style=""/>
  <path d="M 193.5 189.831 L 115.053 218.42 C 111.979 219.536 108.583 217.954 107.461 214.884 L 77.511 132.704 C 76.395 129.632 77.977 126.235 81.047 125.111 L 201.965 81.044 C 205.037 79.927 208.435 81.51 209.558 84.581 L 224.028 124.289 C 233.663 150.816 220.005 180.137 193.5 189.831 Z" fill="#fff" style=""/>
  <path d="M 137.053 130.463 L 118.412 137.258 C 117.041 137.757 115.644 136.586 115.896 135.149 C 116.014 134.483 116.479 133.928 117.113 133.696 L 135.755 126.902 C 137.126 126.404 138.524 127.575 138.271 129.011 C 138.153 129.678 137.69 130.231 137.053 130.463 Z" style="fill: rgb(33, 191, 157);"/>
  <path d="M 181.495 122.515 L 121.066 144.538 C 119.695 145.038 118.296 143.87 118.548 142.433 C 118.664 141.764 119.129 141.209 119.767 140.978 L 180.197 118.954 C 181.568 118.455 182.965 119.627 182.713 121.063 C 182.595 121.729 182.132 122.283 181.495 122.515 Z" style="fill: rgb(33, 191, 157);"/>
  <path d="M 184.541 130.872 L 124.111 152.896 C 122.74 153.396 121.343 152.224 121.596 150.787 C 121.713 150.121 122.178 149.567 122.814 149.335 L 183.244 127.312 C 184.614 126.814 186.01 127.988 185.756 129.424 C 185.638 130.088 185.176 130.64 184.541 130.872 Z" style="fill: rgb(33, 191, 157);"/>
  <path d="M 187.586 139.23 L 127.157 161.253 C 125.788 161.754 124.388 160.586 124.639 159.148 C 124.756 158.479 125.222 157.925 125.859 157.693 L 186.29 135.67 C 187.66 135.17 189.057 136.341 188.804 137.778 C 188.687 138.444 188.223 138.999 187.586 139.23 Z" style="fill: rgb(33, 191, 157);"/>
  <path d="M 190.633 147.587 L 130.203 169.611 C 128.832 170.111 127.436 168.94 127.688 167.503 C 127.805 166.835 128.27 166.282 128.905 166.051 L 189.336 144.028 C 190.706 143.528 192.104 144.699 191.85 146.135 C 191.733 146.803 191.27 147.356 190.633 147.587 Z" style="fill: rgb(33, 191, 157);"/>
  <path d="M 382.377 170.799 L 349.291 249.974 C 346.355 256.945 338.368 260.269 331.352 257.444 C 323.989 254.476 320.621 245.942 323.973 238.746 L 360.863 157.556 L 381.2 107.277 C 374.611 100.706 377.606 89.468 386.591 87.049 C 395.574 84.628 403.809 92.842 401.413 101.831 C 400.678 104.589 398.991 106.997 396.651 108.63 L 382.377 170.799 Z" fill="#ffb6b6" style=""/>
</svg>