<?xml version="1.0" encoding="utf-8"?>
<svg viewBox="154.979 119.215 198.457 348.527" xmlns="http://www.w3.org/2000/svg">
  <polygon points="301.113 393.811 312.21 389.022 334.81 432.393 318.432 439.46 301.113 393.811" fill="#ffb8b8" style="" transform="matrix(-1, 0, 0, -1, 635.923004, 828.481995)"/>
  <path d="M 310.745 460.363 L 332.601 450.933 L 332.602 450.932 C 340.295 447.612 344.005 438.272 340.893 430.068 L 340.71 429.585 L 304.927 445.026 L 310.745 460.363 Z" fill="#2f2e41" style="" transform="matrix(-1, 0, 0, -1, 646.921051, 889.947998)"/>
  <polygon points="187.836 398.741 199.808 398.742 205.503 447.988 187.834 447.986 187.836 398.741" fill="#ffb8b8" style="" transform="matrix(-1, 0, 0, -1, 393.337006, 846.729004)"/>
  <path d="M 169.954 460.362 L 193.53 460.363 C 201.827 460.363 208.555 453.189 208.555 444.34 L 208.555 443.819 L 169.954 443.817 L 169.954 460.362 Z" fill="#2f2e41" style="" transform="matrix(-1, 0, 0, -1, 378.508987, 904.179993)"/>
  <path d="M 317.504 212.893 C 312.747 212.893 308.086 214.961 305.512 216.336 C 304.162 217.048 303.197 218.393 302.904 219.971 L 277.672 355.649 L 212.208 225.027 C 211.621 223.851 210.632 222.962 209.446 222.542 C 195.348 217.518 187.658 225.422 185.006 229.053 C 183.905 230.572 183.695 232.62 184.461 234.357 L 214.779 304.599 L 233.11 371.323 L 251.64 420.156 L 252.045 420.11 L 314.006 413.154 L 321.54 368.962 L 329.128 221.82 C 329.196 220.646 328.882 219.486 328.241 218.53 C 325.776 214.847 321.743 212.73 317.504 212.893 Z" fill="#2f2e41" style="" transform="matrix(-1, 0, 0, -1, 513.141953, 633.040237)"/>
  <path d="M 240.941 130.19 C 230.5 130.19 217.581 136.706 202.408 149.652 L 202.15 149.873 L 212.876 240.124 L 213.377 240.144 C 228.721 240.736 241.207 236.581 251.545 227.411 L 251.633 227.313 L 260.016 215.82 L 260.02 215.609 L 261.202 145.015 L 261.171 144.916 C 258.922 138.368 253.948 133.305 247.71 131.213 C 245.514 130.52 243.232 130.174 240.941 130.19 Z" fill="#f50057" style="" transform="matrix(-1, 0, 0, -1, 463.35199, 370.388779)"/>
  <path d="M 266.183 129.598 C 263.773 129.604 261.667 131.332 261.044 133.815 L 246.317 193.268 L 236.989 139.102 C 236.48 136.116 233.849 134.09 231.031 134.515 L 190.41 140.561 C 187.11 141.051 185.043 144.625 186.115 147.99 L 206.661 212.578 L 202.062 250.42 C 200.059 266.907 211.73 281.682 227.305 282.376 L 227.718 282.392 L 247.256 232.139 L 250.362 245.394 L 255.225 273.928 L 255.952 273.479 C 269.948 264.874 278.275 248.663 277.546 231.452 L 276.312 201.231 L 287.229 139.527 C 287.768 136.458 285.88 133.502 283.004 132.914 L 267.171 129.698 C 266.846 129.632 266.515 129.598 266.183 129.598 Z" fill="#2f2e41" style="" transform="matrix(-1, 0, 0, -1, 473.15097, 411.990005)"/>
</svg>