<?xml version="1.0" encoding="utf-8"?>
<svg viewBox="171.108 -7.714 150.771 280.505" xmlns="http://www.w3.org/2000/svg">
  <path d="M 181.102 246.807 C 181.095 239.712 186.985 234.257 193.572 235.258 C 196.496 228.102 203.119 223.475 210.437 223.475 C 220.598 223.475 228.834 232.26 228.834 243.095 L 228.834 260.095 C 228.834 264.47 225.508 265.935 221.405 265.935 L 199.469 265.935 C 195.367 265.935 192.041 264.47 192.041 260.095 L 192.041 258.472 C 186.003 258.465 181.109 253.247 181.102 246.807 Z M 184.086 246.807 C 184.091 251.49 187.65 255.286 192.041 255.291 L 192.041 243.095 C 192.041 241.496 192.225 239.904 192.586 238.351 C 192.405 238.339 192.226 238.322 192.041 238.322 C 187.65 238.327 184.091 242.124 184.086 246.807 Z" fill="#f50057" style="" transform="matrix(-1, 0, 0, -1, 409.936005, 489.410004)"/>
  <path d="M 262.825 231.584 C 259.984 237.356 252.941 238.987 248.112 234.99 L 218.864 255.286 L 218.975 235.947 L 246.731 219.639 C 251.778 213.579 261.084 215.617 263.482 223.307 C 264.337 226.046 264.099 229.037 262.825 231.584 Z" fill="#ffb8b8" style="" transform="matrix(-1, 0, 0, -1, 482.851089, 471.383423)"/>
  <path d="M 280.763 125.888 C 279.597 125.888 278.479 126.381 277.655 127.259 L 240.412 166.979 C 237.993 169.542 236.989 173.258 237.759 176.801 C 240.946 191.665 248.716 227.181 251.995 235.924 C 254.389 242.499 258.82 248.004 264.552 251.523 L 264.698 251.601 L 276.489 249.278 L 277.528 210.493 L 263.284 177.943 L 293.569 147.455 C 295.221 145.803 295.419 143.081 294.026 141.177 L 284.235 127.702 C 283.462 126.64 282.299 125.981 281.039 125.896 C 280.946 125.89 280.853 125.888 280.763 125.888 Z" fill="#2f2e41" style="" transform="matrix(-1, 0, 0, -1, 532.457123, 377.488998)"/>
  <ellipse cx="-199.54" cy="226.758" rx="13.67" ry="2.083" fill="#2f2e41" style="" transform="matrix(-1, 0, 0, 1, 0, 0)"/>
</svg>