<?xml version="1.0" encoding="utf-8"?>
<svg viewBox="93.268 100.281 355.54 160.589" xmlns="http://www.w3.org/2000/svg">
  <path d="M 156.412 206.078 C 149.302 206.474 144.252 213.632 145.867 221.028 L 111.48 244.158 L 130.726 253.453 L 160.43 230.061 C 168.903 227.317 171.413 215.82 164.946 209.368 C 162.646 207.069 159.56 205.88 156.412 206.078 Z" fill="#ffb8b8" style="" transform="matrix(-1, 0, 0, -1, 280.075539, 459.509705)"/>
  <path d="M 242.072 112.702 C 240.902 112.818 239.788 113.289 238.865 114.06 L 144.265 192.262 L 132.068 215.397 C 129.656 219.948 130.074 225.608 133.125 229.701 C 137.491 235.583 145.626 236.257 150.792 231.166 L 256.235 139.96 C 259.106 137.889 259.821 133.704 257.812 130.686 L 247.705 115.462 C 246.734 113.99 245.237 113.008 243.566 112.749 C 243.072 112.67 242.571 112.655 242.072 112.702 Z" fill="#2f2e41" style="" transform="matrix(-1, 0, 0, -1, 389.464127, 347.262787)"/>
</svg>