<?xml version="1.0" encoding="utf-8"?>
<svg viewBox="416.55 44.881 83.45 77.84" xmlns="http://www.w3.org/2000/svg">
  <path d="M 267.143 57.169 L 210.507 57.169 C 208.081 57.172 206.116 59.268 206.113 61.855 L 206.113 87.89 C 206.113 114.745 233.372 131.531 255.18 118.103 C 265.302 111.872 271.536 100.353 271.536 87.89 L 271.536 61.855 C 271.533 59.268 269.568 57.172 267.143 57.169 Z" fill="#2f2e41" style="" transform="matrix(-1, 0, 0, -1, 700.191764, 171.231888)"/>
  <circle cx="214.683" cy="84.357" r="24.561" fill="#ffb8b8" style="" transform="matrix(-0.976471, 0, 0, 1.041393, 662.926108, 0.240588)"/>
  <path d="M 255.01 66.593 L 220.379 66.593 L 220.024 71.896 L 218.249 66.593 L 212.916 66.593 L 212.211 77.104 L 208.693 66.593 L 198.374 66.593 L 198.374 67.114 C 198.392 82.349 209.967 94.693 224.252 94.711 L 229.134 94.711 C 243.419 94.693 254.995 82.349 255.01 67.114 L 255.01 66.593 Z" fill="#2f2e41" style="" transform="matrix(-1, 0, 0, -1, 675.926719, 152.537995)"/>
</svg>