<?xml version="1.0" encoding="utf-8"?>
<svg viewBox="0 0 500 500" xmlns="http://www.w3.org/2000/svg">
  <path d="M 267.143 57.169 L 210.507 57.169 C 208.081 57.172 206.116 59.268 206.113 61.855 L 206.113 87.89 C 206.113 114.745 233.372 131.531 255.18 118.103 C 265.302 111.872 271.536 100.353 271.536 87.89 L 271.536 61.855 C 271.533 59.268 269.568 57.172 267.143 57.169 Z" fill="#2f2e41" style="" transform="matrix(-1, 0, 0, -1, 477.649017, 179.997887)"/>
  <path d="M 151.205 218.059 C 145.102 218.399 140.768 224.542 142.154 230.891 L 112.64 250.743 L 129.159 258.72 L 154.653 238.644 C 161.925 236.289 164.08 226.421 158.53 220.883 C 156.555 218.91 153.907 217.89 151.205 218.059 Z" fill="#ffb8b8" style="" transform="matrix(-1, 0, 0, -1, 274.301712, 476.76091)"/>
  <path d="M 224.726 137.914 C 223.722 138.014 222.766 138.418 221.973 139.08 L 140.779 206.2 L 130.31 226.056 C 128.24 229.963 128.599 234.82 131.218 238.333 C 134.965 243.382 141.947 243.96 146.381 239.591 L 236.882 161.309 C 239.346 159.532 239.959 155.94 238.236 153.35 L 229.56 140.283 C 228.727 139.02 227.443 138.177 226.008 137.955 C 225.584 137.887 225.154 137.874 224.726 137.914 Z" fill="#2f2e41" style="" transform="matrix(-1, 0, 0, -1, 368.188568, 380.418716)"/>
  <polygon points="301.113 393.811 312.21 389.022 334.81 432.393 318.432 439.46 301.113 393.811" fill="#ffb8b8" style="" transform="matrix(-1, 0, 0, -1, 635.923004, 828.481995)"/>
  <path d="M 310.745 460.363 L 332.601 450.933 L 332.602 450.932 C 340.295 447.612 344.005 438.272 340.893 430.068 L 340.71 429.585 L 304.927 445.026 L 310.745 460.363 Z" fill="#2f2e41" style="" transform="matrix(-1, 0, 0, -1, 646.921051, 889.947998)"/>
  <polygon points="187.836 398.741 199.808 398.742 205.503 447.988 187.834 447.986 187.836 398.741" fill="#ffb8b8" style="" transform="matrix(-1, 0, 0, -1, 393.337006, 846.729004)"/>
  <path d="M 169.954 460.362 L 193.53 460.363 C 201.827 460.363 208.555 453.189 208.555 444.34 L 208.555 443.819 L 169.954 443.817 L 169.954 460.362 Z" fill="#2f2e41" style="" transform="matrix(-1, 0, 0, -1, 378.508987, 904.179993)"/>
  <path d="M 317.504 212.893 C 312.747 212.893 308.086 214.961 305.512 216.336 C 304.162 217.048 303.197 218.393 302.904 219.971 L 277.672 355.649 L 212.208 225.027 C 211.621 223.851 210.632 222.962 209.446 222.542 C 195.348 217.518 187.658 225.422 185.006 229.053 C 183.905 230.572 183.695 232.62 184.461 234.357 L 214.779 304.599 L 233.11 371.323 L 251.64 420.156 L 252.045 420.11 L 314.006 413.154 L 321.54 368.962 L 329.128 221.82 C 329.196 220.646 328.882 219.486 328.241 218.53 C 325.776 214.847 321.743 212.73 317.504 212.893 Z" fill="#2f2e41" style="" transform="matrix(-1, 0, 0, -1, 513.141953, 633.040237)"/>
  <circle cx="214.683" cy="84.357" r="24.561" fill="#ffb8b8" style="" transform="matrix(-0.976471, 0, 0, 1.041393, 440.383362, 9.006595)"/>
  <path d="M 240.941 130.19 C 230.5 130.19 217.581 136.706 202.408 149.652 L 202.15 149.873 L 212.876 240.124 L 213.377 240.144 C 228.721 240.736 241.207 236.581 251.545 227.411 L 251.633 227.313 L 260.016 215.82 L 260.02 215.609 L 261.202 145.015 L 261.171 144.916 C 258.922 138.368 253.948 133.305 247.71 131.213 C 245.514 130.52 243.232 130.174 240.941 130.19 Z" fill="#f50057" style="" transform="matrix(-1, 0, 0, -1, 463.35199, 370.388779)"/>
  <path d="M 266.183 129.598 C 263.773 129.604 261.667 131.332 261.044 133.815 L 246.317 193.268 L 236.989 139.102 C 236.48 136.116 233.849 134.09 231.031 134.515 L 190.41 140.561 C 187.11 141.051 185.043 144.625 186.115 147.99 L 206.661 212.578 L 202.062 250.42 C 200.059 266.907 211.73 281.682 227.305 282.376 L 227.718 282.392 L 247.256 232.139 L 250.362 245.394 L 255.225 273.928 L 255.952 273.479 C 269.948 264.874 278.275 248.663 277.546 231.452 L 276.312 201.231 L 287.229 139.527 C 287.768 136.458 285.88 133.502 283.004 132.914 L 267.171 129.698 C 266.846 129.632 266.515 129.598 266.183 129.598 Z" fill="#2f2e41" style="" transform="matrix(-1, 0, 0, -1, 473.15097, 411.990005)"/>
  <path d="M 255.01 66.593 L 220.379 66.593 L 220.024 71.896 L 218.249 66.593 L 212.916 66.593 L 212.211 77.104 L 208.693 66.593 L 198.374 66.593 L 198.374 67.114 C 198.392 82.349 209.967 94.693 224.252 94.711 L 229.134 94.711 C 243.419 94.693 254.995 82.349 255.01 67.114 L 255.01 66.593 Z" fill="#2f2e41" style="" transform="matrix(-1, 0, 0, -1, 453.383987, 161.304001)"/>
  <path d="M 173.847 257.677 C 173.84 250.582 179.73 245.127 186.317 246.128 C 189.241 238.972 195.864 234.345 203.182 234.345 C 213.343 234.345 221.579 243.13 221.579 253.965 L 221.579 270.965 C 221.579 275.34 218.253 276.805 214.15 276.805 L 192.214 276.805 C 188.112 276.805 184.786 275.34 184.786 270.965 L 184.786 269.342 C 178.748 269.335 173.854 264.117 173.847 257.677 Z M 176.831 257.677 C 176.836 262.36 180.395 266.156 184.786 266.161 L 184.786 253.965 C 184.786 252.366 184.97 250.774 185.331 249.221 C 185.15 249.209 184.971 249.192 184.786 249.192 C 180.395 249.197 176.836 252.994 176.831 257.677 Z" fill="#f50057" style="" transform="matrix(-1, 0, 0, -1, 395.425995, 511.149994)"/>
  <path d="M 255.57 242.454 C 252.729 248.226 245.686 249.857 240.857 245.86 L 211.609 266.156 L 211.72 246.817 L 239.476 230.509 C 244.523 224.449 253.829 226.487 256.227 234.177 C 257.082 236.916 256.844 239.907 255.57 242.454 Z" fill="#ffb8b8" style="" transform="matrix(-1, 0, 0, -1, 468.34108, 493.123428)"/>
  <path d="M 273.508 136.758 C 272.342 136.758 271.224 137.251 270.4 138.129 L 233.157 177.849 C 230.738 180.412 229.734 184.128 230.504 187.671 C 233.691 202.535 241.461 238.051 244.74 246.794 C 247.134 253.369 251.565 258.874 257.297 262.393 L 257.443 262.471 L 269.234 260.148 L 270.273 221.363 L 256.029 188.813 L 286.314 158.325 C 287.966 156.673 288.164 153.951 286.771 152.047 L 276.98 138.572 C 276.207 137.51 275.044 136.851 273.784 136.766 C 273.691 136.76 273.598 136.758 273.508 136.758 Z" fill="#2f2e41" style="" transform="matrix(-1, 0, 0, -1, 517.947113, 399.229004)"/>
  <ellipse cx="-192.285" cy="237.628" rx="13.67" ry="2.083" fill="#2f2e41" style="" transform="matrix(-1, 0, 0, 1, 0, 0)"/>
</svg>