<svg id="visual" viewBox="0 0 900 600" width="900" height="600" xmlns="http://www.w3.org/2000/svg" xmlns:xlink="http://www.w3.org/1999/xlink" version="1.1"><path d="M773 600L755 600L755 514L818 514L818 429L800 429L800 343L809 343L809 257L737 257L737 171L755 171L755 86L728 86L728 0L900 0L900 86L900 86L900 171L900 171L900 257L900 257L900 343L900 343L900 429L900 429L900 514L900 514L900 600L900 600Z" fill="#dc2626"></path><path d="M674 600L530 600L530 514L656 514L656 429L584 429L584 343L710 343L710 257L647 257L647 171L656 171L656 86L629 86L629 0L729 0L729 86L756 86L756 171L738 171L738 257L810 257L810 343L801 343L801 429L819 429L819 514L756 514L756 600L774 600Z" fill="#ffb6a8"></path><path d="M287 600L314 600L314 514L350 514L350 429L296 429L296 343L377 343L377 257L278 257L278 171L395 171L395 86L260 86L260 0L630 0L630 86L657 86L657 171L648 171L648 257L711 257L711 343L585 343L585 429L657 429L657 514L531 514L531 600L675 600Z" fill="#ffffff"></path><path d="M89 600L80 600L80 514L98 514L98 429L143 429L143 343L98 343L98 257L116 257L116 171L62 171L62 86L107 86L107 0L261 0L261 86L396 86L396 171L279 171L279 257L378 257L378 343L297 343L297 429L351 429L351 514L315 514L315 600L288 600Z" fill="#ffb6a8"></path><path d="M0 600L0 600L0 514L0 514L0 429L0 429L0 343L0 343L0 257L0 257L0 171L0 171L0 86L0 86L0 0L108 0L108 86L63 86L63 171L117 171L117 257L99 257L99 343L144 343L144 429L99 429L99 514L81 514L81 600L90 600Z" fill="#dc2626"></path></svg>