<svg id="visual" viewBox="0 0 900 600" 
width="900" height="600" xmlns="http://www.w3.org/2000/svg" 
xmlns:xlink="http://www.w3.org/1999/xlink" version="1.1"><rect x="0" y="0" width="900" height="600" fill="#ff0000"></rect><path d="M230 600L229 600L229 540L216 540L216 480L306 480L306 420L258 420L258 360L250 360L250 300L273 300L273 240L296 240L296 180L205 180L205 120L189 120L189 60L228 60L228 0L900 0L900 60L900 60L900 120L900 120L900 180L900 180L900 240L900 240L900 300L900 300L900 360L900 360L900 420L900 420L900 480L900 480L900 540L900 540L900 600L900 600Z" fill="#ffffff"></path><path d="M395 600L355 600L355 540L444 540L444 480L482 480L482 420L408 420L408 360L373 360L373 300L399 300L399 240L483 240L483 180L421 180L421 120L347 120L347 60L434 60L434 0L900 0L900 60L900 60L900 120L900 120L900 180L900 180L900 240L900 240L900 300L900 300L900 360L900 360L900 420L900 420L900 480L900 480L900 540L900 540L900 600L900 600Z" fill="#b0b0b0"></path><path d="M527 600L517 600L517 540L586 540L586 480L509 480L509 420L578 420L578 360L549 360L549 300L622 300L622 240L529 240L529 180L520 180L520 120L551 120L551 60L585 60L585 0L900 0L900 60L900 60L900 120L900 120L900 180L900 180L900 240L900 240L900 300L900 300L900 360L900 360L900 420L900 420L900 480L900 480L900 540L900 540L900 600L900 600Z" fill="#666666"></path><path d="M774 600L700 600L700 540L767 540L767 480L684 480L684 420L731 420L731 360L747 360L747 300L736 300L736 240L677 240L677 180L694 180L694 120L715 120L715 60L670 60L670 0L900 0L900 60L900 60L900 120L900 120L900 180L900 180L900 240L900 240L900 300L900 300L900 360L900 360L900 420L900 420L900 480L900 480L900 540L900 540L900 600L900 600Z" fill="#252525"></path></svg>