<?xml version="1.0" encoding="utf-8"?>
<svg version="1.1" id="Layer_1" x="0px" y="0px" viewBox="0 0 455 455" style="enable-background:new 0 0 455 455;" xmlns="http://www.w3.org/2000/svg">
  <g>
    <g>
      <path d="M 225.586 -15.954 C 99.847 -15.954 -102.899 -174.072 -75.309 222.435 C -54.224 525.46 -75.275 453.398 227.5 455 C 353.237 455.665 537.496 1007.469 539.874 221.757 C 540.983 -144.642 351.337 -15.954 225.586 -15.954 Z M 310.759 268.333 C 322.474 280.049 322.474 299.044 310.759 310.76 C 304.901 316.618 297.223 319.547 289.546 319.547 C 281.869 319.547 274.191 316.618 268.333 310.76 L 227.5 269.927 L 186.668 310.759 C 180.81 316.617 173.132 319.546 165.455 319.546 C 157.778 319.546 150.1 316.617 144.242 310.759 C 132.527 299.043 132.527 280.048 144.242 268.332 L 185.074 227.5 L 144.242 186.668 C 132.527 174.952 132.527 155.957 144.242 144.241 C 155.958 132.525 174.953 132.525 186.669 144.241 L 227.501 185.073 L 268.333 144.241 C 280.049 132.525 299.044 132.525 310.76 144.241 C 322.475 155.957 322.475 174.952 310.76 186.668 L 269.927 227.5 L 310.759 268.333 Z"/>
    </g>
  </g>
  <g/>
  <g/>
  <g/>
  <g/>
  <g/>
  <g/>
  <g/>
  <g/>
  <g/>
  <g/>
  <g/>
  <g/>
  <g/>
  <g/>
  <g/>
</svg>