<svg xmlns="http://www.w3.org/2000/svg" 
data-name="Layer 1" width="690.11366" 
height="477.61186" viewBox="-20 0 610.11366 477.61186" 
xmlns:xlink="http://www.w3.org/1999/xlink">
 
 
 <path d="M890.563,687.78085H857.37645l-.14258-.25879c-.42432-.76953-.834-1.585-1.2168-2.42285-3.41845-7.31836-4.86328-15.68848-6.13818-23.07325l-.96-5.5664a3.43688,3.43688,0,0,1,5.41016-3.36231q7.56517,5.50488,15.13623,10.999c1.91113,1.39062,4.09375,3,6.18408,4.73925.20166-.97949.4126-1.96191.62353-2.93066a3.43916,3.43916,0,0,1,6.28077-1.08594l3.88281,6.23828c2.832,4.55567,5.33154,9.04493,4.82226,13.88672a.756.756,0,0,1-.01318.17578,10.94679,10.94679,0,0,1-.56348,2.33106Z" transform="translate(-284.94317 -211.19407)" fill="#f0f0f0"/>
 <path d="M923.87237,688.49862l-315.3575.30731a1.19069,1.19069,0,0,1,0-2.38135l315.3575-.30731a1.19069,1.19069,0,0,1,0,2.38135Z" transform="translate(-294.94317 -211.19407)" fill="#cacaca"/>
 </svg>
