<svg xmlns="http://www.w3.org/2000/svg" 
data-name="Layer 1" width="650.11366" 
height="477.61186" viewBox="0 0 650.11366 477.61186" 
xmlns:xlink="http://www.w3.org/1999/xlink">

 <polygon points="450.676 463.637 437.92 463.636 431.851 414.433 450.679 414.434 450.676 463.637" fill="#ffb6b6"/>
 <path d="M725.27906,670.66458l-13.62-5.54-.39-.16-7.52,5.7a16.01266,16.01266,0,0,0-16.01,16.01v.52h41.13v-16.53Z" transform="translate(-274.94317 -211.19407)" fill="#2f2e41"/>
 <polygon points="558.496 452.952 546.314 456.737 525.916 411.551 543.896 405.965 558.496 452.952" fill="#ffb6b6"/>
 <path d="M831.87728,660.26845l-14.6505-1.24835-.41994-.03708-5.48956,7.67493A16.01269,16.01269,0,0,0,800.77987,686.698l.15431.49654,39.277-12.20625L835.30557,659.203Z" transform="translate(-274.94317 -211.19407)" fill="#2f2e41"/>
 <path d="M782.39948,422.78008l5.18807,14.75553v7.97628l-.723,8.77129,8.0301,29.25347,6.29922,64.50845,31.70078,95.49155-24.30708,7L746.52778,494.513,726.92613,652.3261l-22.22866-.593s-3.80284-9.19644-2.80284-14.19644,1,1,1-5-4.3351-3.3937-1.16755-8.19685,2.77323-9.00788,2.97039-11.90551-1.80284-119.89764-1.80284-123.89764-.69291-3.12391-.34645-7.062,4.74142-2.31915,3.54394-9.1286-1.59181-5.6191-1.39465-10.71427,2.95307-34.97005,2.95307-34.97005Z" transform="translate(-274.94317 -211.19407)" fill="#2f2e41"/>
 <path d="M699.20556,427.58018l44.56215-42.97482,12.35119-34.972-18.21837-7.922c-9.35775,8.964-19.47307,36.88414-19.47307,36.88414l-30.66508,39.013c-.239.08184-.47728.16874-.71265.27268a8.77545,8.77545,0,1,0,12.15583,9.699Z" transform="translate(-274.94317 -211.19407)" fill="#ffb8b8"/>
 <path d="M732.77418,345.61609l23.10872,7.33623.08711-.0145c8.601-1.44076,15.73808-15.48842,20.21041-27.01921a16.09129,16.09129,0,0,0-8.193-20.38362h0a16.12676,16.12676,0,0,0-16.89018,2.131l-11.86648,9.6963Z" transform="translate(-274.94317 -211.19407)" fill="#6c63ff"/>
 <path d="M786.32548,441.73565l.135-.17939c7.21-9.56235-2.6512-33.24234-4.142-36.67665l6.70395-1.98581-1.1685-12.76444-.56282-5.69175,5.21244-4.95.01755-.12634,3.58474-25.511,4.69041-16.88452a37.32239,37.32239,0,0,0-9.65629-36.43113l-9.58845-9.51991L770.064,273.03391l-19.26055-.49726-6.92606,12.30362a28.08226,28.08226,0,0,0-22.46071,28.10125l.65206,32.7546-6.911,40.58295-.19388,7.37174-6.78319,7.158,1.25407,7.2366-5.074,2.02112-2.48292,10.28305c-.94826,1.18639-7.20952,9.10084-7.26648,11.30721-.00855.33125.22768.65774.74323,1.02651,4.05284,2.89967,26.70525,9.1828,36.90026,5.40544,10.85957-4.02024,53.4206,3.53019,53.84939,3.607Z" transform="translate(-274.94317 -211.19407)" fill="#6c63ff"/>

 <path d="M735.14245,341.12219l25.695-19.09515,4.52613-16.31071a17.81557,17.81557,0,0,0-5.35827-18.02553h0a17.77346,17.77346,0,0,0-24.25389.78253c-9.66945,9.65146-20.698,23.11613-18.329,32.45288l.024.09464Z" transform="translate(-274.94317 -211.19407)" fill="#6c63ff"/>
 <circle cx="486.12469" cy="34.03549" r="22.84874" fill="#ffb8b8"/><path d="M776.10436,269.12528c-3.82175-1.79511-8.28547-.70422-12.50455-.53819s-9.331-1.4245-10.22623-5.55085c-.66191-3.05105,1.32763-6.39514.074-9.25439-1.36715-3.11808-5.47069-3.56184-8.76148-4.43489a20.197,20.197,0,0,1-14.58438-18.90622c-.22863,1.70365,2.68647,2.26321,3.644.83567s.298-3.4034-.75775-4.75988-2.48076-2.43979-3.27694-3.9632-.64134-3.78587.91341-4.519a12.69623,12.69623,0,0,0,8.0415,6.61488c-.70719-2.1482.29272-4.56332,1.90215-6.15223a18.41178,18.41178,0,0,1,5.81093-3.422c5.26689-2.28313,11.4166-4.55509,16.517-1.92089a9.87675,9.87675,0,0,1,5.10582,6.91138c9.43478.79777,19.12284,11.01793,18.58581,20.47114-.57813,10.17663-1,11-9.4716,28.125" transform="translate(-274.94317 -211.19407)" fill="#2f2e41"/>

 transform="translate(-274.94317 -211.19407)" fill="#cacaca"/></svg>
