<?xml version="1.0" encoding="utf-8"?>
<svg viewBox="0 0 500 500" xmlns="http://www.w3.org/2000/svg">
  <path d="M 231.676 444.415 L 231.174 433.122 C 231.122 433.094 231.069 433.067 231.016 433.04 C 225.635 430.215 219.466 435.328 221.186 441.158 C 222.803 446.643 223.889 452.556 226.851 457.358 C 230.394 463.006 236.314 466.737 242.939 467.496 L 249.777 471.683 C 251.676 461.097 248.844 450.211 242.028 441.891 C 240.115 439.604 237.923 437.567 235.501 435.827 C 233.864 440.146 231.676 444.415 231.676 444.415 Z" style="fill: rgb(122, 179, 139);"/>
  <path d="M 170.456 329.805 C 157.291 316.228 138.213 308.441 118.115 308.441 L 117.34 308.444 C 104.101 308.449 91.099 304.937 79.663 298.269 L 78.473 297.576 L 79.432 296.587 C 84.62 291.22 88.953 285.085 92.278 278.399 C 87.497 282.857 80.985 284.96 74.5 284.142 C 67.649 283.325 61.548 279.418 57.941 273.536 C 50.917 262.139 42.543 245.966 42.543 233.647 C 42.566 212.59 51.442 192.514 67.001 178.328 C 76.854 169.444 82.462 156.786 82.423 143.52 L 82.418 142.586 C 82.417 133.949 83.473 125.345 85.561 116.965 L 85.773 116.119 L 86.644 116.149 C 92.259 116.34 97.876 115.871 103.38 114.748 C 98.217 114.114 93.166 112.771 88.371 110.756 L 87.433 110.377 L 87.751 109.417 C 109.664 95.85 159.126 102.875 187.835 37.191 C 211.113 -16.07 293.25 84.471 293.25 142.586 C 293.25 148.516 287.381 156.352 291.775 160.272 C 339.265 202.641 306.497 229.847 296.166 257.224 C 293.714 263.719 299.03 270.851 299.03 277.877 C 299.03 279.07 299 280.301 298.939 281.535 L 298.848 283.435 L 297.264 282.38 C 294.132 280.329 291.228 277.947 288.603 275.277 C 294.119 287.971 293.586 302.481 287.153 314.737 C 282.176 324.13 277.362 330.855 272.842 334.724 C 242.79 360.441 197.903 358.284 170.456 329.805 Z" style="fill: rgb(122, 179, 139);"/>
  <path d="M 249.966 471.125 C 250.635 471.125 251.202 470.633 251.296 469.97 C 251.353 469.568 256.951 429.197 251.923 375.543 C 247.28 325.991 232.37 254.618 187.707 196.003 C 187.08 195.178 185.796 195.341 185.395 196.296 C 185.208 196.74 185.274 197.25 185.566 197.633 C 229.845 255.743 244.634 326.592 249.245 375.793 C 254.243 429.136 248.69 469.192 248.632 469.591 C 248.518 470.402 249.147 471.126 249.966 471.125 Z" fill="#3f3d56" style=""/>
  <path d="M 213.517 278.683 C 214.553 278.684 215.201 277.564 214.684 276.667 C 214.59 276.503 214.462 276.362 214.309 276.25 C 214.147 276.133 197.808 264.359 173.38 255.416 C 150.8 247.148 116.461 239.653 81.111 250.904 C 80.124 251.216 79.845 252.48 80.61 253.179 C 80.966 253.504 81.468 253.615 81.927 253.467 C 116.554 242.448 150.268 249.819 172.455 257.942 C 196.534 266.758 212.569 278.311 212.727 278.426 C 212.957 278.593 213.234 278.683 213.517 278.683 Z" fill="#3f3d56" style=""/>
  <path d="M 275.082 125.349 C 275.157 124.316 274.087 123.589 273.155 124.04 C 272.984 124.122 272.834 124.239 272.712 124.383 C 272.583 124.537 259.664 139.986 248.983 163.705 C 239.113 185.633 229.165 219.342 237.84 255.41 C 238.082 256.417 239.323 256.784 240.074 256.071 C 240.422 255.74 240.567 255.249 240.456 254.781 C 231.958 219.451 241.738 186.354 251.437 164.811 C 261.965 141.429 274.642 126.269 274.769 126.118 C 274.952 125.901 275.062 125.632 275.082 125.349 Z" fill="#3f3d56" style=""/>
  <path d="M 214.847 472.073 L 360.547 472.271 C 361.136 472.271 361.503 471.633 361.209 471.123 C 361.073 470.886 360.82 470.74 360.547 470.74 L 214.847 470.543 C 214.258 470.543 213.889 471.18 214.184 471.69 C 214.321 471.927 214.574 472.073 214.847 472.073 Z" fill="#cacaca" style=""/>
  <ellipse cx="636.313" cy="201.043" rx="3.069" ry="2.135" transform="matrix(0.007562, -0.999971, 0.999971, 0.007562, 57.085092, 722.001535)" fill="#e6e6e6" style=""/>
  <ellipse cx="685.412" cy="224.123" rx="3.069" ry="2.135" transform="matrix(0.007562, -0.999971, 0.999971, 0.007562, 65.183328, 785.755587)" fill="#e6e6e6" style=""/>
</svg>