<?xml version="1.0" encoding="utf-8"?>
<svg viewBox="299.524 205.073 92.481 294.927" xmlns="http://www.w3.org/2000/svg">
  <polygon points="349.949 471.805 356.311 471.804 359.338 447.265 349.947 447.265 349.949 471.805" fill="#ffb6b6" style=""/>
  <path d="M 349.725 478.441 L 369.289 478.44 L 369.289 478.192 C 369.289 473.988 365.88 470.578 361.674 470.578 L 358.1 467.867 L 351.433 470.579 L 349.725 470.579 L 349.725 478.441 Z" fill="#2f2e41" style=""/>
  <polygon points="324.889 471.805 331.251 471.804 334.278 447.265 324.888 447.265 324.889 471.805" fill="#ffb6b6" style=""/>
  <path d="M 324.665 478.441 L 344.229 478.44 L 344.229 478.192 C 344.229 473.988 340.821 470.578 336.615 470.578 L 333.04 467.867 L 326.373 470.579 L 324.665 470.579 L 324.665 478.441 Z" fill="#2f2e41" style=""/>
  <path d="M 371.843 318.11 L 376.34 333.532 L 371.041 398.844 C 371.041 398.844 373.77 402.928 371.843 402.928 C 369.915 402.928 367.443 403.834 369 406.272 C 370.557 408.711 365.235 417.466 365.235 417.466 L 357.706 463.971 L 348.113 463.829 C 348.113 463.829 343.237 461.112 345.974 458.365 C 348.711 455.617 350.637 455.617 348.067 453.047 C 345.497 450.477 345.497 451.252 345.497 449.258 C 345.497 447.264 342.922 422.903 349.029 413.558 L 347.189 375.458 L 342.855 412.829 L 333.931 462.686 L 324.69 462.61 C 324.69 462.61 320.422 458.495 320.43 455.45 C 320.438 452.405 323.067 452.152 321.109 450.35 C 319.152 448.549 319.152 420.878 324.936 405.498 C 324.936 405.498 328.207 396.905 324.928 393.959 C 321.65 391.015 324.925 387.646 324.925 387.646 C 324.925 387.646 330.117 385.769 324.919 380.36 C 319.722 374.951 324.891 336.699 324.891 336.699 C 324.891 336.699 319.21 321.257 324.964 315.186 C 330.719 309.115 371.843 318.11 371.843 318.11 Z" fill="#2f2e41" style=""/>
  <path d="M 373.054 320.339 C 380.974 332.623 341.164 348.212 325.888 341.954 C 323.213 340.858 314.011 337.238 320.301 332.22 C 326.59 327.201 319.572 326.494 319.406 323.228 C 319.294 321.044 320.986 316.252 319.222 316.457 C 317.457 316.663 315.392 313.642 319.235 312.342 C 323.077 311.043 319.276 309.857 319.31 308.624 C 319.677 295.159 315.221 280.356 315.221 280.356 C 315.221 280.356 307.538 248.988 312.282 249.664 C 313.649 243.01 318.634 237.684 325.184 235.88 L 335.807 232.955 L 337.693 225.471 L 352.651 225.471 L 355.257 230.389 L 366.629 235.521 C 366.636 234.934 376.97 252.403 372.82 254.977 C 377.956 260.872 373.054 320.339 373.054 320.339 Z" style="fill: rgb(204, 130, 10);"/>
</svg>