<?xml version="1.0" encoding="utf-8"?>
<svg viewBox="0 0 500 500" xmlns="http://www.w3.org/2000/svg">
  <path d="M 273.262 194.709 C 274.397 203.866 280.742 211.415 289.968 211.415 C 299.195 211.415 306.675 203.935 306.675 194.709 C 306.675 185.482 299.156 178.855 289.968 178.002 C 280.22 177.097 271.805 182.952 273.262 194.709 Z" style="" fill="#2f2e41"/>
  <polygon points="297.706 463.768 304.068 463.767 307.095 439.228 297.704 439.228 297.706 463.768" style="" fill="#ffb6b6"/>
  <path d="M 297.482 470.404 L 317.046 470.403 L 317.046 470.155 C 317.046 465.951 313.637 462.541 309.431 462.541 L 305.857 459.83 L 299.19 462.542 L 297.482 462.542 L 297.482 470.404 Z" style="" fill="#2f2e41"/>
  <polygon points="272.646 463.768 279.008 463.767 282.035 439.228 272.645 439.228 272.646 463.768" style="" fill="#ffb6b6"/>
  <path d="M 272.422 470.404 L 291.986 470.403 L 291.986 470.155 C 291.986 465.951 288.578 462.541 284.372 462.541 L 280.797 459.83 L 274.13 462.542 L 272.422 462.542 L 272.422 470.404 Z" style="" fill="#2f2e41"/>
  <path d="M 319.6 310.073 L 324.097 325.495 L 318.798 390.807 C 318.798 390.807 321.527 394.891 319.6 394.891 C 317.672 394.891 315.2 395.797 316.757 398.235 C 318.314 400.674 312.992 409.429 312.992 409.429 L 305.463 455.934 L 295.87 455.792 C 295.87 455.792 290.994 453.075 293.731 450.328 C 296.468 447.58 298.394 447.58 295.824 445.01 C 293.254 442.44 293.254 443.215 293.254 441.221 C 293.254 439.227 290.679 414.866 296.786 405.521 L 294.946 367.421 L 290.612 404.792 L 281.688 454.649 L 272.447 454.573 C 272.447 454.573 268.179 450.458 268.187 447.413 C 268.195 444.368 270.824 444.115 268.866 442.313 C 266.909 440.512 266.909 412.841 272.693 397.461 C 272.693 397.461 275.964 388.868 272.685 385.922 C 269.407 382.978 272.682 379.609 272.682 379.609 C 272.682 379.609 277.874 377.732 272.676 372.323 C 267.479 366.914 272.648 328.662 272.648 328.662 C 272.648 328.662 266.967 313.22 272.721 307.149 C 278.476 301.078 319.6 310.073 319.6 310.073 Z" style="" fill="#2f2e41"/>
  <path d="M 134.812 327.304 L 142.837 307.91 L 149.16 311.423 L 145.341 331.151 C 146.923 336.323 142.314 341.269 137.044 340.053 C 131.773 338.838 129.795 332.372 133.483 328.416 C 133.878 327.992 134.325 327.618 134.812 327.304 Z" style="" fill="#ffb6b6"/>
  <path d="M 320.811 311.655 C 328.731 323.939 288.921 339.528 273.645 333.27 C 270.97 332.174 261.768 328.554 268.058 323.536 C 274.347 318.517 267.329 317.81 267.163 314.544 C 267.051 312.36 268.743 307.568 266.979 307.773 C 265.214 307.979 263.149 304.958 266.992 303.658 C 270.834 302.359 267.033 301.173 267.067 299.94 C 267.434 286.475 262.978 271.672 262.978 271.672 C 262.978 271.672 255.295 240.304 260.039 240.98 C 261.406 234.326 266.391 229 272.941 227.196 L 283.564 224.271 L 285.45 216.787 L 300.408 216.787 L 303.014 221.705 L 314.386 226.837 C 314.393 226.25 324.727 243.719 320.577 246.293 C 325.713 252.188 320.811 311.655 320.811 311.655 Z" style="fill: rgb(204, 130, 10);"/>
  <circle cx="291.815" cy="197.593" r="14.814" style="" fill="#ffb6b6"/>
  <path d="M 276.474 199.206 C 276.944 202.426 279.688 206.917 279.045 206.917 C 278.402 206.917 273.834 193.647 278.402 192.781 C 281.716 192.154 282.457 192.704 285.554 191.361 L 285.117 191.772 C 287.166 193.264 290.019 192.345 292.358 191.374 C 294.704 190.41 297.55 189.492 299.606 190.976 C 300.898 191.908 301.444 193.526 302.248 194.902 C 303.05 196.283 304.536 197.588 306.064 197.164 C 307.292 196.823 307.998 195.447 307.992 194.176 C 307.985 192.903 306.329 191.693 306.886 190.552 C 308.54 187.169 307.054 184.863 303.45 183.271 C 302.138 183.072 300.828 182.869 299.517 182.66 C 300.204 181.709 301.036 180.873 301.984 180.181 C 301.584 179.154 300.892 178.267 299.992 177.63 C 298.944 177.006 297.647 177.052 296.432 177.116 C 293.721 177.257 291.011 177.398 288.304 177.54 C 286.3 177.642 284.224 177.765 282.431 178.683 C 280.195 179.833 278.73 182.076 277.663 184.357 C 275.273 189.485 275.652 193.61 276.474 199.206 Z" style="" fill="#2f2e41"/>
  <ellipse cx="636.313" cy="201.043" rx="3.069" ry="2.135" transform="matrix(0.007562, -0.999971, 0.999971, 0.007562, 57.085092, 722.001535)" style="" fill="#e6e6e6"/>
  <ellipse cx="685.412" cy="224.123" rx="3.069" ry="2.135" transform="matrix(0.007562, -0.999971, 0.999971, 0.007562, 65.183328, 785.755587)" style="" fill="#e6e6e6"/>
  <path d="M 372.065 265.686 C 369.968 262.656 368.528 259.275 368.528 259.275 C 370.669 256.253 369.309 240.331 378.079 239.298 C 378.079 239.298 401.715 217.794 400.56 216.115 C 399.406 214.436 403.071 210.504 403.071 210.504 C 403.071 210.504 406.199 209.48 404.433 208.933 C 402.668 208.387 406.005 207.123 406.005 207.123 C 406.005 207.123 409.096 206.31 407.639 205.242 C 406.181 204.172 412.503 203.469 412.503 203.469 L 420.707 210.162 L 419.049 212.974 C 419.049 212.974 420.06 216.803 418.74 215.404 C 417.421 214.007 417.173 218.063 417.173 218.063 C 417.173 218.063 416.499 222.505 412.503 223.842 C 408.508 225.181 405.478 237.893 405.478 237.893 C 396.055 250.145 376.318 266.703 372.065 265.686 Z" style="fill: rgb(204, 130, 10);"/>
  <path d="M 423.798 196.935 L 411.587 214.006 L 406.224 209.153 L 414.414 190.803 C 414.044 185.406 419.655 181.634 424.513 184.012 C 429.37 186.389 429.831 193.135 425.344 196.153 C 424.862 196.476 424.343 196.739 423.798 196.935 Z" style="" fill="#ffb6b6"/>
  <path d="M 155.248 228.652 C 156.615 221.998 166.619 247.038 164.963 248.563 C 162.836 250.521 154.358 300.315 154.358 300.315 C 154.358 300.315 154.496 308.548 152.122 306.032 C 149.748 303.516 149.92 311.658 149.92 311.658 C 149.92 311.658 146.391 314.122 148.421 315.493 C 150.451 316.864 146.235 321.079 146.235 321.079 L 136.4 320.377 C 136.4 320.377 136.554 313.07 138.234 311.454 C 139.913 309.839 139.087 307.296 139.087 307.296 C 139.087 307.296 143.46 303.425 140.529 300.284 C 136.759 296.241 150.504 227.976 155.248 228.652 Z" style="fill: rgb(204, 130, 10);"/>
</svg>