<?xml version="1.0" encoding="utf-8"?>
<svg viewBox="281.839 175.315 156.451 145.162" xmlns="http://www.w3.org/2000/svg">
  <path d="M 426.274 197.925 L 414.063 214.996 L 408.7 210.143 L 416.89 191.793 C 416.52 186.396 422.131 182.624 426.989 185.002 C 431.846 187.379 432.307 194.125 427.82 197.143 C 427.338 197.466 426.819 197.729 426.274 197.925 Z" style="" fill="#ffb6b6"/>
  <path d="M 372.065 265.686 C 369.968 262.656 368.528 259.275 368.528 259.275 C 370.669 256.253 369.309 240.331 378.079 239.298 C 378.079 239.298 401.715 217.794 400.56 216.115 C 399.406 214.436 403.071 210.504 403.071 210.504 C 403.071 210.504 406.199 209.48 404.433 208.933 C 402.668 208.387 406.005 207.123 406.005 207.123 C 406.005 207.123 409.096 206.31 407.639 205.242 C 406.181 204.172 412.503 203.469 412.503 203.469 L 420.707 210.162 L 419.049 212.974 C 419.049 212.974 420.06 216.803 418.74 215.404 C 417.421 214.007 417.173 218.063 417.173 218.063 C 417.173 218.063 416.499 222.505 412.503 223.842 C 408.508 225.181 405.478 237.893 405.478 237.893 C 396.055 250.145 376.318 266.703 372.065 265.686 Z" style="fill: rgb(204, 130, 10);"/>
</svg>