<?xml version="1.0" encoding="utf-8"?>
<svg viewBox="127.116 118.039 57.32 225.938" xmlns="http://www.w3.org/2000/svg">
  <path d="M 134.812 327.304 L 142.837 307.91 L 149.16 311.423 L 145.341 331.151 C 146.923 336.323 142.314 341.269 137.044 340.053 C 131.773 338.838 129.795 332.372 133.483 328.416 C 133.878 327.992 134.325 327.618 134.812 327.304 Z" style="" fill="#ffb6b6"/>
  <path d="M 155.248 228.652 C 156.615 221.998 166.619 247.038 164.963 248.563 C 162.836 250.521 154.358 300.315 154.358 300.315 C 154.358 300.315 154.496 308.548 152.122 306.032 C 149.748 303.516 149.92 311.658 149.92 311.658 C 149.92 311.658 146.391 314.122 148.421 315.493 C 150.451 316.864 146.235 321.079 146.235 321.079 L 136.4 320.377 C 136.4 320.377 136.554 313.07 138.234 311.454 C 139.913 309.839 139.087 307.296 139.087 307.296 C 139.087 307.296 143.46 303.425 140.529 300.284 C 136.759 296.241 150.504 227.976 155.248 228.652 Z" style="fill: rgb(204, 130, 10);"/>
</svg>