<?xml version="1.0" encoding="utf-8"?>
<svg viewBox="270.106 172.035 45.571 46.872" xmlns="http://www.w3.org/2000/svg">
  <path d="M 273.262 194.709 C 274.397 203.866 280.742 211.415 289.968 211.415 C 299.195 211.415 306.675 203.935 306.675 194.709 C 306.675 185.482 299.156 178.855 289.968 178.002 C 280.22 177.097 271.805 182.952 273.262 194.709 Z" style="" fill="#2f2e41"/>
  <circle cx="291.815" cy="197.593" r="14.814" style="" fill="#ffb6b6"/>
  <path d="M 276.474 199.206 C 276.944 202.426 279.688 206.917 279.045 206.917 C 278.402 206.917 273.834 193.647 278.402 192.781 C 281.716 192.154 282.457 192.704 285.554 191.361 L 285.117 191.772 C 287.166 193.264 290.019 192.345 292.358 191.374 C 294.704 190.41 297.55 189.492 299.606 190.976 C 300.898 191.908 301.444 193.526 302.248 194.902 C 303.05 196.283 304.536 197.588 306.064 197.164 C 307.292 196.823 307.998 195.447 307.992 194.176 C 307.985 192.903 306.329 191.693 306.886 190.552 C 308.54 187.169 307.054 184.863 303.45 183.271 C 302.138 183.072 300.828 182.869 299.517 182.66 C 300.204 181.709 301.036 180.873 301.984 180.181 C 301.584 179.154 300.892 178.267 299.992 177.63 C 298.944 177.006 297.647 177.052 296.432 177.116 C 293.721 177.257 291.011 177.398 288.304 177.54 C 286.3 177.642 284.224 177.765 282.431 178.683 C 280.195 179.833 278.73 182.076 277.663 184.357 C 275.273 189.485 275.652 193.61 276.474 199.206 Z" style="" fill="#2f2e41"/>
</svg>