<?xml version="1.0" encoding="utf-8"?>
<svg viewBox="0 0 500 500" xmlns="http://www.w3.org/2000/svg">
  <polygon points="199.087 234.674 225.933 291.865 122.664 281.406 144.221 226.503 199.087 234.674" fill="#ffb6b6" style=""/>
  <path d="M 256.483 395.624 C 240.496 409.923 228.416 413.103 203.508 403.096 L 188.979 343.485 C 188.979 343.485 187.233 395.433 186.72 403.021 C 177.724 426.923 166.361 420.921 157.396 419.136 C 140.867 415.844 124.701 422.627 112.158 355.965 C 109.002 337.156 109.922 282.205 127.367 265.32 L 221.261 282.525 C 221.261 282.525 236.326 293.793 232.296 297.829 C 228.266 301.859 227.642 301.235 230.29 303.883 C 232.938 306.531 238.659 310.071 238.717 312.387 C 238.741 313.291 248.668 375.969 256.483 395.624 Z" fill="#2f2e41" style=""/>
  <path d="M 182.691 124.159 L 160.006 125.741 L 145.344 139.909 L 140.209 140.826 C 130.656 142.529 123.888 151.111 124.459 160.799 C 125.515 178.694 127.88 205.432 132.823 214.107 C 140.487 227.558 146.818 223.338 140.487 227.558 C 134.156 231.779 129.906 228.462 132.823 235.132 C 135.739 241.802 128.881 250.357 128.881 250.357 L 126.151 253.087 L 129.046 254.274 L 221.311 266.28 C 221.311 266.28 213.334 230.41 218.323 221.598 C 223.312 212.787 235.409 186.151 224.613 175.729 L 214.056 138.581 L 195.898 133.226 L 182.691 124.159 Z" fill="#f12a72" style=""/>
</svg>