<?xml version="1.0" encoding="utf-8"?>
<svg viewBox="109.794 -226.669 360.052 687.398" xmlns="http://www.w3.org/2000/svg">
  <path d="M 128.871 318.396 C 149.871 232.756 191.483 159.145 260.398 101.471 C 265.951 92.336 277.852 89.42 286.999 94.952 L 450.827 194.283 C 459.962 199.837 462.879 211.738 457.346 220.886 C 431.042 308.763 391.645 385.016 325.819 437.811 C 320.265 446.946 308.366 449.863 299.218 444.33 L 135.392 344.998 C 126.255 339.445 123.34 327.545 128.871 318.396 Z" fill="#f2f2f2" style=""/>
  <path d="M 157.99 347.26 C 148.855 341.705 145.938 329.806 151.472 320.659 C 172.473 235.014 214.084 161.407 282.997 103.732 C 284.763 100.86 287.256 98.504 290.223 96.906 L 286.999 94.952 C 277.852 89.42 265.951 92.336 260.398 101.471 C 191.483 159.145 149.871 232.754 128.873 318.396 C 123.34 327.545 126.255 339.445 135.392 344.998 L 299.218 444.33 C 305.154 447.901 312.548 448.018 318.593 444.637 L 157.99 347.26 Z" opacity="0.2" style="isolation: isolate;"/>
  <path d="M 350.117 299.411 L 240.148 233.151 C 235.073 230.084 235.222 222.673 240.415 219.812 C 242.819 218.487 245.747 218.54 248.099 219.954 L 358.068 286.214 C 363.138 289.291 362.974 296.703 357.776 299.554 C 355.378 300.869 352.464 300.814 350.117 299.411 Z" fill="#fff" style=""/>
  <path d="M 286.146 211.543 L 261.952 196.967 C 256.864 193.922 256.978 186.509 262.159 183.625 C 264.563 182.286 267.501 182.333 269.862 183.745 L 269.902 183.772 L 294.095 198.347 C 299.166 201.423 299.006 208.835 293.807 211.688 C 291.408 213.004 288.492 212.949 286.146 211.543 Z" fill="#fff" style=""/>
  <path d="M 332.639 328.416 L 222.671 262.157 C 217.591 259.098 217.728 251.688 222.918 248.818 C 225.32 247.488 228.251 247.54 230.606 248.953 L 230.622 248.962 L 340.591 315.221 C 345.66 318.299 345.497 325.708 340.298 328.562 C 337.902 329.876 334.984 329.821 332.639 328.416 Z" fill="#fff" style=""/>
  <circle cx="364.083" cy="142.357" r="32.119" fill="#3f3d56" style=""/>
  <circle cx="310.892" cy="406.013" r="41.809" fill="#fff" style="" transform="matrix(0.743145, 0.669131, -0.669131, 0.743145, 356.529519, -94.736968)"/>
  <path d="M 316.841 458.233 C 284.208 458.233 263.812 422.906 280.129 394.645 C 296.445 366.383 337.237 366.383 353.554 394.645 C 357.275 401.089 359.233 408.399 359.234 415.841 C 359.207 439.242 340.243 458.207 316.841 458.233 Z M 316.841 374.615 C 285.106 374.615 265.271 408.97 281.139 436.454 C 297.007 463.938 336.676 463.938 352.544 436.454 C 356.162 430.187 358.067 423.077 358.067 415.841 C 358.041 393.083 339.599 374.641 316.841 374.615 Z" fill="#3f3d56" style="" transform="matrix(0.743145, 0.669131, -0.669131, 0.743145, 359.626169, -105.176462)"/>
  <path d="M 311.131 437.618 C 309.667 437.618 308.289 436.929 307.411 435.758 L 296.004 420.549 C 293.854 417.687 295.608 413.57 299.162 413.139 C 300.815 412.939 302.448 413.637 303.446 414.969 L 310.908 424.918 L 330.074 396.169 C 332.06 393.191 336.525 393.479 338.112 396.688 C 338.849 398.177 338.735 399.946 337.813 401.329 L 315.001 435.547 C 314.163 436.803 312.769 437.575 311.26 437.617 C 311.217 437.618 311.174 437.618 311.131 437.618 Z" fill="#f12a72" style="" transform="matrix(0.743145, 0.669131, -0.669131, 0.743145, 359.643075, -105.185471)"/>
</svg>