<?xml version="1.0" encoding="utf-8"?>
<svg viewBox="102.384 123.422 672.511 338.009" xmlns="http://www.w3.org/2000/svg">
  <path d="M 427.813 328.832 C 419.093 328.555 412.695 320.536 414.361 311.973 L 355.914 272.39 L 362.888 253.533 L 431.962 301.052 C 442.465 303.917 445.927 317.079 438.194 324.741 C 435.44 327.47 431.688 328.948 427.813 328.832 Z" fill="#ffb6b6" style=""/>
  <path d="M 262.731 147.128 L 254.239 150.49 L 299.543 238.974 L 393.332 302.903 L 406.852 280.054 L 335.459 218.387 L 306.876 163.57 C 298.545 147.592 279.486 140.493 262.731 147.128 Z" fill="#f12a72" style=""/>
  <path d="M 167.528 354.955 C 184.8 284.521 219.023 223.981 275.701 176.548 C 280.268 169.036 290.055 166.637 297.578 171.187 L 432.316 252.88 C 439.829 257.448 442.228 267.236 437.677 274.759 C 416.044 347.032 383.643 409.746 329.505 453.165 C 324.938 460.679 315.151 463.077 307.627 458.527 L 172.891 376.833 C 165.377 372.266 162.979 362.479 167.528 354.955 Z" fill="#f2f2f2" style=""/>
  <path d="M 191.477 378.693 C 183.964 374.125 181.565 364.339 186.116 356.816 C 203.388 286.379 237.611 225.841 294.287 178.408 C 295.739 176.046 297.789 174.109 300.23 172.794 L 297.578 171.187 C 290.055 166.637 280.268 169.036 275.701 176.548 C 219.023 223.981 184.8 284.52 167.53 354.955 C 162.979 362.479 165.377 372.266 172.891 376.833 L 307.627 458.527 C 312.509 461.464 318.59 461.56 323.562 458.779 L 191.477 378.693 Z" opacity="0.2" style="isolation: isolate;"/>
  <path d="M 349.489 339.341 L 259.047 284.847 C 254.873 282.324 254.995 276.229 259.266 273.876 C 261.243 272.786 263.651 272.83 265.586 273.993 L 356.028 328.487 C 360.197 331.018 360.063 337.113 355.788 339.458 C 353.816 340.54 351.419 340.495 349.489 339.341 Z" fill="#fff" style=""/>
  <path d="M 296.876 267.076 L 276.979 255.087 C 272.794 252.583 272.888 246.487 277.149 244.115 C 279.126 243.014 281.542 243.052 283.484 244.213 L 283.517 244.235 L 303.415 256.223 C 307.585 258.752 307.453 264.848 303.177 267.194 C 301.204 268.277 298.806 268.231 296.876 267.076 Z" fill="#fff" style=""/>
  <path d="M 335.114 363.196 L 244.673 308.702 C 240.495 306.186 240.607 300.092 244.876 297.731 C 246.852 296.637 249.262 296.68 251.199 297.842 L 251.212 297.85 L 341.654 352.344 C 345.823 354.875 345.689 360.969 341.413 363.315 C 339.442 364.396 337.043 364.351 335.114 363.196 Z" fill="#fff" style=""/>
  <circle cx="360.975" cy="210.174" r="26.416" fill="#3f3d56" style=""/>
  <path d="M 175.931 355.701 C 167.368 352.193 163.982 341.851 168.814 333.958 L 125.412 272.949 L 139.335 256.795 L 190.355 329.634 C 199.729 336.377 198.289 350.739 187.762 355.487 C 184.014 357.176 179.738 357.254 175.931 355.701 Z" fill="#ffb6b6" style=""/>
  <path d="M 176.927 162.363 C 172.391 159.695 166.588 160.717 163.238 164.774 L 104.595 246.787 L 158.941 323.974 L 180.208 301.133 L 147.127 249.15 L 191.091 207.292 C 198.573 190.899 192.459 171.502 176.927 162.363 Z" fill="#f12a72" style=""/>
</svg>