<?xml version="1.0" encoding="utf-8"?>
<svg viewBox="0 0 500 500" xmlns="http://www.w3.org/2000/svg">
  <path d="M 169.913 122.689 C 167.518 123.602 165.073 124.375 162.589 125.005 C 159.308 125.805 157.455 126.176 154.289 124.947 C 154.177 124.904 154.071 124.861 153.971 124.819 C 141.707 119.604 133.677 107.642 133.497 94.317 C 133.481 94.093 133.481 93.858 133.481 93.628 C 133.478 92.523 133.531 91.418 133.639 90.318 C 133.778 88.82 134.018 87.332 134.357 85.866 L 134.325 85.861 C 131.761 83.239 130.775 79.648 131.102 76.039 C 131.556 71.083 134.259 66.608 138.435 63.9 C 141.665 61.869 145.307 60.584 149.097 60.137 C 150.114 60.02 151.137 59.96 152.162 59.959 L 161.784 59.959 C 163.772 59.494 165.79 59.175 167.825 59.007 L 167.84 59.007 C 187.207 57.4 202.479 70.239 201.055 85.861 C 201.044 85.878 201.029 85.895 201.018 85.912 C 200.606 86.583 200.242 87.22 199.921 87.828 C 199.609 88.396 199.346 88.941 199.119 89.457 C 197.351 93.45 205.75 155.398 202.738 156.339 C 201.023 156.873 194.112 110.775 195.352 119.541 C 196.914 130.538 178.835 119.391 169.913 122.689 Z" fill="#2f2e41" style=""/>
  <polygon points="199.087 234.674 225.933 291.865 122.664 281.406 144.221 226.503 199.087 234.674" fill="#ffb6b6" style=""/>
  <path d="M 252.977 349.34 C 235.02 355.318 216.095 357.853 197.197 356.812 L 188.979 343.485 C 188.979 343.485 188.635 348.448 188.122 356.036 C 179.126 354.993 170.248 353.111 161.603 350.413 C 145.208 345.287 129.84 337.343 114.262 330.018 C 111.106 311.209 109.922 282.205 127.367 265.32 L 221.261 282.525 C 221.261 282.525 236.326 293.793 232.296 297.829 C 228.266 301.859 227.642 301.235 230.29 303.883 C 232.938 306.531 238.659 310.071 238.717 312.387 C 238.741 313.291 245.162 329.685 252.977 349.34 Z" fill="#2f2e41" style=""/>
  <path d="M 182.691 124.159 L 160.006 125.741 L 145.344 139.909 L 140.209 140.826 C 130.656 142.529 123.888 151.111 124.459 160.799 C 125.515 178.694 127.88 205.432 132.823 214.107 C 140.487 227.558 146.818 223.338 140.487 227.558 C 134.156 231.779 129.906 228.462 132.823 235.132 C 135.739 241.802 128.881 250.357 128.881 250.357 L 126.151 253.087 L 129.046 254.274 L 221.311 266.28 C 221.311 266.28 213.334 230.41 218.323 221.598 C 223.312 212.787 235.409 186.151 224.613 175.729 L 214.056 138.581 L 195.898 133.226 L 182.691 124.159 Z" fill="#f12a72" style=""/>
  <path d="M 320.011 271.379 C 313.554 271.174 308.816 265.236 310.05 258.895 L 266.77 229.584 L 271.934 215.62 L 323.083 250.808 C 330.861 252.93 333.424 262.676 327.698 268.35 C 325.659 270.371 322.88 271.465 320.011 271.379 Z" fill="#ffb6b6" style=""/>
  <path d="M 197.768 136.827 L 191.479 139.317 L 225.027 204.839 L 294.478 252.179 L 304.489 235.259 L 251.623 189.595 L 230.457 149.003 C 224.288 137.171 210.175 131.914 197.768 136.827 Z" fill="#f12a72" style=""/>
  <circle cx="170.168" cy="95.618" r="22.779" fill="#ffb6b6" style=""/>
  <path d="M 189.976 85.985 C 189.597 86.186 189.222 86.37 188.842 86.555 C 188.446 86.745 188.051 86.935 187.65 87.114 C 180.027 90.57 173.818 90.955 170.051 85.985 C 169.948 83.371 169.359 80.798 168.315 78.399 C 168.5 81.08 167.793 83.747 166.305 85.985 L 158.719 85.985 C 150.906 91.171 146.897 95.935 152.32 112.959 C 152.673 114.077 155.095 153.812 155.786 156.867 C 143.958 152.33 133.755 104.159 133.497 91.466 C 133.481 91.261 133.481 91.044 133.481 90.833 C 133.478 89.817 133.531 88.8 133.639 87.789 C 133.779 86.409 134.018 85.041 134.357 83.696 L 134.325 83.69 C 131.885 81.357 130.69 78.009 131.102 74.659 C 133.086 72.061 135.541 69.859 138.34 68.17 C 140.884 66.938 143.537 65.942 146.264 65.194 C 146.332 65.179 146.39 65.163 146.459 65.147 C 147.292 64.92 148.147 64.714 149.002 64.535 C 150.763 64.166 152.544 63.896 154.335 63.728 C 154.467 63.723 154.594 63.712 154.71 63.712 C 155.426 63.712 156.13 63.906 156.746 64.271 C 156.751 64.271 156.751 64.277 156.762 64.277 C 157.966 64.996 158.708 66.292 158.719 67.695 L 167.17 67.695 C 167.482 67.695 167.793 67.706 168.104 67.721 C 179.874 68.191 189.333 73.224 189.939 84.793 C 189.966 85.194 189.976 85.584 189.976 85.985 Z" fill="#2f2e41" style=""/>
  <circle cx="140.011" cy="71.894" r="15.007" fill="#2f2e41" style=""/>
  <path d="M 160.613 64.953 C 158.908 73.064 150.497 77.915 142.45 75.931 C 134.403 73.946 129.488 65.814 131.473 57.767 C 133.457 49.721 143.223 52.04 149.636 46.79 C 158.708 39.363 162.912 54.015 160.613 64.953 Z" fill="#2f2e41" style=""/>
  <path d="M 127.27 290.723 C 140.06 238.567 165.402 193.737 207.372 158.613 C 210.754 153.05 218.001 151.274 223.572 154.643 L 323.345 215.137 C 328.909 218.519 330.685 225.767 327.315 231.338 C 311.296 284.856 287.303 331.296 247.214 363.448 C 243.832 369.012 236.585 370.788 231.013 367.418 L 131.241 306.924 C 125.677 303.542 123.901 296.295 127.27 290.723 Z" fill="#f2f2f2" style=""/>
  <path d="M 145.004 308.301 C 139.441 304.919 137.664 297.672 141.034 292.101 C 153.824 239.943 179.166 195.114 221.135 159.99 C 222.21 158.241 223.728 156.807 225.536 155.833 L 223.572 154.643 C 218.001 151.274 210.754 153.05 207.372 158.613 C 165.402 193.737 140.06 238.566 127.271 290.723 C 123.901 296.295 125.677 303.542 131.241 306.924 L 231.013 367.418 C 234.628 369.593 239.131 369.664 242.813 367.605 L 145.004 308.301 Z" opacity="0.2" style="isolation: isolate;"/>
  <path d="M 262.012 279.161 L 195.04 238.808 C 191.949 236.94 192.039 232.427 195.202 230.684 C 196.666 229.877 198.449 229.91 199.882 230.771 L 266.854 271.124 C 269.941 272.998 269.842 277.511 266.676 279.248 C 265.216 280.049 263.441 280.016 262.012 279.161 Z" fill="#fff" style=""/>
  <path d="M 223.052 225.649 L 208.318 216.771 C 205.219 214.917 205.289 210.403 208.444 208.646 C 209.908 207.831 211.697 207.859 213.135 208.719 L 213.16 208.735 L 227.894 217.612 C 230.982 219.485 230.884 223.999 227.718 225.736 C 226.257 226.538 224.481 226.504 223.052 225.649 Z" fill="#fff" style=""/>
  <path d="M 251.367 296.826 L 184.396 256.473 C 181.302 254.61 181.385 250.097 184.546 248.349 C 186.009 247.539 187.794 247.571 189.228 248.431 L 189.238 248.437 L 256.21 288.79 C 259.297 290.664 259.198 295.177 256.032 296.914 C 254.572 297.714 252.796 297.681 251.367 296.826 Z" fill="#fff" style=""/>
  <circle cx="270.517" cy="183.513" r="19.561" fill="#3f3d56" style=""/>
  <circle cx="236.798" cy="351.308" r="41.809" fill="#fff" style=""/>
  <path d="M 236.798 393.7 C 204.165 393.7 183.769 358.373 200.086 330.112 C 216.402 301.85 257.194 301.85 273.511 330.112 C 277.232 336.556 279.19 343.866 279.191 351.308 C 279.164 374.709 260.2 393.674 236.798 393.7 Z M 236.798 310.082 C 205.063 310.082 185.228 344.437 201.096 371.921 C 216.964 399.405 256.633 399.405 272.501 371.921 C 276.119 365.654 278.024 358.544 278.024 351.308 C 277.998 328.55 259.556 310.108 236.798 310.082 Z" fill="#3f3d56" style=""/>
  <path d="M 231.095 373.067 C 229.631 373.067 228.253 372.378 227.375 371.207 L 215.968 355.998 C 213.818 353.136 215.572 349.019 219.126 348.588 C 220.779 348.388 222.412 349.086 223.41 350.418 L 230.872 360.367 L 250.038 331.618 C 252.024 328.64 256.489 328.928 258.076 332.137 C 258.813 333.626 258.699 335.395 257.777 336.778 L 234.965 370.996 C 234.127 372.252 232.733 373.024 231.224 373.066 C 231.181 373.067 231.138 373.067 231.095 373.067 Z" fill="#f12a72" style=""/>
  <path d="M 133.492 291.276 C 127.151 288.678 124.644 281.02 128.222 275.175 L 96.083 229.998 L 106.393 218.036 L 144.173 271.973 C 151.115 276.966 150.048 287.601 142.253 291.117 C 139.478 292.368 136.311 292.426 133.492 291.276 Z" fill="#ffb6b6" style=""/>
  <path d="M 134.23 148.109 C 130.871 146.133 126.574 146.89 124.093 149.894 L 80.668 210.625 L 120.911 267.782 L 136.659 250.868 L 112.163 212.375 L 144.718 181.379 C 150.259 169.24 145.731 154.876 134.23 148.109 Z" fill="#f12a72" style=""/>
</svg>