<?xml version="1.0" encoding="utf-8"?>
<svg viewBox="0 0 500 500" xmlns="http://www.w3.org/2000/svg">
  <polygon points="107.539 411.222 118.781 411.222 124.129 367.861 107.536 367.863 107.539 411.222" fill="#ffb7b7" style=""/>
  <path d="M 104.672 407.553 L 126.811 407.552 L 126.812 407.552 C 134.604 407.553 140.92 413.869 140.92 421.661 L 140.92 422.119 L 104.672 422.12 L 104.672 407.553 Z" fill="#2f2e41" style=""/>
  <polygon points="209.619 410.973 219.956 406.557 207.84 364.58 192.583 371.099 209.619 410.973" fill="#ffb7b7" style=""/>
  <path d="M 205.539 408.724 L 225.899 400.027 L 225.9 400.026 C 233.065 396.966 241.355 400.293 244.417 407.459 L 244.597 407.88 L 211.262 422.12 L 205.539 408.724 Z" fill="#2f2e41" style=""/>
  <polygon points="162.181 212.979 162.994 226.152 139.233 228.696 114.369 231.356 121.686 211.353 162.181 212.979" fill="#ffb7b7" style=""/>
  <path d="M 163.017 217.706 C 162.747 217.6 135.908 207.16 119.423 215.697 L 119.016 215.906 L 115.728 199.719 L 113.854 164.915 L 126.048 159.154 L 129.406 151.632 L 152.274 150.28 L 156.974 156.725 L 172.974 161.968 L 163.412 217.862 L 163.017 217.706 Z" style="fill: rgb(168, 69, 69);"/>
  <path d="M 201.246 403.352 L 222.909 398.908 L 188.284 303.363 L 176.433 270.774 C 176.433 270.774 168.917 244.644 165.521 234.533 L 163.472 220.965 L 114.958 226.335 C 114.958 226.335 101.409 246.234 105.525 278.667 L 103.663 400.575 L 125.328 401.686 L 143.474 278.736 L 175.323 346.137 C 175.323 346.137 185.361 374.898 192.543 381.133 L 201.246 403.352 Z" fill="#2f2e41" style=""/>
</svg>