<?xml version="1.0" encoding="utf-8"?>
<svg viewBox="0 0 500 500" xmlns="http://www.w3.org/2000/svg">
  <path d="M 218.992 203.586 C 218.726 203.86 218.482 204.154 218.262 204.466 L 184.073 203.629 L 180.084 196.34 L 168.297 200.922 L 174.105 214.512 C 175.068 216.767 177.404 218.115 179.839 217.82 L 218.468 213.155 C 221.921 217.527 228.814 216.521 230.875 211.344 C 232.934 206.165 228.616 200.699 223.103 201.504 C 221.542 201.732 220.099 202.463 218.992 203.586 Z" fill="#ffb7b7" style=""/>
  <polygon points="107.539 411.222 118.781 411.222 124.129 367.861 107.536 367.863 107.539 411.222" fill="#ffb7b7" style=""/>
  <path d="M 104.672 407.553 L 126.811 407.552 L 126.812 407.552 C 134.604 407.553 140.92 413.869 140.92 421.661 L 140.92 422.119 L 104.672 422.12 L 104.672 407.553 Z" fill="#2f2e41" style=""/>
  <polygon points="209.619 410.973 219.956 406.557 207.84 364.58 192.583 371.099 209.619 410.973" fill="#ffb7b7" style=""/>
  <path d="M 205.539 408.724 L 225.899 400.027 L 225.9 400.026 C 233.065 396.966 241.355 400.293 244.417 407.459 L 244.597 407.88 L 211.262 422.12 L 205.539 408.724 Z" fill="#2f2e41" style=""/>
  <polygon points="162.181 212.979 162.994 226.152 139.233 228.696 114.369 231.356 121.686 211.353 162.181 212.979" fill="#ffb7b7" style=""/>
  <path d="M 163.017 217.706 C 162.747 217.6 135.908 207.16 119.423 215.697 L 119.016 215.906 L 115.728 199.719 L 113.854 164.915 L 126.048 159.154 L 129.406 151.632 L 152.274 150.28 L 156.974 156.725 L 172.974 161.968 L 163.412 217.862 L 163.017 217.706 Z" style="fill: rgb(168, 69, 69);"/>
  <path d="M 163.857 186.291 L 166.685 164.065 L 173.126 162.105 L 173.235 162.145 C 173.384 162.2 176.884 163.54 177.843 168.386 C 178.762 173.038 185.689 201.983 185.759 202.275 L 185.828 202.565 L 169.554 209.076 L 163.857 186.291 Z" style="fill: rgb(168, 69, 69);"/>
  <path d="M 201.246 403.352 L 222.909 398.908 L 188.284 303.363 L 176.433 270.774 C 176.433 270.774 168.917 244.644 165.521 234.533 L 163.472 220.965 L 114.958 226.335 C 114.958 226.335 101.409 246.234 105.525 278.667 L 103.663 400.575 L 125.328 401.686 L 143.474 278.736 L 175.323 346.137 C 175.323 346.137 185.361 374.898 192.543 381.133 L 201.246 403.352 Z" fill="#2f2e41" style=""/>
  <path d="M 134.414 230.86 C 134.032 230.851 133.651 230.871 133.273 230.922 L 110.64 205.282 L 113.273 197.402 L 101.9 191.875 L 95.882 205.372 C 94.884 207.612 95.484 210.242 97.355 211.827 L 127.04 236.98 C 126.182 242.486 131.606 246.856 136.804 244.847 C 142.001 242.837 143.074 235.955 138.734 232.458 C 137.507 231.469 135.989 230.908 134.414 230.86 Z" fill="#ffb7b7" style=""/>
  <path d="M 99.85 195.674 L 108.698 170.471 C 109.693 167.499 110.938 165.695 112.401 165.106 C 112.984 164.844 113.65 164.838 114.237 165.088 L 118.205 170.102 L 121.888 185.57 L 112.447 207.778 L 99.85 195.674 Z" style="fill: rgb(168, 69, 69);"/>
  <path d="M 158.414 145.064 L 119.573 145.064 C 117.909 145.063 116.561 143.715 116.559 142.051 L 116.559 125.309 C 116.559 108.038 135.255 97.244 150.212 105.879 C 157.152 109.886 161.429 117.292 161.429 125.309 L 161.429 142.051 C 161.426 143.715 160.078 145.063 158.414 145.064 Z" fill="#2f2e41" style=""/>
  <circle cx="143.603" cy="128.226" r="16.449" fill="#ffb7b7" style=""/>
  <path d="M 166.736 126.983 L 142.985 126.983 L 142.741 123.572 L 141.523 126.983 L 137.867 126.983 L 137.384 120.224 L 134.97 126.983 L 127.894 126.983 L 127.894 126.648 C 127.905 116.851 135.844 108.912 145.641 108.901 L 148.989 108.901 C 158.786 108.912 166.725 116.851 166.736 126.648 L 166.736 126.983 Z" fill="#2f2e41" style=""/>
  <path d="M 142.791 148.189 C 142.612 148.189 142.433 148.173 142.258 148.143 L 124.866 145.074 L 124.866 116.33 L 144.011 116.33 L 143.537 116.883 C 136.942 124.574 141.91 137.045 145.459 143.795 C 145.992 144.803 145.9 146.029 145.222 146.947 C 144.658 147.727 143.754 148.189 142.791 148.189 Z" fill="#2f2e41" style=""/>
  <path d="M 220.206 173.008 C 219.122 173.117 218.031 173.143 216.943 173.084 C 216.557 173.042 216.208 173.317 216.16 173.702 L 214.078 189.315 C 213.919 190.448 213.455 191.516 212.736 192.407 C 211.538 193.84 210.988 195.705 211.218 197.559 L 211.218 224.079 C 211.218 224.079 211.084 227.615 213.801 227.615 C 217.053 228.023 220.342 228.023 223.594 227.615 C 223.594 227.615 225.77 227.203 225.77 223.94 L 225.77 197.828 C 226.106 195.984 225.615 194.086 224.427 192.636 C 223.732 191.741 223.283 190.681 223.124 189.56 L 220.962 173.622 C 220.912 173.249 220.58 172.981 220.206 173.008 Z" fill="#fff" style=""/>
  <path d="M 218.688 228.368 C 217.045 228.369 215.403 228.266 213.771 228.062 C 213.036 228.08 212.325 227.789 211.812 227.261 C 210.706 226.112 210.767 224.144 210.771 224.062 L 210.771 197.587 C 210.538 195.619 211.124 193.642 212.392 192.121 C 213.057 191.293 213.486 190.303 213.635 189.251 L 215.716 173.643 C 215.8 173.018 216.365 172.575 216.992 172.639 C 218.049 172.695 219.108 172.67 220.161 172.562 L 220.174 172.562 C 220.784 172.517 221.322 172.955 221.406 173.561 L 223.568 189.5 C 223.716 190.543 224.134 191.529 224.78 192.36 C 226.039 193.899 226.564 195.91 226.217 197.867 L 226.217 223.94 C 226.217 227.532 223.703 228.049 223.678 228.055 C 222.022 228.263 220.356 228.368 218.688 228.368 Z M 216.882 173.529 C 216.744 173.522 216.624 173.622 216.603 173.759 L 214.522 189.373 C 214.351 190.588 213.854 191.733 213.083 192.688 C 211.965 194.028 211.451 195.771 211.663 197.504 L 211.666 197.558 L 211.666 224.079 C 211.665 224.112 211.617 225.77 212.458 226.641 C 212.81 226.999 213.299 227.19 213.801 227.168 L 213.856 227.171 C 217.071 227.574 220.324 227.574 223.539 227.171 C 223.581 227.16 225.321 226.764 225.321 223.94 L 225.329 197.747 C 225.643 196.032 225.186 194.267 224.081 192.919 C 223.335 191.961 222.853 190.824 222.681 189.624 L 220.519 173.682 C 220.5 173.546 220.38 173.447 220.243 173.454 C 219.139 173.565 218.027 173.59 216.919 173.531 C 216.907 173.53 216.894 173.529 216.882 173.529 Z" fill="#3f3d56" style=""/>
  <path d="M 216.92 198.034 L 220.219 198.034 C 222.951 198.034 225.165 200.248 225.165 202.979 L 225.165 215.391 C 225.165 218.123 222.951 220.337 220.219 220.337 L 216.92 220.337 C 214.189 220.337 211.974 218.123 211.974 215.391 L 211.974 202.979 C 211.974 200.248 214.189 198.034 216.92 198.034 Z" fill="#c90fa0" style=""/>
</svg>