<?xml version="1.0" encoding="utf-8"?>
<svg viewBox="78.027 157.39 156.669 76.307" xmlns="http://www.w3.org/2000/svg">
  <path d="M 218.992 203.586 C 218.726 203.86 218.482 204.154 218.262 204.466 L 184.073 203.629 L 180.084 196.34 L 168.297 200.922 L 174.105 214.512 C 175.068 216.767 177.404 218.115 179.839 217.82 L 218.468 213.155 C 221.921 217.527 228.814 216.521 230.875 211.344 C 232.934 206.165 228.616 200.699 223.103 201.504 C 221.542 201.732 220.099 202.463 218.992 203.586 Z" fill="#ffb7b7" style=""/>
  <path d="M 163.857 186.291 L 166.685 164.065 L 173.126 162.105 L 173.235 162.145 C 173.384 162.2 176.884 163.54 177.843 168.386 C 178.762 173.038 185.689 201.983 185.759 202.275 L 185.828 202.565 L 169.554 209.076 L 163.857 186.291 Z" style="fill: rgb(168, 69, 69);"/>
  <path d="M 220.206 173.008 C 219.122 173.117 218.031 173.143 216.943 173.084 C 216.557 173.042 216.208 173.317 216.16 173.702 L 214.078 189.315 C 213.919 190.448 213.455 191.516 212.736 192.407 C 211.538 193.84 210.988 195.705 211.218 197.559 L 211.218 224.079 C 211.218 224.079 211.084 227.615 213.801 227.615 C 217.053 228.023 220.342 228.023 223.594 227.615 C 223.594 227.615 225.77 227.203 225.77 223.94 L 225.77 197.828 C 226.106 195.984 225.615 194.086 224.427 192.636 C 223.732 191.741 223.283 190.681 223.124 189.56 L 220.962 173.622 C 220.912 173.249 220.58 172.981 220.206 173.008 Z" fill="#fff" style=""/>
  <path d="M 218.688 228.368 C 217.045 228.369 215.403 228.266 213.771 228.062 C 213.036 228.08 212.325 227.789 211.812 227.261 C 210.706 226.112 210.767 224.144 210.771 224.062 L 210.771 197.587 C 210.538 195.619 211.124 193.642 212.392 192.121 C 213.057 191.293 213.486 190.303 213.635 189.251 L 215.716 173.643 C 215.8 173.018 216.365 172.575 216.992 172.639 C 218.049 172.695 219.108 172.67 220.161 172.562 L 220.174 172.562 C 220.784 172.517 221.322 172.955 221.406 173.561 L 223.568 189.5 C 223.716 190.543 224.134 191.529 224.78 192.36 C 226.039 193.899 226.564 195.91 226.217 197.867 L 226.217 223.94 C 226.217 227.532 223.703 228.049 223.678 228.055 C 222.022 228.263 220.356 228.368 218.688 228.368 Z M 216.882 173.529 C 216.744 173.522 216.624 173.622 216.603 173.759 L 214.522 189.373 C 214.351 190.588 213.854 191.733 213.083 192.688 C 211.965 194.028 211.451 195.771 211.663 197.504 L 211.666 197.558 L 211.666 224.079 C 211.665 224.112 211.617 225.77 212.458 226.641 C 212.81 226.999 213.299 227.19 213.801 227.168 L 213.856 227.171 C 217.071 227.574 220.324 227.574 223.539 227.171 C 223.581 227.16 225.321 226.764 225.321 223.94 L 225.329 197.747 C 225.643 196.032 225.186 194.267 224.081 192.919 C 223.335 191.961 222.853 190.824 222.681 189.624 L 220.519 173.682 C 220.5 173.546 220.38 173.447 220.243 173.454 C 219.139 173.565 218.027 173.59 216.919 173.531 C 216.907 173.53 216.894 173.529 216.882 173.529 Z" fill="#3f3d56" style=""/>
  <path d="M 216.92 198.034 L 220.219 198.034 C 222.951 198.034 225.165 200.248 225.165 202.979 L 225.165 215.391 C 225.165 218.123 222.951 220.337 220.219 220.337 L 216.92 220.337 C 214.189 220.337 211.974 218.123 211.974 215.391 L 211.974 202.979 C 211.974 200.248 214.189 198.034 216.92 198.034 Z" style="fill: rgb(181, 90, 0);"/>
</svg>