<?xml version="1.0" encoding="utf-8"?>
<svg viewBox="34.362 157.082 117.812 96.074" xmlns="http://www.w3.org/2000/svg">
  <path d="M 134.414 230.86 C 134.032 230.851 133.651 230.871 133.273 230.922 L 110.64 205.282 L 113.273 197.402 L 101.9 191.875 L 95.882 205.372 C 94.884 207.612 95.484 210.242 97.355 211.827 L 127.04 236.98 C 126.182 242.486 131.606 246.856 136.804 244.847 C 142.001 242.837 143.074 235.955 138.734 232.458 C 137.507 231.469 135.989 230.908 134.414 230.86 Z" fill="#ffb7b7" style=""/>
  <path d="M 99.85 195.674 L 108.698 170.471 C 109.693 167.499 110.938 165.695 112.401 165.106 C 112.984 164.844 113.65 164.838 114.237 165.088 L 118.205 170.102 L 121.888 185.57 L 112.447 207.778 L 99.85 195.674 Z" style="fill: rgb(168, 69, 69);"/>
</svg>