<?xml version="1.0" encoding="utf-8"?>
<svg viewBox="113.438 101.572 56.379 47.159" xmlns="http://www.w3.org/2000/svg">
  <path d="M 158.414 145.064 L 119.573 145.064 C 117.909 145.063 116.561 143.715 116.559 142.051 L 116.559 125.309 C 116.559 108.038 135.255 97.244 150.212 105.879 C 157.152 109.886 161.429 117.292 161.429 125.309 L 161.429 142.051 C 161.426 143.715 160.078 145.063 158.414 145.064 Z" fill="#2f2e41" style=""/>
  <circle cx="143.603" cy="128.226" r="16.449" fill="#ffb7b7" style=""/>
  <path d="M 166.736 126.983 L 142.985 126.983 L 142.741 123.572 L 141.523 126.983 L 137.867 126.983 L 137.384 120.224 L 134.97 126.983 L 127.894 126.983 L 127.894 126.648 C 127.905 116.851 135.844 108.912 145.641 108.901 L 148.989 108.901 C 158.786 108.912 166.725 116.851 166.736 126.648 L 166.736 126.983 Z" fill="#2f2e41" style=""/>
  <path d="M 142.791 148.189 C 142.612 148.189 142.433 148.173 142.258 148.143 L 124.866 145.074 L 124.866 116.33 L 144.011 116.33 L 143.537 116.883 C 136.942 124.574 141.91 137.045 145.459 143.795 C 145.992 144.803 145.9 146.029 145.222 146.947 C 144.658 147.727 143.754 148.189 142.791 148.189 Z" fill="#2f2e41" style=""/>
</svg>